<?xml version="1.0" encoding="UTF-8" standalone="no"?>
<svg width="218px" height="218px" viewBox="0 0 218 218" version="1.1" xmlns="http://www.w3.org/2000/svg" xmlns:xlink="http://www.w3.org/1999/xlink" xmlns:sketch="http://www.bohemiancoding.com/sketch/ns">
    <!-- Generator: Sketch 3.5.1 (25234) - http://www.bohemiancoding.com/sketch -->
    <title>Page 1</title>
    <desc>Created with Sketch.</desc>
    <defs>
        <path id="path-1" d="M70,0 C31.3405556,0 0,31.3405556 0,70 L0,70 C0,108.659444 31.3405556,140 70,140 L70,140 C108.659444,140 140,108.659444 140,70 L140,70 C140,31.3405556 108.659444,0 70,0 L70,0 Z"></path>
        <path id="path-3" d="M36.3080181,15.2748943 C36.3080181,16.4628502 36.4422968,17.620662 36.7005779,18.729832 L36.7005779,18.729832 C24.1126291,18.0981737 12.9524198,12.0611102 5.48213598,2.88699338 L5.48213598,2.88699338 C4.17839882,5.12588621 3.43095938,7.73130524 3.43095938,10.5100535 L3.43095938,10.5100535 C3.43095938,15.7709036 6.10488799,20.4124271 10.1695609,23.131572 L10.1695609,23.131572 C7.68677402,23.052786 5.3512827,22.3711158 3.30901235,21.2352271 L3.30901235,21.2352271 C3.30764215,21.2982559 3.30764215,21.3612847 3.30764215,21.4256837 L3.30764215,21.4256837 C3.30764215,28.7726502 8.52875666,34.9015166 15.4578148,36.2943162 L15.4578148,36.2943162 C14.1869622,36.6409746 12.8489703,36.8259504 11.4671322,36.8259504 L11.4671322,36.8259504 C10.4908708,36.8259504 9.54201324,36.7314072 8.61781911,36.5539674 L8.61781911,36.5539674 C10.5443083,42.5786992 16.1381149,46.9626268 22.7657309,47.0852589 L22.7657309,47.0852589 C17.5822967,51.1519871 11.0512791,53.5765409 3.95574271,53.5765409 L3.95574271,53.5765409 C2.73284684,53.5765409 1.52776346,53.5046058 0.342547862,53.3648463 L0.342547862,53.3648463 C7.04552442,57.6672475 15.0070218,60.1774382 23.5604419,60.1774382 L23.5604419,60.1774382 C51.4191744,60.1774382 66.6536481,37.0712147 66.6536481,17.0328499 L66.6536481,17.0328499 C66.6536481,16.375158 66.6399461,15.7215767 66.610487,15.0714208 L66.610487,15.0714208 C69.5694155,12.9332371 72.1371542,10.2620488 74.1684631,7.22159402 L74.1684631,7.22159402 C71.4513734,8.4273625 68.5328656,9.24262641 65.4691176,9.60915262 L65.4691176,9.60915262 C68.5958944,7.73267543 70.99784,4.76073018 72.1289331,1.22015548 L72.1289331,1.22015548 C69.2022042,2.95755824 65.9603312,4.22018966 62.5101891,4.89980462 L62.5101891,4.89980462 C59.7478832,1.95252281 55.8113231,0.110985507 51.4554845,0.110985507 L51.4554845,0.110985507 C43.0897806,0.110985507 36.3080181,6.90096923 36.3080181,15.2748943 L36.3080181,15.2748943 Z"></path>
    </defs>
    <g id="DESIGNS" stroke="none" stroke-width="1" fill="none" fill-rule="evenodd" sketch:type="MSPage">
        <g id="login" sketch:type="MSArtboardGroup" transform="translate(-251.000000, -609.000000)">
            <g id="Page-1" sketch:type="MSLayerGroup" transform="translate(290.000000, 633.000000)">
                <g id="Group-11">
                    <mask id="mask-2" sketch:name="Clip 2" fill="white">
                        <use xlink:href="#path-1"></use>
                    </mask>
                    <g id="Clip-2"></g>
                    <path d="M140,16.1754444 L0,16.1754444 L0,0 L140,0 L140,16.1754444 Z" id="Fill-1" fill="#2EB4EF" sketch:type="MSShapeGroup" mask="url(#mask-2)"></path>
                    <path d="M140,26.4374444 L0,26.4374444 L0,16.0354444 L140,16.0354444 L140,26.4374444 Z" id="Fill-3" fill="#1BDDD3" sketch:type="MSShapeGroup" mask="url(#mask-2)"></path>
                    <path d="M140,36.8464444 L0,36.8464444 L0,26.4444444 L140,26.4444444 L140,36.8464444 Z" id="Fill-4" fill="#00A4FF" sketch:type="MSShapeGroup" mask="url(#mask-2)"></path>
                    <path d="M140,84.8252222 L0,84.8252222 L0,66.0364444 L140,66.0364444 L140,84.8252222 Z" id="Fill-5" fill="#00A4FF" sketch:type="MSShapeGroup" mask="url(#mask-2)"></path>
                    <path d="M140,94.2192222 L0,94.2192222 L0,84.8244444 L140,84.8244444 L140,94.2192222 Z" id="Fill-6" fill="#1BDDD3" sketch:type="MSShapeGroup" mask="url(#mask-2)"></path>
                    <path d="M140,111.611889 L0,111.611889 L0,94.2192222 L140,94.2192222 L140,111.611889 Z" id="Fill-7" fill="#2EB4EF" sketch:type="MSShapeGroup" mask="url(#mask-2)"></path>
                    <path d="M140,122.206778 L0,122.206778 L0,111.611889 L140,111.611889 L140,122.206778 Z" id="Fill-8" fill="#1BDDD3" sketch:type="MSShapeGroup" mask="url(#mask-2)"></path>
                    <path d="M140,140 L0,140 L0,122.206778 L140,122.206778 L140,140 Z" id="Fill-9" fill="#00A4FF" sketch:type="MSShapeGroup" mask="url(#mask-2)"></path>
                    <path d="M140,66.0356667 L0,66.0356667 L0,36.8464444 L140,36.8464444 L140,66.0356667 Z" id="Fill-10" fill="#2EB4EF" sketch:type="MSShapeGroup" mask="url(#mask-2)"></path>
                </g>
                <g id="Group-17" transform="translate(35.397746, 39.888889)">
                    <mask id="mask-4" sketch:name="Clip 15" fill="white">
                        <use xlink:href="#path-3"></use>
                    </mask>
                    <g id="Clip-15"></g>
                    <path d="M-3.08293076,-3.31449311 L77.5939417,-3.31449311 L77.5939417,63.6029168 L-3.08293076,63.6029168 L-3.08293076,-3.31449311 Z" id="Fill-16" fill="#FFFFFF" sketch:type="MSShapeGroup" mask="url(#mask-4)"></path>
                </g>
            </g>
        </g>
    </g>
</svg>