<?xml version="1.0" encoding="UTF-8" standalone="no"?>
<svg width="218px" height="218px" viewBox="0 0 218 218" version="1.1" xmlns="http://www.w3.org/2000/svg" xmlns:xlink="http://www.w3.org/1999/xlink" xmlns:sketch="http://www.bohemiancoding.com/sketch/ns">
    <!-- Generator: Sketch 3.5.1 (25234) - http://www.bohemiancoding.com/sketch -->
    <title>Page 1</title>
    <desc>Created with Sketch.</desc>
    <defs>
        <path id="path-1" d="M70,0 C31.3405556,0 0,31.3405556 0,70 L0,70 C0,108.659444 31.3405556,140 70,140 L70,140 C108.659444,140 140,108.659444 140,70 L140,70 C140,31.3405556 108.659444,0 70,0 L70,0 Z"></path>
        <path id="path-3" d="M22.5297333,1.90562685 C14.4273824,4.67994722 7.52365833,10.7490185 3.67770926,18.4291333 L3.67770926,18.4291333 C2.33637315,21.0777648 1.37079444,23.8887444 0.780318519,26.8064287 L0.780318519,26.8064287 C-0.686706481,34.0387769 0.333206481,41.7542417 3.65937963,48.3417796 L3.65937963,48.3417796 C5.82423981,52.6381139 8.93634907,56.4690065 12.6919593,59.4587 L12.6919593,59.4587 C16.2518352,62.2873546 20.3832028,64.3991898 24.7829685,65.5631213 L24.7829685,65.5631213 C30.3283361,67.0484759 36.2304769,67.0124713 41.8111944,65.7418352 L41.8111944,65.7418352 C46.8551157,64.5785583 51.6299843,62.1616657 55.4399287,58.6528509 L55.4399287,58.6528509 C59.4645917,54.9469926 62.3443074,50.078512 63.8643574,44.8329648 L63.8643574,44.8329648 C65.5277713,39.1226306 65.7424898,33.0182093 64.7049019,27.1468361 L64.7049019,27.1468361 L33.4044407,27.1468361 L33.4044407,40.1431981 L51.5403,40.1431981 C50.8431194,44.2961685 48.3751657,48.0910565 44.8872991,50.4365944 L44.8872991,50.4365944 C42.6870889,51.9226037 40.1654556,52.871162 37.554138,53.3366037 L37.554138,53.3366037 C34.9428204,53.7843704 32.2241435,53.83805 29.6121713,53.3189287 L29.6121713,53.3189287 C26.9478287,52.7814778 24.4255407,51.6712259 22.2076556,50.1145167 L22.2076556,50.1145167 C18.6661093,47.6256148 15.965762,43.9917657 14.5884213,39.892475 L14.5884213,39.892475 C13.1750759,35.7218296 13.1574009,31.085088 14.5884213,26.9321176 L14.5884213,26.9321176 C15.58935,23.9961037 17.2350889,21.293138 19.4176241,19.0726343 L19.4176241,19.0726343 C22.1002963,16.3159889 25.588163,14.3475176 29.3621028,13.5416685 L29.3621028,13.5416685 C32.5815713,12.8615083 35.9804083,12.9865426 39.1278676,13.9351009 L39.1278676,13.9351009 C41.8111944,14.74095 44.2791481,16.2263046 46.2999898,18.1600806 L46.2999898,18.1600806 C48.3391611,16.1196 50.3783324,14.0784648 52.4175037,12.0379843 L52.4175037,12.0379843 C53.4904417,10.946062 54.6170593,9.88948981 55.6546472,8.76156296 L55.6546472,8.76156296 C52.560213,5.89821296 48.911962,3.58867963 44.9409787,2.121 L44.9409787,2.121 C41.2704704,0.761334259 37.3636407,0.0851018519 33.4561565,0.0851018519 L33.4561565,0.0851018519 C29.7476796,0.0851018519 26.0398574,0.693907407 22.5297333,1.90562685 L22.5297333,1.90562685 Z"></path>
    </defs>
    <g id="DESIGNS" stroke="none" stroke-width="1" fill="none" fill-rule="evenodd" sketch:type="MSPage">
        <g id="login" sketch:type="MSArtboardGroup" transform="translate(-466.000000, -609.000000)">
            <g id="Page-1" sketch:type="MSLayerGroup" transform="translate(505.000000, 633.000000)">
                <g id="Group-11">
                    <mask id="mask-2" sketch:name="Clip 2" fill="white">
                        <use xlink:href="#path-1"></use>
                    </mask>
                    <g id="Clip-2"></g>
                    <path d="M140,16.1754444 L0,16.1754444 L0,0 L140,0 L140,16.1754444 Z" id="Fill-1" fill="#EB4335" sketch:type="MSShapeGroup" mask="url(#mask-2)"></path>
                    <path d="M140,26.4374444 L0,26.4374444 L0,16.0354444 L140,16.0354444 L140,26.4374444 Z" id="Fill-3" fill="#FBBC05" sketch:type="MSShapeGroup" mask="url(#mask-2)"></path>
                    <path d="M140,42.4444444 L0,42.4444444 L0,26.4444444 L140,26.4444444 L140,42.4444444 Z" id="Fill-4" fill="#34A853" sketch:type="MSShapeGroup" mask="url(#mask-2)"></path>
                    <path d="M140,89.0182222 L0,89.0182222 L0,66.0364444 L140,66.0364444 L140,89.0182222 Z" id="Fill-5" fill="#34A853" sketch:type="MSShapeGroup" mask="url(#mask-2)"></path>
                    <path d="M140,94.2192222 L0,94.2192222 L0,83.8172222 L140,83.8172222 L140,94.2192222 Z" id="Fill-6" fill="#FBBC05" sketch:type="MSShapeGroup" mask="url(#mask-2)"></path>
                    <path d="M140,111.611889 L0,111.611889 L0,94.2192222 L140,94.2192222 L140,111.611889 Z" id="Fill-7" fill="#EB4335" sketch:type="MSShapeGroup" mask="url(#mask-2)"></path>
                    <path d="M140,122.206778 L0,122.206778 L0,111.611889 L140,111.611889 L140,122.206778 Z" id="Fill-8" fill="#FBBC05" sketch:type="MSShapeGroup" mask="url(#mask-2)"></path>
                    <path d="M140,140 L0,140 L0,122.206778 L140,122.206778 L140,140 Z" id="Fill-9" fill="#34A853" sketch:type="MSShapeGroup" mask="url(#mask-2)"></path>
                    <path d="M140,66 L0,66 L0,31 L140,31 L140,66 Z" id="Fill-10" fill="#4285F4" sketch:type="MSShapeGroup" mask="url(#mask-2)"></path>
                </g>
                <g id="Group-14" transform="translate(37.286111, 36.666667)">
                    <mask id="mask-4" sketch:name="Clip 13" fill="white">
                        <use xlink:href="#path-3"></use>
                    </mask>
                    <g id="Clip-13"></g>
                    <path d="M-3.14680463,-3.1880463 L68.609113,-3.1880463 L68.609113,69.9602685 L-3.14680463,69.9602685 L-3.14680463,-3.1880463 Z" id="Fill-12" fill="#FFFFFF" sketch:type="MSShapeGroup" mask="url(#mask-4)"></path>
                </g>
            </g>
        </g>
    </g>
</svg>