<?xml version="1.0" encoding="utf-8"?>
<!-- Generator: Adobe Illustrator 19.0.0, SVG Export Plug-In . SVG Version: 6.00 Build 0)  -->
<svg version="1.1" id="Layer_1" xmlns="http://www.w3.org/2000/svg" xmlns:xlink="http://www.w3.org/1999/xlink" x="0px" y="0px"
	 viewBox="0 0 180 180" style="enable-background:new 0 0 180 180;" xml:space="preserve">
<style type="text/css">
	.st0{clip-path:url(#XMLID_2_);fill:#4D75A3;}
	.st1{clip-path:url(#XMLID_2_);fill:#264C72;}
	.st2{clip-path:url(#XMLID_2_);fill:#90B2D3;}
	.st3{fill:#FFFFFF;}
</style>
<g id="XMLID_16_">
	<defs>
		<circle id="XMLID_17_" cx="90" cy="90" r="90"/>
	</defs>
	<clipPath id="XMLID_2_">
		<use xlink:href="#XMLID_17_"  style="overflow:visible;"/>
	</clipPath>
	<rect id="XMLID_26_" class="st0" width="180" height="20"/>
	<rect id="XMLID_25_" y="20" class="st1" width="180" height="16"/>
	<rect id="XMLID_24_" y="36" class="st2" width="180" height="12"/>
	<rect id="XMLID_23_" y="86" class="st1" width="180" height="24"/>
	<rect id="XMLID_22_" y="110" class="st2" width="180" height="12"/>
	<rect id="XMLID_21_" y="122" class="st0" width="180" height="24"/>
	<rect id="XMLID_20_" y="146" class="st1" width="180" height="16"/>
	<rect id="XMLID_19_" y="162" class="st2" width="180" height="18"/>
	<rect id="XMLID_18_" y="48" class="st0" width="180" height="38"/>
</g>
<path id="XMLID_67_" class="st3" d="M128.2,89.3c0,0,15.2-21.4,16.7-28.5c0.5-2.5-0.6-3.9-3.2-3.9c0,0-8.8,0-13.2,0
	c-3,0-4.1,1.3-5,3.2c0,0-7.1,15.2-15.8,24.8c-2.8,3.1-4.2,4-5.7,4c-1.2,0-1.8-1-1.8-3.8V60.7c0-3.4-0.4-4.4-3.2-4.4H75.7
	c-1.6,0-2.6,0.9-2.6,2.2c0,3.2,4.9,4,4.9,12.7v18c0,3.6-0.2,5-1.9,5c-4.5,0-15.3-15.6-21.3-33.3c-1.2-3.6-2.5-4.6-5.9-4.6H35.6
	c-1.9,0-3.3,1.3-3.3,3.2c0,3.5,4.1,19.8,20.3,41.7c10.9,14.7,25.2,22.6,38.1,22.6c7.9,0,9.8-1.3,9.8-4.6v-11.3c0-2.8,1.1-4,2.7-4
	c1.8,0,5,0.6,12.5,8c8.9,8.5,9.5,12,14.3,12h14.8c1.5,0,2.9-0.7,2.9-3.2c0-3.3-4.3-9.3-11-16.3c-2.7-3.6-7.1-7.5-8.6-9.4
	C126.1,92.8,126.7,91.6,128.2,89.3z"/>
</svg>
