<svg xmlns="http://www.w3.org/2000/svg" xmlns:xlink="http://www.w3.org/1999/xlink" width="180" height="180"><g><g><defs><circle id="a" cx="90" cy="90" r="90"/></defs><clipPath id="b"><use xlink:href="#a" overflow="visible"/></clipPath><path clip-path="url(#b)" fill="#3B5998" d="M0 0h180v20h-180z"/><path clip-path="url(#b)" fill="#2B4D89" d="M0 20h180v16h-180z"/><path clip-path="url(#b)" fill="#60A4F4" d="M0 36h180v12h-180z"/><path clip-path="url(#b)" fill="#2B4D89" d="M0 86h180v24h-180z"/><path clip-path="url(#b)" fill="#60A4F4" d="M0 110h180v12h-180z"/><path clip-path="url(#b)" fill="#3B5998" d="M0 122h180v24h-180z"/><path clip-path="url(#b)" fill="#2B4D89" d="M0 146h180v16h-180z"/><path clip-path="url(#b)" fill="#60A4F4" d="M0 162h180v18h-180z"/><path clip-path="url(#b)" fill="#3B5998" d="M0 48h180v38h-180z"/></g><path d="M96.9 134.6v-40.7h13.6l2-15.8h-15.6v-10.1c0-4.6 1.3-7.7 7.9-7.7h8.4v-14.2c-1.5-.2-6.4-.6-12.2-.6-12.1 0-20.4 7.4-20.4 20.9v11.7h-13.7v15.8h13.7v40.6h16.3z" fill-rule="evenodd" clip-rule="evenodd" fill="#fff"/></g></svg>
