<?xml version="1.0" encoding="UTF-8" standalone="no"?>
<svg width="24px" height="24px" viewBox="0 0 24 24" version="1.1" xmlns="http://www.w3.org/2000/svg" xmlns:xlink="http://www.w3.org/1999/xlink">
    <!-- Generator: Sketch 3.7.2 (28276) - http://www.bohemiancoding.com/sketch -->
    <title>Page 1</title>
    <desc>Created with Sketch.</desc>
    <defs>
        <polygon id="path-1" points="0 0.00943820225 23.990382 0.00943820225 23.990382 24 0 24"></polygon>
    </defs>
    <g id="DESIGNS" stroke="none" stroke-width="1" fill="none" fill-rule="evenodd">
        <g id="Mobile-360-Profile-public" transform="translate(-63.000000, -312.000000)">
            <g id="Group-4" transform="translate(63.000000, 312.000000)">
                <g id="Page-1">
                    <g id="Group-3">
                        <mask id="mask-2" fill="white">
                            <use xlink:href="#path-1"></use>
                        </mask>
                        <g id="Clip-2"></g>
                        <path d="M22.6663461,24 C23.3974921,24 23.990391,23.4071011 23.990391,22.6759551 L23.990391,1.33357303 C23.990391,0.602157303 23.3974921,0.00943820225 22.6663461,0.00943820225 L1.32405393,0.00943820225 C0.592638202,0.00943820225 8.98876397e-06,0.602157303 8.98876397e-06,1.33357303 L8.98876397e-06,22.6759551 C8.98876397e-06,23.4071011 0.592638202,24 1.32405393,24 L22.6663461,24 Z" id="Fill-1" fill="#3B5998" mask="url(#mask-2)"></path>
                    </g>
                    <path d="M16.5529348,24 L16.5529348,14.7096629 L19.6714067,14.7096629 L20.1382831,11.0889888 L16.5529348,11.0889888 L16.5529348,8.77734831 C16.5529348,7.72907865 16.843991,7.01465169 18.3472719,7.01465169 L20.2645753,7.0138427 L20.2645753,3.77555056 C19.9328899,3.73150562 18.7948225,3.63289888 17.4707775,3.63289888 C14.7064629,3.63289888 12.8140584,5.32017978 12.8140584,8.4188764 L12.8140584,11.0889888 L9.6876764,11.0889888 L9.6876764,14.7096629 L12.8140584,14.7096629 L12.8140584,24 L16.5529348,24 Z" id="Fill-4" fill="#FFFFFF"></path>
                </g>
            </g>
        </g>
    </g>
</svg>