<?xml version="1.0" encoding="UTF-8" standalone="no"?>
<svg width="24px" height="24px" viewBox="0 0 24 24" version="1.1" xmlns="http://www.w3.org/2000/svg" xmlns:xlink="http://www.w3.org/1999/xlink">
    <!-- Generator: Sketch 3.7.2 (28276) - http://www.bohemiancoding.com/sketch -->
    <title>Page 1</title>
    <desc>Created with Sketch.</desc>
    <defs></defs>
    <g id="DESIGNS" stroke="none" stroke-width="1" fill="none" fill-rule="evenodd">
        <g id="Mobile-360-Profile-private" transform="translate(-277.000000, -343.000000)">
            <g id="Page-1" transform="translate(277.000000, 343.000000)">
                <path d="M1.2,0 L22.8,0 C23.4627,0 24,0.5373 24,1.2 L24,22.8 C24,23.4627 23.4627,24 22.8,24 L1.2,24 C0.5373,24 0,23.4627 0,22.8 L0,1.2 C0,0.5373 0.5373,0 1.2,0" id="Fill-1" fill="#99A3B3"></path>
                <path d="M8.67273,11.16819 L8.67273,13.16469 L11.97513,13.16469 C11.84193,14.02119 10.97673,15.67659 8.67273,15.67659 C6.68463,15.67659 5.06253,14.02959 5.06253,12.00009 C5.06253,9.97029 6.68463,8.32329 8.67273,8.32329 C9.80403,8.32329 10.56093,8.80569 10.99353,9.22179 L12.57393,7.69959 C11.55903,6.75129 10.24473,6.17739 8.67273,6.17739 C5.45373,6.17739 2.85003,8.78079 2.85003,12.00009 C2.85003,15.21909 5.45373,17.82279 8.67273,17.82279 C12.03333,17.82279 14.26263,15.46029 14.26263,12.13299 C14.26263,11.75049 14.22093,11.45919 14.17113,11.16819 L8.67273,11.16819 Z" id="Fill-3" fill="#FFFFFF"></path>
                <polyline id="Fill-5" fill="#FFFFFF" points="21.15 11.16819 19.4865 11.16819 19.4865 9.50439 17.8227 9.50439 17.8227 11.16819 16.1592 11.16819 16.1592 12.83169 17.8227 12.83169 17.8227 14.49549 19.4865 14.49549 19.4865 12.83169 21.15 12.83169"></polyline>
            </g>
        </g>
    </g>
</svg>