<svg xmlns="http://www.w3.org/2000/svg" xmlns:xlink="http://www.w3.org/1999/xlink" viewBox="0 0 180 180" enable-background="new 0 0 180 180"><g><defs><circle id="a" cx="90" cy="90" r="90"/></defs><clipPath id="b"><use xlink:href="#a" overflow="visible"/></clipPath><path clip-path="url(#b)" fill="#2EB4EF" d="M0 0h180v20h-180z"/><path clip-path="url(#b)" fill="#1BDDD3" d="M0 20h180v16h-180z"/><path clip-path="url(#b)" fill="#00A4FF" d="M0 36h180v12h-180z"/><path clip-path="url(#b)" fill="#00A4FF" d="M0 86h180v24h-180z"/><path clip-path="url(#b)" fill="#1BDDD3" d="M0 110h180v12h-180z"/><path clip-path="url(#b)" fill="#2EB4EF" d="M0 122h180v24h-180z"/><path clip-path="url(#b)" fill="#1BDDD3" d="M0 146h180v16h-180z"/><path clip-path="url(#b)" fill="#00A4FF" d="M0 162h180v18h-180z"/><path clip-path="url(#b)" fill="#2EB4EF" d="M0 48h180v38h-180z"/></g><path d="M138 60.2c-3.5 1.6-7.3 2.6-11.3 3.1 4.1-2.4 7.2-6.3 8.7-10.9-3.8 2.3-8 3.9-12.5 4.8-3.6-3.8-8.7-6.2-14.4-6.2-10.9 0-19.7 8.8-19.7 19.7 0 1.5.2 3.1.5 4.5-16.4-.8-30.9-8.7-40.6-20.6-1.7 2.9-2.7 6.3-2.7 9.9 0 6.8 3.5 12.9 8.8 16.4-3.2-.1-6.3-1-8.9-2.5v.2c0 9.6 6.8 17.5 15.8 19.3-1.7.5-3.4.7-5.2.7-1.3 0-2.5-.1-3.7-.4 2.5 7.8 9.8 13.5 18.4 13.7-6.7 5.3-15.2 8.4-24.5 8.4-1.6 0-3.2-.1-4.7-.3 8.7 5.6 19.1 8.9 30.2 8.9 36.2 0 56-30 56-56.1 0-.9 0-1.7-.1-2.6 3.9-2.6 7.3-6.1 9.9-10" fill-rule="evenodd" clip-rule="evenodd" fill="#fff"/></svg>