<svg xmlns="http://www.w3.org/2000/svg" xmlns:xlink="http://www.w3.org/1999/xlink" viewBox="0 0 180 180" enable-background="new 0 0 180 180"><g><defs><circle id="a" cx="90" cy="90" r="90"/></defs><clipPath id="b"><use xlink:href="#a" overflow="visible"/></clipPath><path clip-path="url(#b)" fill="#EA4335" d="M0 0h180v20h-180z"/><path clip-path="url(#b)" fill="#FBBC05" d="M0 20h180v16h-180z"/><path clip-path="url(#b)" fill="#34A853" d="M0 36h180v12h-180z"/><path clip-path="url(#b)" fill="#34A853" d="M0 86h180v24h-180z"/><path clip-path="url(#b)" fill="#FBBC05" d="M0 110h180v12h-180z"/><path clip-path="url(#b)" fill="#EA4335" d="M0 122h180v24h-180z"/><path clip-path="url(#b)" fill="#FBBC05" d="M0 146h180v16h-180z"/><path clip-path="url(#b)" fill="#34A853" d="M0 162h180v18h-180z"/><path clip-path="url(#b)" fill="#4285F4" d="M0 48h180v38h-180z"/></g><path d="M75 44.6c-11.9 4-22.1 12.7-27.8 23.8-2 3.8-3.4 7.9-4.3 12.1-2.2 10.4-.7 21.5 4.2 31 3.2 6.2 7.8 11.7 13.3 16 5.2 4.1 11.3 7.1 17.8 8.8 8.2 2.1 16.9 2.1 25.1.3 7.4-1.7 14.5-5.2 20.1-10.2 5.9-5.3 10.2-12.4 12.4-19.9 2.4-8.2 2.8-17 1.2-25.5h-46v18.7h26.7c-1 6-4.7 11.5-9.8 14.8-3.2 2.1-7 3.5-10.8 4.2-3.8.6-7.8.7-11.7 0-3.9-.8-7.6-2.4-10.9-4.6-5.2-3.6-9.2-8.8-11.2-14.7-2.1-6-2.1-12.7 0-18.7 1.5-4.2 3.9-8.1 7.1-11.3 3.9-4 9.1-6.8 14.6-8 4.7-1 9.7-.8 14.4.6 3.9 1.2 7.6 3.3 10.6 6.1l9-8.8 4.8-4.7c-4.6-4.1-9.9-7.5-15.8-9.6-10.6-3.9-22.4-4-33-.4z" fill-rule="evenodd" clip-rule="evenodd" fill="#fff"/></svg>