<?xml version="1.0" encoding="UTF-8" standalone="no"?>
<svg width="264px" height="49px" viewBox="0 0 264 49" version="1.1" xmlns="http://www.w3.org/2000/svg" xmlns:xlink="http://www.w3.org/1999/xlink" xmlns:sketch="http://www.bohemiancoding.com/sketch/ns">
    <!-- Generator: Sketch 3.4.4 (17249) - http://www.bohemiancoding.com/sketch -->
    <title>Layer_1</title>
    <desc>Created with Sketch.</desc>
    <defs></defs>
    <g id="DESIGNS" stroke="none" stroke-width="1" fill="none" fill-rule="evenodd" sketch:type="MSPage">
        <g id="login" sketch:type="MSArtboardGroup" transform="translate(-228.000000, -121.000000)" fill="#FFFFFF">
            <g id="Layer_1" sketch:type="MSLayerGroup" transform="translate(228.000000, 121.959999)">
                <g id="Group" transform="translate(61.876574, 5.380572)" sketch:type="MSShapeGroup">
                    <path d="M11.8372576,25.8267439 L24.0780581,25.8267439 C24.3470867,26.6338296 24.481601,27.4409154 24.481601,28.2480011 C24.481601,28.9205726 24.6161152,29.7276583 24.6161152,30.4002298 C24.6161152,31.0728012 24.6161152,31.7453727 24.481601,32.5524584 C24.481601,33.3595442 24.2125724,34.1666299 24.0780581,34.9737156 L0.941600037,34.9737156 L0.941600037,1.61417149 C1.88320007,1.34514291 2.82480011,1.21062862 3.76640015,1.21062862 C4.70800018,1.07611433 5.64960022,1.07611433 6.45668597,1.07611433 C7.26377171,1.07611433 8.20537175,1.07611433 9.14697178,1.21062862 C10.0885718,1.34514291 11.0301719,1.4796572 11.9717719,1.61417149 L11.8372576,25.8267439 L11.8372576,25.8267439 Z" id="Shape"></path>
                    <path d="M26.9028582,18.4284579 C26.9028582,15.738172 27.3064011,13.4514291 27.9789725,11.1646861 C28.651544,9.01245749 29.7276583,7.12925742 31.2073155,5.51508593 C32.5524584,3.90091444 34.3011442,2.82480011 36.4533728,1.88320007 C38.6056015,0.941600037 40.8923444,0.672571455 43.5826303,0.672571455 C46.2729161,0.672571455 48.6941733,1.07611433 50.846402,1.88320007 C52.8641163,2.69028582 54.6128021,3.90091444 56.0924593,5.51508593 C57.4376022,7.12925742 58.5137166,8.8779432 59.3208023,11.1646861 C59.9933738,13.3169148 60.3969166,15.738172 60.3969166,18.4284579 C60.3969166,20.9842294 59.9933738,23.4054866 59.3208023,25.5577153 C58.6482309,27.7099439 57.5721165,29.4586297 56.0924593,31.0728012 C54.7473164,32.5524584 52.9986306,33.763087 50.846402,34.5701728 C48.8286876,35.3772585 46.4074304,35.7808014 43.5826303,35.7808014 C40.8923444,35.7808014 38.4710872,35.3772585 36.4533728,34.5701728 C34.4356585,33.763087 32.6869727,32.5524584 31.2073155,31.0728012 C29.8621726,29.593144 28.7860583,27.7099439 27.9789725,25.5577153 C27.1718868,23.4054866 26.9028582,20.9842294 26.9028582,18.4284579 L26.9028582,18.4284579 Z M49.0977162,18.4284579 C49.0977162,15.738172 48.6941733,13.5859434 47.7525733,12.1062862 C46.8109732,10.626629 45.4658303,9.95405753 43.5826303,9.95405753 C41.6994302,9.95405753 40.3542873,10.626629 39.4126872,12.1062862 C38.4710872,13.5859434 38.0675443,15.738172 38.0675443,18.4284579 C38.0675443,21.1187437 38.4710872,23.2709723 39.4126872,24.7506295 C40.3542873,26.2302867 41.6994302,26.9028582 43.5826303,26.9028582 C45.4658303,26.9028582 46.9454875,26.2302867 47.7525733,24.7506295 C48.6941733,23.2709723 49.0977162,21.1187437 49.0977162,18.4284579 L49.0977162,18.4284579 Z" id="Shape"></path>
                    <path d="M76.6731458,25.8267439 L88.9139463,25.8267439 C89.1829749,26.6338296 89.3174892,27.4409154 89.3174892,28.2480011 C89.3174892,28.9205726 89.4520035,29.7276583 89.4520035,30.4002298 C89.4520035,31.0728012 89.4520035,31.7453727 89.3174892,32.5524584 C89.3174892,33.3595442 89.0484606,34.1666299 88.9139463,34.9737156 L65.7774883,34.9737156 L65.7774883,1.61417149 C66.7190883,1.34514291 67.6606883,1.21062862 68.6022884,1.07611433 C69.5438884,0.941600037 70.4854885,0.941600037 71.2925742,0.941600037 C72.0996599,0.941600037 73.04126,0.941600037 73.98286,1.07611433 C74.9244601,1.21062862 75.8660601,1.34514291 76.8076601,1.4796572 L76.6731458,25.8267439 L76.6731458,25.8267439 Z" id="Shape"></path>
                    <path d="M104.921147,34.9737156 C103.845033,35.1082299 102.768918,35.2427442 101.827318,35.3772585 C100.885718,35.5117728 100.078632,35.5117728 99.406061,35.5117728 C98.7334896,35.5117728 97.7918895,35.5117728 96.9848038,35.3772585 C96.0432037,35.2427442 95.1016037,35.1082299 94.0254894,34.9737156 L94.0254894,1.61417149 C94.9670894,1.34514291 95.9086894,1.21062862 96.8502895,1.21062862 C97.7918895,1.07611433 98.7334896,1.07611433 99.5405753,1.07611433 C100.347661,1.07611433 101.289261,1.07611433 102.230861,1.21062862 C103.172461,1.34514291 104.114061,1.4796572 105.055661,1.61417149 L105.055661,34.9737156 L104.921147,34.9737156 Z" id="Shape"></path>
                    <path d="M123.080576,25.0196581 L123.080576,34.8392014 C122.138976,35.1082299 121.197376,35.2427442 120.255776,35.2427442 C119.314176,35.2427442 118.372576,35.3772585 117.56549,35.3772585 C116.758405,35.3772585 115.816805,35.3772585 114.875204,35.2427442 C113.933604,35.2427442 112.992004,34.9737156 112.050404,34.8392014 L112.050404,1.61417149 L136.66652,1.61417149 C136.935548,2.42125724 137.070062,3.22834298 137.070062,4.03542873 C137.070062,4.70800018 137.204577,5.51508593 137.204577,6.18765738 C137.204577,6.86022884 137.204577,7.53280029 137.070062,8.33988604 C137.070062,9.14697178 136.801034,9.95405753 136.66652,10.7611433 L122.946062,10.7611433 L122.946062,15.8726863 L134.110748,15.8726863 C134.379777,16.6797721 134.514291,17.4868578 134.514291,18.2939436 C134.514291,18.966515 134.648805,19.7736008 134.648805,20.4461722 C134.648805,21.1187437 134.648805,21.7913151 134.514291,22.5984009 C134.514291,23.4054866 134.245262,24.2125724 134.110748,25.0196581 L123.080576,25.0196581 L123.080576,25.0196581 Z" id="Shape"></path>
                    <path d="M171.102178,33.3595442 C170.429607,33.6285727 169.488007,33.8976013 168.546407,34.1666299 C167.470292,34.4356585 166.394178,34.7046871 165.318064,34.9737156 C164.241949,35.2427442 163.031321,35.3772585 161.820692,35.5117728 C160.610063,35.6462871 159.399435,35.6462871 158.32332,35.6462871 C156.171092,35.6462871 154.018863,35.5117728 152.001149,35.1082299 C149.983434,34.7046871 148.234749,34.0321156 146.620577,32.9560013 C145.14092,31.879887 143.930291,30.4002298 142.988691,28.3825154 C142.047091,26.364801 141.643548,23.6745152 141.643548,20.3116579 L141.643548,1.4796572 C142.585148,1.21062862 143.526748,1.07611433 144.468348,1.07611433 C145.409949,0.941600037 146.351549,0.941600037 147.158634,0.941600037 C147.96572,0.941600037 148.90732,0.941600037 149.84892,1.07611433 C150.79052,1.21062862 151.73212,1.34514291 152.67372,1.4796572 L152.67372,19.3700579 C152.67372,21.9258294 153.077263,23.6745152 154.018863,24.6161152 C154.825949,25.5577153 156.171092,26.0957724 157.919778,26.0957724 L159.533949,26.0957724 C159.937492,26.0957724 160.206521,25.9612582 160.341035,25.9612582 L160.341035,1.61417149 C161.282635,1.34514291 162.224235,1.21062862 163.165835,1.21062862 C164.107435,1.07611433 165.049035,1.07611433 165.856121,1.07611433 C166.663206,1.07611433 167.604807,1.07611433 168.546407,1.21062862 C169.488007,1.34514291 170.429607,1.4796572 171.371207,1.61417149 L171.371207,33.3595442 L171.102178,33.3595442 Z" id="Shape"></path>
                    <path d="M189.261607,25.8267439 L201.502408,25.8267439 C201.771436,26.6338296 201.905951,27.4409154 201.905951,28.2480011 C201.905951,28.9205726 202.040465,29.7276583 202.040465,30.4002298 C202.040465,31.0728012 202.040465,31.7453727 201.905951,32.5524584 C201.905951,33.3595442 201.636922,34.1666299 201.502408,34.9737156 L178.36595,34.9737156 L178.36595,1.61417149 C179.30755,1.34514291 180.24915,1.21062862 181.19075,1.21062862 C182.13235,1.07611433 183.07395,1.07611433 183.881036,1.07611433 C184.688121,1.07611433 185.629722,1.07611433 186.571322,1.21062862 C187.512922,1.34514291 188.454522,1.4796572 189.396122,1.61417149 L189.261607,25.8267439 L189.261607,25.8267439 Z" id="Shape"></path>
                </g>
                <path d="M23.5400009,0 C10.4921147,0 0,10.4921147 0,23.5400009 C0,36.5878871 10.4921147,47.0800018 23.5400009,47.0800018 C36.5878871,47.0800018 47.0800018,36.5878871 47.0800018,23.5400009 C47.0800018,10.4921147 36.5878871,0 23.5400009,0 L23.5400009,0 Z M23.5400009,42.1029731 C14.5275434,42.1029731 7.12925742,35.5117728 5.78411451,26.9028582 C14.1240005,20.8497151 24.481601,17.7558864 35.5117728,17.2178292 C41.8339445,16.9488007 41.5649159,19.3700579 41.5649159,24.0780581 C41.5649159,34.0321156 33.4940584,42.1029731 23.5400009,42.1029731 L23.5400009,42.1029731 Z" id="Shape" sketch:type="MSShapeGroup"></path>
            </g>
        </g>
    </g>
</svg>