<?xml version="1.0" encoding="UTF-8" standalone="no"?>
<svg width="145px" height="101px" viewBox="0 0 145 101" version="1.1" xmlns="http://www.w3.org/2000/svg" xmlns:xlink="http://www.w3.org/1999/xlink">
    <!-- Generator: Sketch 40.3 (33839) - http://www.bohemiancoding.com/sketch -->
    <title>Page 1</title>
    <desc>Created with Sketch.</desc>
    <defs></defs>
    <g id="Page-1" stroke="none" stroke-width="1" fill="none" fill-rule="evenodd">
        <g transform="translate(1.000000, 1.000000)">
            <g id="Group-4" transform="translate(0.000000, 42.039000)">
                <path d="M62.372,21.1375 L59.747,8.7705 L24.747,5.8955 L21.497,19.7215 C12.84,17.4595 5.673,14.0105 0.902,9.8195 L10.497,0.8955 L75.739,1.6605 L82.429,14.9015 C77.075,17.6525 70.451,19.8065 63.018,21.1375" id="Fill-1" fill="#EBEBEB"></path>
                <path d="M62.372,21.1375 L59.747,8.7705 L24.747,5.8955 L21.497,19.7215 C12.84,17.4595 5.673,14.0105 0.902,9.8195 L10.497,0.8955 L75.739,1.6605 L82.429,14.9015 C77.075,17.6525 70.451,19.8065 63.018,21.1375" id="Stroke-3" stroke="#8D9AC6" stroke-width="2" stroke-linecap="round" stroke-linejoin="round"></path>
            </g>
            <g id="Group-8" transform="translate(6.000000, 13.039000)">
                <path d="M0.6482,0.8562 L5.1562,10.6612" id="Fill-5" fill="#EBEBEB"></path>
                <path d="M0.6482,0.8562 L5.1562,10.6612" id="Stroke-7" stroke="#8D9AC6" stroke-width="2" stroke-linecap="round" stroke-linejoin="round"></path>
            </g>
            <g id="Group-12" transform="translate(13.000000, 29.039000)">
                <path d="M0.497,0.8956 L87.497,0.8956" id="Fill-9" fill="#EBEBEB"></path>
                <path d="M0.497,0.8956 L87.497,0.8956" id="Stroke-11" stroke="#8D9AC6" stroke-width="2" stroke-linecap="round" stroke-linejoin="round"></path>
            </g>
            <g id="Group-16" transform="translate(13.000000, 49.039000)">
                <path d="M0.497,0.8956 L87.497,0.8956" id="Fill-13" fill="#EBEBEB"></path>
                <path d="M0.497,0.8956 L87.497,0.8956" id="Stroke-15" stroke="#8D9AC6" stroke-width="2" stroke-linecap="round" stroke-linejoin="round"></path>
            </g>
            <path d="M28.997,73.4346 C34.295,69.3196 41.954,72.7036 47.941,70.8856 C50.872,69.9956 53.341,67.6786 54.497,65.4886 C56.872,60.9876 57.956,55.9046 58.225,55.9346 L26.862,48.8536 L28.997,73.4346 L28.997,73.4346 Z" id="Stroke-17" stroke="#8D9AC6" stroke-width="2" stroke-linecap="round" stroke-linejoin="round"></path>
            <path d="M1.192,27.0475 C10.099,19.7595 25.497,14.7635 44.497,14.7635 L44.497,23.9345 L6.104,36.6845 L1.192,27.0475 Z" id="Fill-19" fill="#EBEBEB"></path>
            <path d="M1.192,27.0475 C10.099,19.7595 25.497,14.7635 44.497,14.7635 L44.497,23.9345 L6.104,36.6845 L1.192,27.0475 L1.192,27.0475 Z" id="Stroke-21" stroke="#8D9AC6" stroke-width="2" stroke-linecap="round" stroke-linejoin="round"></path>
            <g id="Group-26" transform="translate(13.000000, 43.039000)">
                <path d="M0.497,0.8956 L111.497,0.8956" id="Fill-23" fill="#EBEBEB"></path>
                <path d="M0.497,0.8956 L111.497,0.8956" id="Stroke-25" stroke="#8D9AC6" stroke-width="2" stroke-linecap="round" stroke-linejoin="round"></path>
            </g>
            <g id="Group-30" transform="translate(13.000000, 35.039000)">
                <path d="M0.497,0.8956 L111.497,0.8956" id="Fill-27" fill="#EBEBEB"></path>
                <path d="M0.497,0.8956 L111.497,0.8956" id="Stroke-29" stroke="#8D9AC6" stroke-width="2" stroke-linecap="round" stroke-linejoin="round"></path>
            </g>
            <polygon id="Fill-31" fill="#EBEBEB" points="34.6636 57.5596 40.4966 66.6846 40.4966 55.9346"></polygon>
            <polygon id="Stroke-33" stroke="#8D9AC6" stroke-width="2" stroke-linecap="round" stroke-linejoin="round" points="34.6636 57.5596 40.4966 66.6846 40.4966 55.9346"></polygon>
            <path d="M71.4318,26.7008 L71.1538,19.4958 C71.0508,16.8188 69.3238,14.4748 66.7968,13.5838 L37.2618,3.1668 C36.5968,2.9318 36.1578,2.2968 36.1748,1.5918 C36.1988,0.5588 37.1658,-0.1912 38.1718,0.0428 L68.6468,7.1178 C72.1688,7.9358 75.3188,9.9008 77.6018,12.7048 L77.6018,12.7048 C78.9198,14.3238 79.6738,16.3278 79.7498,18.4138 L80.2738,32.7428 C80.3288,34.2618 78.4578,35.0228 77.4378,33.8958 L71.8528,27.7318 C71.5958,27.4488 71.4468,27.0838 71.4318,26.7008" id="Fill-35" fill="#EBEBEB"></path>
            <path d="M71.4318,26.7008 L71.1538,19.4958 C71.0508,16.8188 69.3238,14.4748 66.7968,13.5838 L37.2618,3.1668 C36.5968,2.9318 36.1578,2.2968 36.1748,1.5918 C36.1988,0.5588 37.1658,-0.1912 38.1718,0.0428 L68.6468,7.1178 C72.1688,7.9358 75.3188,9.9008 77.6018,12.7048 L77.6018,12.7048 C78.9198,14.3238 79.6738,16.3278 79.7498,18.4138 L80.2738,32.7428 C80.3288,34.2618 78.4578,35.0228 77.4378,33.8958 L71.8528,27.7318 C71.5958,27.4488 71.4468,27.0838 71.4318,26.7008 L71.4318,26.7008 Z" id="Stroke-37" stroke="#8D9AC6" stroke-width="2" stroke-linecap="round" stroke-linejoin="round"></path>
            <path d="M16.497,49.9346 L3.184,93.7226 C2.628,95.5516 3.868,97.4366 5.768,97.6486 L17.819,98.9956 C21.432,99.3996 24.737,96.9246 25.366,93.3436 L32.99,49.9346 L16.497,49.9346 Z" id="Fill-39" fill="#EBEBEB"></path>
            <path d="M16.497,49.9346 L3.184,93.7226 C2.628,95.5516 3.868,97.4366 5.768,97.6486 L17.819,98.9956 C21.432,99.3996 24.737,96.9246 25.366,93.3436 L32.99,49.9346 L16.497,49.9346 L16.497,49.9346 Z" id="Stroke-41" stroke="#8D9AC6" stroke-width="2" stroke-linecap="round" stroke-linejoin="round"></path>
            <g id="Group-46" transform="translate(20.000000, 39.039000)">
                <path d="M0.497,0.8956 L118.497,0.8956" id="Fill-43" fill="#EBEBEB"></path>
                <path d="M0.497,0.8956 L118.497,0.8956" id="Stroke-45" stroke="#8D9AC6" stroke-width="2" stroke-linecap="round" stroke-linejoin="round"></path>
            </g>
            <path d="M90.9801,39.7263 C90.9801,51.3393 70.6131,60.7533 45.4901,60.7533 C20.3661,60.7533 0.0001,51.3393 0.0001,39.7263 C0.0001,28.1133 20.3661,18.6993 45.4901,18.6993 C70.6131,18.6993 90.9801,28.1133 90.9801,39.7263" id="Fill-47" fill="#EBEBEB"></path>
            <path d="M90.9801,39.7263 C90.9801,51.3393 70.6131,60.7533 45.4901,60.7533 C20.3661,60.7533 0.0001,51.3393 0.0001,39.7263 C0.0001,28.1133 20.3661,18.6993 45.4901,18.6993 C70.6131,18.6993 90.9801,28.1133 90.9801,39.7263 L90.9801,39.7263 Z" id="Stroke-49" stroke="#8D9AC6" stroke-width="2" stroke-linecap="round" stroke-linejoin="round"></path>
            <path d="M105.497,62.1939 C99.497,62.1939 95.497,51.9859 95.497,39.3939 C95.497,26.8019 99.497,16.5939 105.497,16.5939 L105.497,62.1939 Z" id="Fill-51" fill="#EBEBEB"></path>
            <path d="M105.497,62.1939 C99.497,62.1939 95.497,51.9859 95.497,39.3939 C95.497,26.8019 99.497,16.5939 105.497,16.5939 L105.497,62.1939 L105.497,62.1939 Z" id="Stroke-53" stroke="#8D9AC6" stroke-width="2" stroke-linecap="round" stroke-linejoin="round"></path>
            <path d="M117.497,51.853 C113.497,51.853 110.599,46.275 110.599,39.394 C110.599,32.513 113.497,26.934 117.497,26.934 L117.497,51.853 Z" id="Fill-55" fill="#EBEBEB"></path>
            <path d="M117.497,51.853 C113.497,51.853 110.599,46.275 110.599,39.394 C110.599,32.513 113.497,26.934 117.497,26.934 L117.497,51.853 L117.497,51.853 Z" id="Stroke-57" stroke="#8D9AC6" stroke-width="2" stroke-linecap="round" stroke-linejoin="round"></path>
            <path d="M126.497,48.8531 C123.497,48.8531 121.599,44.6181 121.599,39.3941 C121.599,34.1691 123.497,29.9341 126.497,29.9341 L126.497,48.8531 Z" id="Fill-59" fill="#EBEBEB"></path>
            <path d="M126.497,48.8531 C123.497,48.8531 121.599,44.6181 121.599,39.3941 C121.599,34.1691 123.497,29.9341 126.497,29.9341 L126.497,48.8531 L126.497,48.8531 Z" id="Stroke-61" stroke="#8D9AC6" stroke-width="2" stroke-linecap="round" stroke-linejoin="round"></path>
            <path d="M134.497,39.5726 C134.497,41.8506 136.344,43.6976 138.622,43.6976 C140.9,43.6976 142.747,41.8506 142.747,39.5726 C142.747,37.2946 140.9,35.4476 138.622,35.4476 C136.344,35.4476 134.497,37.2946 134.497,39.5726" id="Fill-63" fill="#EBEBEB"></path>
            <path d="M134.497,39.5726 C134.497,41.8506 136.344,43.6976 138.622,43.6976 C140.9,43.6976 142.747,41.8506 142.747,39.5726 C142.747,37.2946 140.9,35.4476 138.622,35.4476 C136.344,35.4476 134.497,37.2946 134.497,39.5726 L134.497,39.5726 Z" id="Stroke-65" stroke="#8D9AC6" stroke-width="2" stroke-linecap="round" stroke-linejoin="round"></path>
            <path d="M6.8544,34.8065 C14.5214,28.1955 29.6114,23.6995 46.9744,23.6995 C62.3174,23.6995 75.8864,27.2105 84.1254,32.5895" id="Stroke-67" stroke="#8D9AC6" stroke-linecap="round" stroke-linejoin="round" stroke-dasharray="40,4,0,4,10,10"></path>
            <path d="M84.1257,43.6998 C76.4587,50.3108 61.3687,54.8068 44.0057,54.8068 C28.6627,54.8068 15.0937,51.2958 6.8547,45.9168" id="Stroke-69" stroke="#8D9AC6" stroke-linecap="round" stroke-linejoin="round" stroke-dasharray="40,4,0,4,10,10"></path>
            <path d="M6.497,39.4346 L86.497,39.4346" id="Stroke-71" stroke="#8D9AC6" stroke-linecap="round" stroke-linejoin="round" stroke-dasharray="40,4,0,4,10,10"></path>
            <path d="M29.3216,70.842 C27.6426,69.966 26.4966,68.209 26.4966,66.185 C26.4966,63.539 28.4536,61.351 30.9986,60.987" id="Stroke-73" stroke="#8D9AC6" stroke-linecap="round" stroke-linejoin="round" stroke-dasharray="40,4,0,4,10,10"></path>
            <path d="M26.9872,84.1324 C24.9532,83.4094 23.4972,81.4664 23.4972,79.1844 C23.4972,76.2854 25.8472,73.9344 28.7472,73.9344" id="Stroke-75" stroke="#8D9AC6" stroke-linecap="round" stroke-linejoin="round" stroke-dasharray="40,4,0,4,10,10"></path>
            <path d="M23.8576,96.5687 C22.4356,95.6297 21.4966,94.0167 21.4966,92.1847 C21.4966,89.2847 23.8476,86.9347 26.7466,86.9347" id="Stroke-77" stroke="#8D9AC6" stroke-linecap="round" stroke-linejoin="round" stroke-dasharray="40,4,0,4,10,10"></path>
            <g id="Group-82" transform="translate(9.000000, 56.039000)">
                <path d="M10.497,0.943 L0.497,36.146" id="Fill-79" fill="#EBEBEB"></path>
                <path d="M10.497,0.943 L0.497,36.146" id="Stroke-81" stroke="#8D9AC6" stroke-linecap="round" stroke-linejoin="round" stroke-dasharray="2,2,0,2,16,4"></path>
            </g>
            <path d="M11.1088,13.8952 C11.1088,16.3592 9.1118,18.3562 6.6478,18.3562 C4.1848,18.3562 2.1878,16.3592 2.1878,13.8952 C2.1878,11.4312 4.1848,9.4342 6.6478,9.4342 C9.1118,9.4342 11.1088,11.4312 11.1088,13.8952" id="Fill-83" fill="#EBEBEB"></path>
            <path d="M11.1088,13.8952 C11.1088,16.3592 9.1118,18.3562 6.6478,18.3562 C4.1848,18.3562 2.1878,16.3592 2.1878,13.8952 C2.1878,11.4312 4.1848,9.4342 6.6478,9.4342 C9.1118,9.4342 11.1088,11.4312 11.1088,13.8952 L11.1088,13.8952 Z" id="Stroke-85" stroke="#8D9AC6" stroke-width="2" stroke-linecap="round" stroke-linejoin="round"></path>
            <path d="M50.997,39.1846 C50.997,42.6366 48.199,45.4346 44.747,45.4346 C41.295,45.4346 38.497,42.6366 38.497,39.1846 C38.497,35.7326 41.295,32.9346 44.747,32.9346 C48.199,32.9346 50.997,35.7326 50.997,39.1846" id="Fill-87" fill="#EBEBEB"></path>
            <path d="M50.997,39.1846 C50.997,42.6366 48.199,45.4346 44.747,45.4346 C41.295,45.4346 38.497,42.6366 38.497,39.1846 C38.497,35.7326 41.295,32.9346 44.747,32.9346 C48.199,32.9346 50.997,35.7326 50.997,39.1846 L50.997,39.1846 Z" id="Stroke-89" stroke="#8D9AC6" stroke-width="2" stroke-linecap="round" stroke-linejoin="round"></path>
            <path d="M29.122,39.1846 C29.122,41.6006 27.163,43.5596 24.747,43.5596 C22.331,43.5596 20.372,41.6006 20.372,39.1846 C20.372,36.7686 22.331,34.8096 24.747,34.8096 C27.163,34.8096 29.122,36.7686 29.122,39.1846" id="Fill-91" fill="#EBEBEB"></path>
            <path d="M29.122,39.1846 C29.122,41.6006 27.163,43.5596 24.747,43.5596 C22.331,43.5596 20.372,41.6006 20.372,39.1846 C20.372,36.7686 22.331,34.8096 24.747,34.8096 C27.163,34.8096 29.122,36.7686 29.122,39.1846 L29.122,39.1846 Z" id="Stroke-93" stroke="#8D9AC6" stroke-width="2" stroke-linecap="round" stroke-linejoin="round"></path>
            <path d="M70.122,39.1846 C70.122,41.6006 68.163,43.5596 65.747,43.5596 C63.331,43.5596 61.372,41.6006 61.372,39.1846 C61.372,36.7686 63.331,34.8096 65.747,34.8096 C68.163,34.8096 70.122,36.7686 70.122,39.1846" id="Fill-95" fill="#EBEBEB"></path>
            <path d="M70.122,39.1846 C70.122,41.6006 68.163,43.5596 65.747,43.5596 C63.331,43.5596 61.372,41.6006 61.372,39.1846 C61.372,36.7686 63.331,34.8096 65.747,34.8096 C68.163,34.8096 70.122,36.7686 70.122,39.1846 L70.122,39.1846 Z" id="Stroke-97" stroke="#8D9AC6" stroke-width="2" stroke-linecap="round" stroke-linejoin="round"></path>
        </g>
    </g>
</svg>