<?xml version="1.0" encoding="UTF-8" standalone="no"?>
<svg width="105px" height="99px" viewBox="0 0 105 99" version="1.1" xmlns="http://www.w3.org/2000/svg" xmlns:xlink="http://www.w3.org/1999/xlink">
    <!-- Generator: Sketch 40.3 (33839) - http://www.bohemiancoding.com/sketch -->
    <title>Page 1</title>
    <desc>Created with Sketch.</desc>
    <defs></defs>
    <g id="Page-1" stroke="none" stroke-width="1" fill="none" fill-rule="evenodd">
        <g transform="translate(1.000000, 1.000000)">
            <path d="M99.9908,40.2688 L96.8788,39.8658 C96.4508,39.8108 96.0658,40.1038 96.0658,40.4868 L96.0658,58.3088 C96.0658,58.7328 96.5338,59.0348 96.9928,58.9058 L100.1038,58.0278 C100.3988,57.9448 100.5978,57.7038 100.5978,57.4308 C102.0128,52.2638 102.0208,46.7518 100.5978,40.8888 C100.5978,40.5778 100.3398,40.3138 99.9908,40.2688" id="Fill-1" fill="#EBEBEB"></path>
            <path d="M99.9908,40.2688 L96.8788,39.8658 C96.4508,39.8108 96.0658,40.1038 96.0658,40.4868 L96.0658,58.3088 C96.0658,58.7328 96.5338,59.0348 96.9928,58.9058 L100.1038,58.0278 C100.3988,57.9448 100.5978,57.7038 100.5978,57.4308 C102.0128,52.2638 102.0208,46.7518 100.5978,40.8888 C100.5978,40.5778 100.3398,40.3138 99.9908,40.2688 L99.9908,40.2688 Z" id="Stroke-3" stroke="#8D9AC6" stroke-width="2.816" stroke-linecap="round" stroke-linejoin="round"></path>
            <path d="M100.4081,45.0838 L95.4081,45.0838" id="Stroke-5" stroke="#8D9AC6" stroke-linecap="round" stroke-linejoin="round"></path>
            <path d="M101.4081,50.0838 L96.4081,50.0838" id="Stroke-7" stroke="#8D9AC6" stroke-linecap="round" stroke-linejoin="round"></path>
            <path d="M101.4081,55.0838 L96.4081,55.0838" id="Stroke-9" stroke="#8D9AC6" stroke-linecap="round" stroke-linejoin="round"></path>
            <path d="M2.2358,40.2688 L5.6388,39.8658 C6.1078,39.8108 6.5288,40.1038 6.5288,40.4868 L6.5288,58.3088 C6.5288,58.7328 6.0168,59.0348 5.5148,58.9058 L2.1118,58.0278 C1.7898,57.9448 1.5718,57.7038 1.5718,57.4308 C0.0248,52.2638 0.0158,46.7518 1.5718,40.8888 C1.5718,40.5778 1.8538,40.3138 2.2358,40.2688" id="Fill-11" fill="#EBEBEB"></path>
            <path d="M2.2358,40.2688 L5.6388,39.8658 C6.1078,39.8108 6.5288,40.1038 6.5288,40.4868 L6.5288,58.3088 C6.5288,58.7328 6.0168,59.0348 5.5148,58.9058 L2.1118,58.0278 C1.7898,57.9448 1.5718,57.7038 1.5718,57.4308 C0.0248,52.2638 0.0158,46.7518 1.5718,40.8888 C1.5718,40.5778 1.8538,40.3138 2.2358,40.2688 L2.2358,40.2688 Z" id="Stroke-13" stroke="#8D9AC6" stroke-width="2.816" stroke-linecap="round" stroke-linejoin="round"></path>
            <path d="M1.4081,44.0838 L6.4081,44.0838" id="Stroke-15" stroke="#8D9AC6" stroke-linecap="round" stroke-linejoin="round"></path>
            <path d="M0.4081,49.0838 L5.4081,49.0838" id="Stroke-17" stroke="#8D9AC6" stroke-linecap="round" stroke-linejoin="round"></path>
            <path d="M0.4081,54.0838 L5.4081,54.0838" id="Stroke-19" stroke="#8D9AC6" stroke-linecap="round" stroke-linejoin="round"></path>
            <g id="Group-24" transform="translate(6.000000, 60.721500)">
                <path d="M89.883,0.8854 C89.811,8.8444 92.493,15.9054 89.597,20.0664 C82.817,29.8074 67.818,35.5924 45.557,35.5924 C23.296,35.5924 8.297,29.8074 1.517,20.0664 C-1.483,15.7564 1.205,8.3334 1.228,0.0264" id="Fill-21" fill="#EBEBEB"></path>
                <path d="M89.883,0.8854 C89.811,8.8444 92.493,15.9054 89.597,20.0664 C82.817,29.8074 67.818,35.5924 45.557,35.5924 C23.296,35.5924 8.297,29.8074 1.517,20.0664 C-1.483,15.7564 1.205,8.3334 1.228,0.0264" id="Stroke-23" stroke="#8D9AC6" stroke-width="2.816" stroke-linecap="round" stroke-linejoin="round"></path>
            </g>
            <path d="M51.5829,85.073 C30.8249,85.073 16.8379,79.679 10.5159,70.596 C3.3929,60.362 6.0389,31.318 15.2359,17.725 C22.0819,7.608 32.8409,0.408 51.5829,0.408 C70.3249,0.408 81.0839,7.608 87.9299,17.725 C97.1269,31.318 99.7729,60.362 92.6499,70.596 C86.3279,79.679 72.3409,85.073 51.5829,85.073" id="Fill-25" fill="#EBEBEB"></path>
            <path d="M51.5829,85.073 C30.8249,85.073 16.8379,79.679 10.5159,70.596 C3.3929,60.362 6.0389,31.318 15.2359,17.725 C22.0819,7.608 32.8409,0.408 51.5829,0.408 C70.3249,0.408 81.0839,7.608 87.9299,17.725 C97.1269,31.318 99.7729,60.362 92.6499,70.596 C86.3279,79.679 72.3409,85.073 51.5829,85.073 L51.5829,85.073 Z" id="Stroke-27" stroke="#8D9AC6" stroke-width="2.816" stroke-linecap="round" stroke-linejoin="round"></path>
            <path d="M51.4974,13.2088 C25.7834,13.2088 13.4664,27.1248 10.1024,31.2538 C6.7464,41.3268 5.8514,53.5768 8.0384,61.9078 C16.7254,73.0818 32.0534,78.7088 51.4974,78.7088 C71.0764,78.7088 86.4834,73.0338 95.1374,61.6768 C97.2284,53.4268 96.3544,41.4488 93.1024,31.5208 C89.7164,27.2808 77.2114,13.2088 51.4974,13.2088" id="Fill-29" fill="#8D9AC6"></path>
            <path d="M14.74,29.7574 C9.753,39.8744 9.974,53.5944 15.02,63.6554" id="Stroke-31" stroke="#FFFFFF" stroke-linecap="round" stroke-linejoin="round" stroke-dasharray="20,4,0,4,40"></path>
            <path d="M87.0484,29.7574 C92.0354,39.8744 91.8144,53.5944 86.7684,63.6554" id="Stroke-33" stroke="#FFFFFF" stroke-linecap="round" stroke-linejoin="round" stroke-dasharray="10,4,0,4,40"></path>
            <polyline id="Stroke-35" stroke="#FFFFFF" stroke-linecap="round" stroke-linejoin="round" points="33.4081 29.0838 39.8041 29.0838 44.2051 35.7868 50.4081 39.3718 53.4701 42.5438"></polyline>
            <polyline id="Stroke-37" stroke="#FFFFFF" stroke-linecap="round" stroke-linejoin="round" points="35.2206 57.8516 40.6576 52.0836 47.4086 52.0836 52.3246 43.3046"></polyline>
            <polyline id="Stroke-39" stroke="#FFFFFF" stroke-linecap="round" stroke-linejoin="round" points="67.5956 58.3516 64.0326 53.0836 59.4076 53.0836 53.8246 42.7406"></polyline>
            <polyline id="Stroke-41" stroke="#FFFFFF" stroke-linecap="round" stroke-linejoin="round" points="53.8247 42.0005 57.5327 30.5345 55.6577 25.3335 57.5327 20.5835"></polyline>
            <polyline id="Stroke-43" stroke="#FFFFFF" stroke-linecap="round" stroke-linejoin="round" points="58.2831 40.2895 63.7831 38.5335 69.7831 42.7405 73.1581 42.1795 76.6581 44.0385"></polyline>
            <polyline id="Stroke-45" stroke="#FFFFFF" stroke-linecap="round" stroke-linejoin="round" points="66.7206 28.8338 62.6586 34.0838 60.4086 34.0838 53.8246 42.7408"></polyline>
            <polyline id="Stroke-47" stroke="#FFFFFF" stroke-linecap="round" stroke-linejoin="round" points="48.2831 24.2088 47.7831 28.3338 49.4081 34.2088 53.4701 42.5438"></polyline>
            <path d="M53.8247,42.7405 L38.2827,41.2865 C38.2827,41.2865 33.2827,44.1365 32.9077,44.1095 C32.5327,44.0835 25.7827,51.4585 25.7827,51.4585" id="Stroke-49" stroke="#FFFFFF" stroke-linecap="round" stroke-linejoin="round"></path>
            <polyline id="Stroke-51" stroke="#FFFFFF" stroke-linecap="round" stroke-linejoin="round" points="50.4081 67.8338 53.6581 61.3718 51.5571 58.9358 56.5331 56.1138 53.8251 42.7408"></polyline>
            <polygon id="Stroke-53" stroke="#FFFFFF" stroke-linecap="round" stroke-linejoin="round" points="58.5046 36.068 54.0646 37.584 50.9456 36.003 48.7856 41.286 42.8026 42.895 50.4026 47.584 53.2976 49.084 56.9356 49.084 57.9076 44.038 57.9076 40.312"></polygon>
            <polyline id="Stroke-55" stroke="#FFFFFF" stroke-linecap="round" stroke-linejoin="round" points="53.8247 42.7405 61.4947 43.5835 62.6577 45.5835"></polyline>
            <path d="M51.5829,43.3046 L41.1579,46.3726" id="Stroke-57" stroke="#FFFFFF" stroke-linecap="round" stroke-linejoin="round"></path>
            <path d="M53.4706,42.5434 L43.2206,38.5334" id="Stroke-59" stroke="#FFFFFF" stroke-linecap="round" stroke-linejoin="round"></path>
            <path d="M53.8247,42.0005 L52.9077,31.5835" id="Stroke-61" stroke="#FFFFFF" stroke-linecap="round" stroke-linejoin="round"></path>
            <polyline id="Stroke-63" stroke="#FFFFFF" stroke-linecap="round" stroke-linejoin="round" points="53.8247 42.7405 62.4287 36.0035 65.2827 36.3335"></polyline>
            <polyline id="Stroke-65" stroke="#FFFFFF" stroke-linecap="round" stroke-linejoin="round" points="54.4081 42.7405 61.1581 50.0835 69.4081 50.0835"></polyline>
            <polyline id="Stroke-67" stroke="#FFFFFF" stroke-linecap="round" stroke-linejoin="round" points="53.4706 42.5434 50.4076 53.7084 47.7836 55.2714"></polyline>
            <path d="M92.6497,76.5959 C86.3277,85.6789 72.3407,91.0729 51.5827,91.0729 C30.8247,91.0729 16.8377,85.6789 10.5157,76.5959" id="Stroke-69" stroke="#8D9AC6" stroke-linecap="round" stroke-linejoin="round" stroke-dasharray="40,4,0,4,10,10"></path>
            <path d="M21.5804,15.3745 C28.3464,9.2965 37.8084,5.4085 51.5824,5.4085 C63.2114,5.4085 71.7674,8.1795 78.2224,12.7005" id="Stroke-71" stroke="#8D9AC6" stroke-linecap="round" stroke-linejoin="round" stroke-dasharray="20,4,0,4,40"></path>
        </g>
    </g>
</svg>