<?xml version="1.0" encoding="UTF-8" standalone="no"?>
<svg width="36px" height="36px" viewBox="0 0 36 36" version="1.1" xmlns="http://www.w3.org/2000/svg" xmlns:xlink="http://www.w3.org/1999/xlink">
    <!-- Generator: Sketch 3.6.1 (26313) - http://www.bohemiancoding.com/sketch -->
    <title>Group 4</title>
    <desc>Created with Sketch.</desc>
    <defs></defs>
    <g id="DESIGNS" stroke="none" stroke-width="1" fill="none" fill-rule="evenodd">
        <g id="profile_user" transform="translate(-34.000000, -368.000000)">
            <g id="Group-4" transform="translate(36.000000, 370.000000)">
                <g id="Group-2" stroke="#FFFFFF" stroke-width="2" fill="#E5736C">
                    <path d="M16,32 C24.836556,32 32,24.836556 32,16 C32,7.163444 24.836556,0 16,0 C7.163444,0 0,7.163444 0,16 C0,24.836556 7.163444,32 16,32 Z" id="Oval-17"></path>
                </g>
                <path d="M16,6 C10.4571429,6 6,10.4571429 6,16 C6,21.5428571 10.4571429,26 16,26 C21.5428571,26 26,21.5428571 26,16 C26,10.4571429 21.5428571,6 16,6 L16,6 Z M16,23.8857143 C12.1714286,23.8857143 9.02857143,21.0857143 8.45714286,17.4285714 C12,14.8571429 16.4,13.5428571 21.0857143,13.3142857 C23.7714286,13.2 23.6571429,14.2285714 23.6571429,16.2285714 C23.6571429,20.4571429 20.2285714,23.8857143 16,23.8857143 L16,23.8857143 Z" id="Shape" fill="#FFFFFF"></path>
            </g>
        </g>
    </g>
</svg>