<?xml version="1.0" encoding="UTF-8" standalone="no"?>
<svg width="255px" height="249px" viewBox="0 0 255 249" version="1.1" xmlns="http://www.w3.org/2000/svg" xmlns:xlink="http://www.w3.org/1999/xlink">
    <!-- Generator: Sketch 3.8.3 (29802) - http://www.bohemiancoding.com/sketch -->
    <title>Page 1</title>
    <desc>Created with Sketch.</desc>
    <defs>
        <polygon id="path-1" points="227.8514 0.54 0.4194 0.54 0.4194 227.9717 227.8514 227.9717 227.8514 0.54"></polygon>
        <polygon id="path-3" points="0 0.0177 0 51.9997 225.6489 51.9997 225.6489 0.0177 0 0.0177"></polygon>
    </defs>
    <g id="DESIGNS" stroke="none" stroke-width="1" fill="none" fill-rule="evenodd">
        <g id="Mobile-360-Activity-outros-blank-[ready]" transform="translate(-52.000000, -215.000000)">
            <g id="Page-1" transform="translate(52.000000, 214.000000)">
                <g id="Group-3" transform="translate(17.000000, 0.460000)">
                    <mask id="mask-2" fill="white">
                        <use xlink:href="#path-1"></use>
                    </mask>
                    <g id="Clip-2"></g>
                    <path d="M227.8514,114.2557 C227.8514,177.0597 176.9394,227.9717 114.1354,227.9717 C51.3314,227.9717 0.4194,177.0597 0.4194,114.2557 C0.4194,51.4517 51.3314,0.5397 114.1354,0.5397 C176.9394,0.5397 227.8514,51.4517 227.8514,114.2557" id="Fill-1" fill="#D4E6FF" mask="url(#mask-2)"></path>
                </g>
                <g id="Group-6" transform="translate(0.000000, 197.460000)">
                    <mask id="mask-4" fill="white">
                        <use xlink:href="#path-3"></use>
                    </mask>
                    <g id="Clip-5"></g>
                    <path d="M225.6489,26.0087 C225.6489,40.3637 175.1359,51.9997 112.8249,51.9997 C50.5129,51.9997 -0.0001,40.3637 -0.0001,26.0087 C-0.0001,11.6537 50.5129,0.0177 112.8249,0.0177 C175.1359,0.0177 225.6489,11.6537 225.6489,26.0087" id="Fill-4" fill="#F9FAFC" mask="url(#mask-4)"></path>
                </g>
                <path d="M183.3916,109.954 C183.3916,107.255 185.5796,105.066 188.2796,105.066 C190.9786,105.066 193.1676,107.255 193.1676,109.954 C193.1676,112.653 190.9786,114.842 188.2796,114.842 C185.5796,114.842 183.3916,112.653 183.3916,109.954 L183.3916,109.954 Z" id="Stroke-7" stroke="#8D9AC6" stroke-width="1.408" stroke-linecap="round" stroke-linejoin="round"></path>
                <path d="M178.5468,192.0534 C178.5468,192.8314 177.9168,193.4614 177.1388,193.4614 C176.3608,193.4614 175.7308,192.8314 175.7308,192.0534 C175.7308,191.2754 176.3608,190.6454 177.1388,190.6454 C177.9168,190.6454 178.5468,191.2754 178.5468,192.0534 L178.5468,192.0534 Z" id="Stroke-9" stroke="#8D9AC6" stroke-width="1.408" stroke-linecap="round" stroke-linejoin="round"></path>
                <path d="M51.2451,175.6167 C51.2451,176.3947 50.6151,177.0247 49.8371,177.0247 C49.0591,177.0247 48.4291,176.3947 48.4291,175.6167 C48.4291,174.8387 49.0591,174.2087 49.8371,174.2087 C50.6151,174.2087 51.2451,174.8387 51.2451,175.6167 L51.2451,175.6167 Z" id="Stroke-11" stroke="#8D9AC6" stroke-width="1.408" stroke-linecap="round" stroke-linejoin="round"></path>
                <path d="M137.2537,144.9414 C137.2537,145.7194 136.6237,146.3494 135.8457,146.3494 C135.0677,146.3494 134.4377,145.7194 134.4377,144.9414 C134.4377,144.1634 135.0677,143.5334 135.8457,143.5334 C136.6237,143.5334 137.2537,144.1634 137.2537,144.9414 L137.2537,144.9414 Z" id="Stroke-13" stroke="#8D9AC6" stroke-width="1.408" stroke-linecap="round" stroke-linejoin="round"></path>
                <path d="M61.6675,9.4299 C61.6675,10.2079 61.0375,10.8379 60.2595,10.8379 C59.4815,10.8379 58.8515,10.2079 58.8515,9.4299 C58.8515,8.6519 59.4815,8.0219 60.2595,8.0219 C61.0375,8.0219 61.6675,8.6519 61.6675,9.4299 L61.6675,9.4299 Z" id="Stroke-15" stroke="#8D9AC6" stroke-width="1.408" stroke-linecap="round" stroke-linejoin="round"></path>
                <path d="M203.4175,166.3609 C203.4175,167.1389 202.7875,167.7689 202.0095,167.7689 C201.2315,167.7689 200.6015,167.1389 200.6015,166.3609 C200.6015,165.5829 201.2315,164.9529 202.0095,164.9529 C202.7875,164.9529 203.4175,165.5829 203.4175,166.3609 L203.4175,166.3609 Z" id="Stroke-17" stroke="#8D9AC6" stroke-width="1.408" stroke-linecap="round" stroke-linejoin="round"></path>
                <path d="M6.4002,135.2029 C6.4002,135.9809 5.7702,136.6109 4.9922,136.6109 C4.2142,136.6109 3.5842,135.9809 3.5842,135.2029 C3.5842,134.4249 4.2142,133.7949 4.9922,133.7949 C5.7702,133.7949 6.4002,134.4249 6.4002,135.2029 L6.4002,135.2029 Z" id="Stroke-19" stroke="#8D9AC6" stroke-width="1.408" stroke-linecap="round" stroke-linejoin="round"></path>
                <polygon id="Stroke-21" stroke="#8D9AC6" stroke-width="1.408" stroke-linecap="round" stroke-linejoin="round" points="111.9374 26.6903 113.6844 29.8843 116.8784 31.6313 113.6844 33.3773 111.9374 36.5713 110.1904 33.3773 106.9964 31.6313 110.1904 29.8843"></polygon>
                <path d="M218.345,137.9428 L251.943,104.3448" id="Stroke-23" stroke="#8D9AC6" stroke-width="1.408" stroke-linecap="round" stroke-linejoin="round" stroke-dasharray="0,7.04,7.04,7.04,35.201,7.04"></path>
                <path d="M213.4392,211.1619 C184.5752,202.8299 149.3082,197.4779 111.2282,197.4779 C73.1492,197.4779 37.8812,202.8299 9.0172,211.1619" id="Stroke-25" stroke="#8D9AC6" stroke-width="3.031" stroke-linecap="round" stroke-linejoin="round"></path>
                <path d="M43.7724,136.548 C35.0294,124.364 29.6534,109.796 25.4684,95.474 C23.8054,89.78 22.0574,83.482 24.4014,77.416 C27.0854,70.472 36.9384,65.17 55.9544,60.043 C71.1164,55.955 85.0614,56.425 90.1144,60.26 C95.2944,64.191 97.1314,70.457 98.7154,76.174 C102.6984,90.553 106.8104,105.872 104.7804,120.731 C103.3304,131.347 90.6554,137.83 77.1494,141.76 C63.6434,145.689 50.4614,145.87 43.7724,136.548" id="Fill-27" fill="#EBEBEB"></path>
                <path d="M43.7724,136.548 C35.0294,124.364 29.6534,109.796 25.4684,95.474 C23.8054,89.78 22.0574,83.482 24.4014,77.416 C27.0854,70.472 36.9384,65.17 55.9544,60.043 C71.1164,55.955 85.0614,56.425 90.1144,60.26 C95.2944,64.191 97.1314,70.457 98.7154,76.174 C102.6984,90.553 106.8104,105.872 104.7804,120.731 C103.3304,131.347 90.6554,137.83 77.1494,141.76 C63.6434,145.689 50.4614,145.87 43.7724,136.548 L43.7724,136.548 Z" id="Stroke-29" stroke="#8D9AC6" stroke-width="2.564" stroke-linecap="round" stroke-linejoin="round"></path>
                <path d="M45.6382,133.2127 C37.8732,122.3917 33.0992,109.4537 29.3822,96.7337 C27.9052,91.6777 26.3532,86.0837 28.4352,80.6967 C30.8182,74.5297 39.5692,69.8207 56.4572,65.2677 C69.9222,61.6377 82.3072,62.0547 86.7952,65.4607 C91.3962,68.9517 93.0272,74.5167 94.4332,79.5937 C97.9712,92.3647 101.6232,105.9697 99.8202,119.1657 C98.5322,128.5937 87.2752,134.3517 75.2812,137.8417 C63.2862,141.3317 51.5792,141.4917 45.6382,133.2127" id="Fill-31" fill="#D7D7D7"></path>
                <path d="M48.619,114.2641 C46.984,111.6431 50.012,108.2881 52.819,105.6701 C53.821,109.6231 55.21,114.8431 56.738,121.0761 C53.169,118.4041 49.453,115.6001 48.619,114.2641 L48.619,114.2641 Z M163,66.8601 C157,64.1261 153.663,68.6131 152.894,72.2201 C149.678,77.3821 135.085,81.5031 123.941,77.2901 C104.581,69.9711 90.374,64.1261 75.629,71.2551 L41.586,79.5831 C35.838,81.5031 31.991,91.7931 28.765,106.4541 C27.355,112.8621 23.934,123.6941 30.344,128.3321 C33.737,130.7871 37.787,130.9751 41.584,132.2651 C45.294,133.5261 50.36,135.5461 54.403,134.8991 C55.658,134.6991 57.615,133.8351 59.44,132.6941 C62.373,146.0621 65.278,162.3001 66.6,179.8151 C67.542,192.2851 66.678,202.9961 70.169,207.5571 C70.929,208.5511 72.369,206.1851 77.013,206.0781 C82.52,205.9511 83.586,207.7981 84.1,206.9011 C86.448,202.8031 86.523,195.0871 87.751,185.7971 C88.934,176.8451 88.761,159.4271 92.361,152.8421 L95.321,162.2401 C100.296,174.1481 111.42,198.7011 123.067,202.4381 C126.55,203.5551 130.95,198.5061 132.164,195.3381 C133.264,192.4661 129.897,185.7011 128.438,183.1361 C119.836,168.0171 112.534,154.6051 111.037,139.2801 C109.568,124.2391 110.515,109.0851 105.964,93.6931 C112.736,95.3111 117.797,98.3821 132.381,96.8451 C142.889,95.7381 164.299,84.9031 158.297,74.9911 L163,72.1381 L163,66.8601 Z" id="Fill-33" fill="#EBEBEB"></path>
                <g id="Group-38" transform="translate(124.000000, 182.460000)">
                    <path d="M0.7572,20.7898 C1.4692,22.5958 6.0442,27.9598 8.6682,27.0038 C13.3982,25.2818 18.4442,17.3818 20.9252,13.8968 C22.8532,11.1868 27.9882,3.6828 23.1062,0.8668 C22.8392,0.7128 22.5362,0.5878 22.2282,0.6178 C21.7162,0.6678 21.3602,1.1328 21.0652,1.5538 C17.3812,6.8088 11.8152,6.8928 6.7852,10.8788" id="Fill-35" fill="#EBEBEB"></path>
                    <path d="M0.7572,20.7898 C1.4692,22.5958 6.0442,27.9598 8.6682,27.0038 C13.3982,25.2818 18.4442,17.3818 20.9252,13.8968 C22.8532,11.1868 27.9882,3.6828 23.1062,0.8668 C22.8392,0.7128 22.5362,0.5878 22.2282,0.6178 C21.7162,0.6678 21.3602,1.1328 21.0652,1.5538 C17.3812,6.8088 11.8152,6.8928 6.7852,10.8788" id="Stroke-37" stroke="#8D9AC6" stroke-width="2.564" stroke-linecap="round" stroke-linejoin="round"></path>
                </g>
                <path d="M126.7731,201.7817 C127.2661,203.0327 130.4991,205.8667 132.4271,206.0177 C133.7671,206.1227 140.3521,199.3097 142.0701,196.8957 C143.4061,195.0197 145.9791,191.1647 143.6131,190.2787 C141.2481,189.3927 136.5451,194.4547 130.9481,194.9177" id="Fill-39" fill="#EBEBEB"></path>
                <path d="M128.5948,207.4815 C133.6008,206.0745 148.6638,189.2715 146.2278,183.0775" id="Stroke-41" stroke="#8D9AC6" stroke-width="1.282" stroke-linecap="round" stroke-linejoin="round"></path>
                <g id="Group-46" transform="translate(75.000000, 65.460000)">
                    <path d="M0.435,5.7359 C15.18,-1.3931 29.381,4.4519 48.741,11.7709 C59.885,15.9839 74.333,11.8629 77.55,6.7009 C78.318,3.0939 81.5,-1.3931 87.5,1.3409 L87.5,6.6189 L82.953,9.4719 C88.954,19.3839 67.634,30.2189 57.126,31.3259 C42.213,32.8969 37.292,29.6499 30.283,28.0669" id="Fill-43" fill="#EBEBEB"></path>
                    <path d="M0.435,5.7359 C15.18,-1.3931 29.381,4.4519 48.741,11.7709 C59.885,15.9839 74.333,11.8629 77.55,6.7009 C78.318,3.0939 81.5,-1.3931 87.5,1.3409 L87.5,6.6189 L82.953,9.4719 C88.954,19.3839 67.634,30.2189 57.126,31.3259 C42.213,32.8969 37.292,29.6499 30.283,28.0669" id="Stroke-45" stroke="#8D9AC6" stroke-width="3" stroke-linecap="round" stroke-linejoin="round"></path>
                </g>
                <g id="Group-50" transform="translate(153.000000, 3.460000)">
                    <path d="M12.002,0.9265 L0.451,201.8415" id="Fill-47" fill="#EBEBEB"></path>
                    <path d="M12.002,0.9265 L0.451,201.8415" id="Stroke-49" stroke="#8D9AC6" stroke-width="2.564" stroke-linecap="round" stroke-linejoin="round"></path>
                </g>
                <g id="Group-54" transform="translate(41.000000, 113.460000)">
                    <path d="M9.2914,2.8329 C4.2814,-1.6431 0.5114,2.2109 0.3314,1.5759" id="Fill-51" fill="#EBEBEB"></path>
                    <path d="M9.2914,2.8329 C4.2814,-1.6431 0.5114,2.2109 0.3314,1.5759" id="Stroke-53" stroke="#8D9AC6" stroke-width="2.564" stroke-linecap="round" stroke-linejoin="round"></path>
                </g>
                <g id="Group-58" transform="translate(159.000000, 72.460000)">
                    <path d="M0.4033,0.7423 C-0.4567,7.2093 1.3743,11.0993 7.4273,7.7663" id="Fill-55" fill="#EBEBEB"></path>
                    <path d="M0.4033,0.7423 C-0.4567,7.2093 1.3743,11.0993 7.4273,7.7663" id="Stroke-57" stroke="#8D9AC6" stroke-width="2.564" stroke-linecap="round" stroke-linejoin="round"></path>
                </g>
                <path d="M167.4657,52.6374 C165.7397,57.7294 162.7847,60.5274 161.8477,61.8084 C171.2157,57.3814 187.2327,57.8874 197.0727,60.7334 C211.0497,64.7764 225.6597,75.4034 237.5417,71.3284 C248.4367,67.5924 254.2847,31.2734 254.0077,19.6844 C241.7977,23.4624 232.4137,21.8724 216.8227,13.5124 C208.8007,9.2104 194.1717,-3.9786 165.0017,6.9504 C165.0017,6.9504 167.5437,13.2974 168.9407,18.4734 C172.8067,32.8034 170.4567,43.8114 167.4657,52.6374" id="Fill-59" fill="#8D9AC6"></path>
                <path d="M167.4657,52.6374 C165.7397,57.7294 162.7847,60.5274 161.8477,61.8084 C171.2157,57.3814 187.2327,57.8874 197.0727,60.7334 C211.0497,64.7764 225.6597,75.4034 237.5417,71.3284 C248.4367,67.5924 254.2847,31.2734 254.0077,19.6844 C241.7977,23.4624 232.4137,21.8724 216.8227,13.5124 C208.8007,9.2104 194.1717,-3.9786 165.0017,6.9504 C165.0017,6.9504 167.5437,13.2974 168.9407,18.4734 C172.8067,32.8034 170.4567,43.8114 167.4657,52.6374 L167.4657,52.6374 Z" id="Stroke-61" stroke="#8D9AC6" stroke-width="1.282" stroke-linecap="round" stroke-linejoin="round"></path>
                <path d="M220.0746,44.2227 C217.8606,47.4327 214.3706,49.7517 210.4296,50.0457 C205.6176,50.4047 200.9836,47.7257 198.4526,43.6907 C197.6716,42.4457 196.4056,40.9177 197.0736,39.3887 C197.6156,38.1477 198.9486,37.2707 200.3576,36.6007 C201.3616,36.1237 202.4036,35.7517 203.2246,35.4277 C206.0306,34.3207 208.9426,33.4847 211.9086,32.9347 C214.6616,32.4237 219.0816,31.2487 221.4016,33.4307 C224.2816,36.1397 221.8956,41.5827 220.0746,44.2227 M225.5536,30.6187 C224.6466,28.1607 222.9126,26.0707 220.8146,24.4567 C219.4916,23.4397 218.0236,22.6107 216.5276,21.9977 C211.9626,20.1267 206.6526,20.0447 202.0346,21.7837 C189.6586,26.4427 188.6126,43.2997 198.4636,51.1857 C201.7036,53.7787 206.0156,54.6827 210.0886,54.3657 C215.4936,53.9447 221.1976,51.3297 224.0936,46.5687 C226.8876,41.9747 227.4146,35.6617 225.5536,30.6187" id="Fill-63" fill="#EBEBEB"></path>
                <g id="Group-68" transform="translate(92.000000, 86.460000)">
                    <path d="M11.56,0.7909 C18.636,18.3839 16.531,26.7159 18.203,43.8319 C19.699,59.1569 27.647,81.4979 36.249,96.6179 C37.708,99.1819 41.076,105.9469 39.975,108.8199 C38.761,111.9879 34.361,117.0359 30.878,115.9189 C19.231,112.1819 2.411,77.7319 0.361,66.3819" id="Fill-65" fill="#EBEBEB"></path>
                    <path d="M11.56,0.7909 C18.636,18.3839 16.531,26.7159 18.203,43.8319 C19.699,59.1569 27.647,81.4979 36.249,96.6179 C37.708,99.1819 41.076,105.9469 39.975,108.8199 C38.761,111.9879 34.361,117.0359 30.878,115.9189 C19.231,112.1819 2.411,77.7319 0.361,66.3819" id="Stroke-67" stroke="#8D9AC6" stroke-width="2.564" stroke-linecap="round" stroke-linejoin="round"></path>
                </g>
                <path d="M94.0218,104.6669 C95.5448,101.6809 94.5008,90.7299 91.7058,88.6159 C88.9108,86.5019 70.5028,93.4159 68.2918,95.9059 C66.0808,98.3959 71.9618,110.6839 75.8598,111.2999 C80.2488,111.9929 92.7238,107.2119 94.0218,104.6669" id="Fill-69" fill="#EBEBEB"></path>
                <path d="M94.0218,104.6669 C95.5448,101.6809 94.5008,90.7299 91.7058,88.6159 C88.9108,86.5019 70.5028,93.4159 68.2918,95.9059 C66.0808,98.3959 71.9618,110.6839 75.8598,111.2999 C80.2488,111.9929 92.7238,107.2119 94.0218,104.6669 L94.0218,104.6669 Z" id="Stroke-71" stroke="#8D9AC6" stroke-width="1.282" stroke-linecap="round" stroke-linejoin="round"></path>
                <path d="M92.1853,103.2038 C93.3193,100.9818 92.5423,92.8318 90.4623,91.2578 C88.3813,89.6838 74.6813,94.8308 73.0353,96.6838 C71.3903,98.5368 75.7673,107.6818 78.6683,108.1408 C81.9343,108.6568 91.2193,105.0978 92.1853,103.2038" id="Fill-73" fill="#D7D7D7"></path>
                <g id="Group-78" transform="translate(51.000000, 99.460000)">
                    <path d="M43.6718,49.371 C39.3398,55.3 38.2608,74.03 36.5628,86.278 C35.2758,95.561 35.2588,103.284 32.9108,107.382 C32.3978,108.279 31.3318,106.433 25.8238,106.559 C21.1798,106.666 19.7398,109.032 18.9798,108.038 C15.4888,103.477 16.3538,92.766 15.4118,80.296 C12.4888,41.591 1.8388,9.07 0.2428,0.153" id="Fill-75" fill="#EBEBEB"></path>
                    <path d="M43.6718,49.371 C39.3398,55.3 38.2608,74.03 36.5628,86.278 C35.2758,95.561 35.2588,103.284 32.9108,107.382 C32.3978,108.279 31.3318,106.433 25.8238,106.559 C21.1798,106.666 19.7398,109.032 18.9798,108.038 C15.4888,103.477 16.3538,92.766 15.4118,80.296 C12.4888,41.591 1.8388,9.07 0.2428,0.153" id="Stroke-77" stroke="#8D9AC6" stroke-width="2.564" stroke-linecap="round" stroke-linejoin="round"></path>
                </g>
                <path d="M55.6165,106.8207 C55.4095,105.8807 56.5855,105.2677 57.2305,105.9817 C58.9695,107.9077 62.6385,114.9187 66.8685,123.1967 C72.3185,133.8637 75.1175,145.9937 75.1175,164.8007 C75.1175,181.4407 78.2565,193.5667 80.0485,199.1347 C80.4605,200.4147 79.4795,201.6947 78.1355,201.6627 C77.5415,201.6477 76.8565,201.6907 76.0765,201.8237 C74.7215,202.0547 73.6235,202.3167 72.7935,202.5477 C71.8215,202.8197 70.8545,202.1197 70.8045,201.1117 C70.4615,194.1617 69.0935,171.0137 65.3435,152.1957 C61.7875,134.3517 57.0625,113.3977 55.6165,106.8207" id="Fill-79" fill="#D7D7D7"></path>
                <g id="Group-84" transform="translate(54.000000, 127.460000)">
                    <path d="M1.3246,7.0518 C0.2136,10.3538 7.1016,12.1598 4.8176,15.4738 C3.1776,17.8528 -1.7324,16.9928 1.1636,21.5268 C3.3456,24.9438 7.0066,22.8228 9.1706,20.9108 C12.4506,18.0118 14.2956,13.7168 14.4516,9.3288 C14.5536,6.4698 13.7236,-0.6702 9.7406,0.1668" id="Fill-81" fill="#EBEBEB"></path>
                    <path d="M1.3246,7.0518 C0.2136,10.3538 7.1016,12.1598 4.8176,15.4738 C3.1776,17.8528 -1.7324,16.9928 1.1636,21.5268 C3.3456,24.9438 7.0066,22.8228 9.1706,20.9108 C12.4506,18.0118 14.2956,13.7168 14.4516,9.3288 C14.5536,6.4698 13.7236,-0.6702 9.7406,0.1668" id="Stroke-83" stroke="#8D9AC6" stroke-width="2.564" stroke-linecap="round" stroke-linejoin="round"></path>
                </g>
                <path d="M71.7467,206.0283 C74.6707,204.9403 80.6607,203.7243 84.9977,207.7393 C86.3877,209.0253 87.2507,212.3173 87.2417,213.5123 C87.2167,217.1503 68.9217,217.6243 66.4067,214.1263 C66.8387,209.8803 67.6527,207.5523 71.7467,206.0283" id="Fill-85" fill="#EBEBEB"></path>
                <path d="M71.7467,206.0283 C74.6707,204.9403 80.6607,203.7243 84.9977,207.7393 C86.3877,209.0253 87.2507,212.3173 87.2417,213.5123 C87.2167,217.1503 68.9217,217.6243 66.4067,214.1263 C66.8387,209.8803 67.6527,207.5523 71.7467,206.0283 L71.7467,206.0283 Z" id="Stroke-87" stroke="#8D9AC6" stroke-width="2.564" stroke-linecap="round" stroke-linejoin="round"></path>
                <path d="M66.8681,211.2033 C67.8561,211.8213 71.3181,212.8573 72.2491,212.5023 C73.1791,212.1473 73.7271,211.2023 74.3601,210.3123 C75.2751,209.0253 78.5941,209.0583 79.7641,209.9873 C80.8971,210.8853 80.6151,212.5133 82.1141,212.6573 C82.8581,212.7293 85.5181,212.4943 86.8151,211.5893" id="Stroke-89" stroke="#8D9AC6" stroke-width="1.282" stroke-linecap="round" stroke-linejoin="round"></path>
                <path d="M73.756,208.3239 C73.331,209.8529 73.14,211.8469 74.354,213.6909 C74.602,214.0689 74.319,214.5679 73.867,214.5419 C72.076,214.4419 70.123,214.3589 69.345,213.2189 C69.082,212.8339 69.482,209.1609 73.006,207.6649 C73.434,207.4839 73.881,207.8759 73.756,208.3239" id="Fill-91" fill="#EBEBEB"></path>
                <g id="Group-96" transform="translate(26.000000, 79.460000)">
                    <path d="M15.3949,0.0642 C9.6469,1.9842 5.8009,12.2742 2.5749,26.9352 C1.1649,33.3432 -2.2551,44.1752 4.1549,48.8132 C7.5479,51.2682 24.1709,56.0272 28.2139,55.3802 C31.3119,54.8852 38.6849,50.3542 37.7929,47.5762 C37.2699,45.9442 24.0969,37.4162 22.4309,34.7452 C20.0739,30.9682 27.4009,25.6662 29.7949,23.2442" id="Fill-93" fill="#EBEBEB"></path>
                    <path d="M15.3949,0.0642 C9.6469,1.9842 5.8009,12.2742 2.5749,26.9352 C1.1649,33.3432 -2.2551,44.1752 4.1549,48.8132 C7.5479,51.2682 24.1709,56.0272 28.2139,55.3802 C31.3119,54.8852 38.6849,50.3542 37.7929,47.5762 C37.2699,45.9442 24.0969,37.4162 22.4309,34.7452 C20.0739,30.9682 27.4009,25.6662 29.7949,23.2442" id="Stroke-95" stroke="#8D9AC6" stroke-width="2.564" stroke-linecap="round" stroke-linejoin="round"></path>
                </g>
                <path d="M73.2582,69.6704 C67.4222,71.5544 61.4462,72.9464 55.5072,74.4554 C52.7242,75.1624 49.7862,75.7284 47.1512,76.8774 C44.8892,77.8654 42.4382,78.7684 40.7812,80.6914 C39.2042,82.5224 38.0852,85.2474 40.1982,87.1574 C42.0752,88.8544 45.3842,89.0474 47.7562,88.8604 C54.1672,88.3554 60.5592,86.2014 66.3262,83.4364 C71.1452,81.1254 75.6402,77.9844 78.9762,73.7654 C80.0572,72.3974 81.8852,69.3494 79.0722,68.6984 C77.2062,68.2664 75.0142,69.1034 73.2582,69.6704" id="Fill-97" fill="#D7D7D7"></path>
                <path d="M110.7196,92.6774 C107.1526,91.5174 106.9086,88.8354 107.1736,88.2844 C107.4166,87.7774 107.9536,87.5094 108.5056,87.5764 C109.1096,87.6494 124.6696,93.4504 140.0626,87.8924 C143.6236,86.6064 149.1436,84.8944 150.9486,81.5814 C153.3296,77.2104 153.8986,73.5594 155.2876,73.2514 C157.4466,72.7734 158.5286,74.8474 158.5996,76.6704 C158.7496,80.5664 154.2106,84.2714 151.3886,86.4604 C143.8976,92.2684 133.4466,95.0744 129.3266,95.2574 C126.7836,95.3694 118.6616,95.2614 110.7196,92.6774" id="Fill-99" fill="#D7D7D7"></path>
                <path d="M58.0779,80.6144 C48.4079,83.1964 39.2789,81.7684 37.1109,79.7314 C28.6209,71.7534 25.8229,56.0224 28.6099,44.6844 C33.3909,25.2364 59.2449,21.9424 71.1389,31.7494 C79.2549,38.4414 86.1399,55.8194 83.6129,63.4014 C81.0859,70.9834 70.2819,77.3554 58.0779,80.6144" id="Fill-101" fill="#EBEBEB"></path>
                <path d="M58.0779,80.6144 C48.4079,83.1964 39.2789,81.7684 37.1109,79.7314 C28.6209,71.7534 25.8229,56.0224 28.6099,44.6844 C33.3909,25.2364 59.2449,21.9424 71.1389,31.7494 C79.2549,38.4414 86.1399,55.8194 83.6129,63.4014 C81.0859,70.9834 70.2819,77.3554 58.0779,80.6144 L58.0779,80.6144 Z" id="Stroke-103" stroke="#8D9AC6" stroke-width="2.564" stroke-linecap="round" stroke-linejoin="round"></path>
                <path d="M59.1603,76.4508 C50.6733,78.7168 42.6603,77.4638 40.7573,75.6758 C33.3053,68.6728 30.8493,54.8658 33.2963,44.9148 C37.4923,27.8458 60.1853,24.9538 70.6233,33.5618 C77.7473,39.4348 83.7903,54.6878 81.5723,61.3428 C79.3553,67.9978 69.8723,73.5908 59.1603,76.4508" id="Fill-105" fill="#D7D7D7"></path>
                <path d="M43.0225,43.4226 C35.8745,49.3506 30.2645,61.5246 38.7965,68.7536 C45.2965,74.2616 54.5935,74.5376 62.4515,72.2826 C69.6175,70.2276 79.9315,64.9176 81.9075,57.0656 C83.2805,51.6076 79.9305,45.6946 77.6075,41.0116 C71.9905,29.6856 50.8505,37.3696 43.6255,42.9396 C43.4235,43.0956 43.2225,43.2566 43.0225,43.4226" id="Fill-107" fill="#8D9AC6"></path>
                <path d="M77.2391,58.4775 C78.7491,52.4065 77.0111,44.9985 73.0901,40.1415" id="Stroke-109" stroke="#FFFFFF" stroke-width="2.564" stroke-linecap="round" stroke-linejoin="round"></path>
                <path d="M31.4829,58.7355 C30.6219,60.9285 31.2439,63.9985 32.4149,65.9625 C33.2909,67.4345 35.1509,68.5505 36.8699,67.8825 C38.7839,67.1375 39.6009,64.2845 39.3709,62.4275 C39.1479,60.6255 38.2949,58.6255 36.8159,57.5005 C35.1349,56.2235 32.4839,56.4525 31.5599,58.5505 C31.5329,58.6115 31.5079,58.6725 31.4829,58.7355" id="Fill-111" fill="#EBEBEB"></path>
                <path d="M31.4829,58.7355 C30.6219,60.9285 31.2439,63.9985 32.4149,65.9625 C33.2909,67.4345 35.1509,68.5505 36.8699,67.8825 C38.7839,67.1375 39.6009,64.2845 39.3709,62.4275 C39.1479,60.6255 38.2949,58.6255 36.8159,57.5005 C35.1349,56.2235 32.4839,56.4525 31.5599,58.5505 C31.5329,58.6115 31.5079,58.6725 31.4829,58.7355 L31.4829,58.7355 Z" id="Stroke-113" stroke="#8D9AC6" stroke-width="1.282" stroke-linecap="round" stroke-linejoin="round"></path>
                <path d="M31.7643,60.0156 C31.2013,61.4506 31.6083,63.4596 32.3743,64.7456 C32.9473,65.7086 34.1643,66.4386 35.2893,66.0016 C36.5423,65.5146 37.0773,63.6466 36.9263,62.4316 C36.7803,61.2526 36.2223,59.9436 35.2543,59.2076 C34.1543,58.3716 32.4193,58.5216 31.8143,59.8946 C31.7973,59.9346 31.7803,59.9746 31.7643,60.0156" id="Fill-115" fill="#D7D7D7"></path>
                <path d="M29.0828,114.0055 C28.5348,117.4475 28.7438,121.2975 30.6178,124.3655 C33.4568,129.0155 48.2058,131.6015 52.6358,131.7785 C53.5128,131.8135 54.6808,131.5895 54.7568,130.7155 C54.7848,130.3885 54.6288,130.0725 54.4328,129.8075 C52.9228,127.7665 49.5408,127.2265 47.3088,126.3135 C44.3568,125.1045 41.4318,123.7625 38.8328,121.8905 C29.5138,115.1825 40.0268,98.7845 37.3648,93.8205 C34.8258,89.0835 30.0918,107.6705 29.0828,114.0055" id="Fill-117" fill="#D7D7D7"></path>
                <path d="M159.4033,68.6365 C166.6113,62.7205 170.7283,71.2815 169.5883,78.4695 C168.7823,83.5535 160.8453,85.0255 158.3773,83.3595 C155.9103,81.6935 152.1953,74.5525 159.4033,68.6365" id="Fill-119" fill="#EBEBEB"></path>
                <path d="M159.4033,68.6365 C166.6113,62.7205 170.7283,71.2815 169.5883,78.4695 C168.7823,83.5535 160.8453,85.0255 158.3773,83.3595 C155.9103,81.6935 152.1953,74.5525 159.4033,68.6365 L159.4033,68.6365 Z" id="Stroke-121" stroke="#8D9AC6" stroke-width="2.564" stroke-linecap="round" stroke-linejoin="round"></path>
                <path d="M41.9981,99.9784 C42.0701,99.0144 41.8891,98.1114 41.3731,97.3804 C40.2211,95.7444 37.8441,95.2354 35.9881,95.9824 C34.1311,96.7294 32.8251,98.5324 32.3571,100.4784 C31.6151,103.5654 32.1411,109.0204 36.6201,107.3634 C39.4401,106.3204 41.7771,102.9344 41.9981,99.9784" id="Fill-123" fill="#8D9AC6"></path>
                <path d="M78.8031,169.5011 C71.2721,168.5401 70.8371,180.0531 77.3611,179.7621 C83.0401,179.5091 83.8851,170.1501 78.8031,169.5011 L78.8031,169.5011 Z" id="Stroke-125" stroke="#8D9AC6" stroke-width="1.282" stroke-linecap="round" stroke-linejoin="round"></path>
                <path d="M117.1852,162.2694 C116.2892,162.1564 115.3742,162.3634 114.5422,163.0074 C108.5372,167.6524 116.3712,176.1014 120.7782,171.2824" id="Stroke-127" stroke="#8D9AC6" stroke-width="1.282" stroke-linecap="round" stroke-linejoin="round"></path>
                <path d="M132.381,96.8453 C132.949,91.6243 121.839,92.9253 122.467,97.3623" id="Stroke-129" stroke="#8D9AC6" stroke-width="1.282" stroke-linecap="round" stroke-linejoin="round"></path>
                <path d="M32.6575,128.6407 C35.2455,124.8497 31.0815,119.5087 26.8795,120.5477" id="Stroke-131" stroke="#8D9AC6" stroke-width="1.282" stroke-linecap="round" stroke-linejoin="round"></path>
                <path d="M96.6681,151.7985 L99.1051,147.1605 C99.5471,146.3205 100.7791,146.4165 101.0791,147.3165 C102.9531,152.9415 108.0231,167.1825 114.4821,177.4055 C120.6441,187.1615 127.5391,187.2335 128.5951,192.5745 C128.9261,194.2515 126.1311,197.4235 123.4551,198.0965 C120.7781,198.7705 118.2221,195.7915 109.9951,183.0725 C103.4991,173.0305 98.3371,160.5195 96.4521,155.6995 C95.9561,154.4285 96.0331,153.0065 96.6681,151.7985" id="Fill-133" fill="#D7D7D7"></path>
                <path d="M157.5179,77.6071 C157.6609,79.1021 158.0819,80.1661 159.3129,81.2191 C160.3529,82.1081 162.0739,82.3771 163.3679,81.9951 C165.0119,81.5091 164.9629,80.6161 164.2449,79.3091 C163.1709,77.3521 161.3229,74.9311 159.4319,73.6841 C157.8459,72.6401 157.3749,76.1121 157.5179,77.6071" id="Fill-135" fill="#D7D7D7"></path>
                <path d="M60.9373,142.9024 C60.3933,144.1914 59.6803,144.6734 58.6633,145.5714 C58.0603,146.1034 56.9173,146.9554 57.2193,147.8134 C57.6423,149.0144 59.1793,148.9734 60.0653,148.5204 C61.0323,148.0264 61.6593,147.1884 62.2223,146.2994 C63.4303,144.3924 63.5383,142.1174 62.6703,140.0164 C62.1783,138.8264 61.7153,137.5994 60.6643,136.7804 C60.1133,136.3514 58.5293,135.4634 58.4523,136.7614 C58.3953,137.7274 59.9753,138.6084 60.4753,139.3284 C61.2313,140.4174 61.4583,141.6674 60.9373,142.9024" id="Fill-137" fill="#D7D7D7"></path>
            </g>
        </g>
    </g>
</svg>