<?xml version="1.0" encoding="UTF-8" standalone="no"?>
<svg width="238px" height="241px" viewBox="0 0 238 241" version="1.1" xmlns="http://www.w3.org/2000/svg" xmlns:xlink="http://www.w3.org/1999/xlink">
    <!-- Generator: Sketch 3.8.3 (29802) - http://www.bohemiancoding.com/sketch -->
    <title>Page 1</title>
    <desc>Created with Sketch.</desc>
    <defs></defs>
    <g id="DESIGNS" stroke="none" stroke-width="1" fill="none" fill-rule="evenodd">
        <g id="Mobile-360-Activity-intros-blank-[ready]" transform="translate(-61.000000, -210.000000)">
            <g id="Page-1" transform="translate(61.000000, 210.000000)">
                <path d="M227.4323,125.7803 C227.4323,188.5843 176.5203,239.4963 113.7163,239.4963 C50.9123,239.4963 0.0003,188.5843 0.0003,125.7803 C0.0003,62.9763 50.9123,12.0643 113.7163,12.0643 C176.5203,12.0643 227.4323,62.9763 227.4323,125.7803" id="Fill-1" fill="#D4E6FF"></path>
                <path d="M90.0045,123.1938 C86.2755,122.4928 84.1595,119.6078 83.6295,115.9548 C81.9985,104.7158 83.1045,93.0538 85.1105,81.9328 C85.9085,77.5128 86.3925,72.0658 90.4915,69.3358 C93.6935,67.2038 98.0385,67.8628 101.5445,68.7348 C101.5445,68.7348 103.3245,77.3118 102.8205,93.7878 C102.2605,112.1308 90.0045,123.1938 90.0045,123.1938" id="Fill-3" fill="#EBEBEB"></path>
                <path d="M90.0045,123.1938 C86.2755,122.4928 84.1595,119.6078 83.6295,115.9548 C81.9985,104.7158 83.1045,93.0538 85.1105,81.9328 C85.9085,77.5128 86.3925,72.0658 90.4915,69.3358 C93.6935,67.2038 98.0385,67.8628 101.5445,68.7348 C101.5445,68.7348 103.3245,77.3118 102.8205,93.7878 C102.2605,112.1308 90.0045,123.1938 90.0045,123.1938 L90.0045,123.1938 Z" id="Stroke-5" stroke="#8D9AC6" stroke-width="2.419" stroke-linecap="round" stroke-linejoin="round"></path>
                <path d="M92.2928,120.8521 C88.9198,120.2181 87.0058,117.6081 86.5258,114.3031 C85.0498,104.1371 86.0518,93.5871 87.8658,83.5281 C88.5868,79.5291 89.0258,74.6011 92.7338,72.1321 C95.6298,70.2031 99.5608,70.8001 102.7318,71.5891 C102.7318,71.5891 104.3418,79.3471 103.8868,94.2511 C103.3798,110.8441 92.2928,120.8521 92.2928,120.8521" id="Fill-7" fill="#D7D7D7"></path>
                <path d="M89.8337,89.9161 C89.4187,93.5721 89.6697,97.4071 89.6697,101.1061 C89.6697,103.1131 89.4827,105.2211 89.6617,107.2151 C89.9967,110.9441 92.4687,114.5041 94.4767,117.5311 C98.5407,123.6571 106.5067,128.2401 113.8217,128.7061 C116.1967,128.8571 120.4217,129.5501 120.9597,126.2871 C121.2057,124.7981 120.0697,123.2971 120.0537,121.7531 C120.0337,119.9731 120.6187,118.1881 121.0357,116.4811 C121.8537,113.1331 122.9657,109.8021 124.1517,106.5611 C124.6987,105.0671 125.7327,103.7151 125.9487,102.1661 C126.2247,100.1871 126.1297,97.6651 125.2797,95.8771 C124.1227,93.4451 121.9897,90.9261 120.3767,88.7681 C117.6457,85.1161 111.6187,73.9481 111.0717,78.4681 C109.4717,91.6711 90.3757,85.1351 89.8337,89.9161" id="Fill-9" fill="#EBEBEB"></path>
                <g id="Group-14" transform="translate(120.000000, 107.959000)">
                    <path d="M0.6758,12.1501 C5.7568,17.5141 11.8378,16.5491 18.5928,14.2471 C22.1438,13.0361 28.5038,10.8001 27.5218,6.6121 C26.6938,3.0821 23.8798,-0.3609 20.0918,0.7181 C14.9898,2.1701 9.5618,3.8511 4.6818,0.0331" id="Fill-11" fill="#EBEBEB"></path>
                    <path d="M0.6758,12.1501 C5.7568,17.5141 11.8378,16.5491 18.5928,14.2471 C22.1438,13.0361 28.5038,10.8001 27.5218,6.6121 C26.6938,3.0821 23.8798,-0.3609 20.0918,0.7181 C14.9898,2.1701 9.5618,3.8511 4.6818,0.0331" id="Stroke-13" stroke="#8D9AC6" stroke-width="2.419" stroke-linecap="round" stroke-linejoin="round"></path>
                </g>
                <path d="M121.0358,116.481 C125.5198,121.35 131.9438,121.618 136.2778,120.14 C138.5568,119.364 144.6258,117.829 143.9948,115.142 C143.4638,112.877 143.0418,110.584 140.6118,111.276 C137.3378,112.208 130.6348,116.02 123.3268,110.14" id="Fill-15" fill="#D7D7D7"></path>
                <g id="Group-20" transform="translate(45.000000, 163.959000)">
                    <path d="M19.3826,13.018 L19.8586,4.654 L19.1596,3.005 C17.9986,1.329 15.8926,0.247 13.2596,0.365 C11.4306,0.448 5.2246,10.509 3.3056,14.059 C1.8146,16.819 -2.1224,24.441 2.7746,26.511 C3.0436,26.624 3.3416,26.706 3.6266,26.643 C4.0996,26.536 4.3786,26.06 4.6066,25.631 C7.4456,20.284 15.1356,17.333 19.3826,13.018" id="Fill-17" fill="#EBEBEB"></path>
                    <path d="M19.3826,13.018 L19.8586,4.654 L19.1596,3.005 C17.9986,1.329 15.8926,0.247 13.2596,0.365 C11.4306,0.448 5.2246,10.509 3.3056,14.059 C1.8146,16.819 -2.1224,24.441 2.7746,26.511 C3.0436,26.624 3.3416,26.706 3.6266,26.643 C4.0996,26.536 4.3786,26.06 4.6066,25.631 C7.4456,20.284 15.1356,17.333 19.3826,13.018" id="Stroke-19" stroke="#8D9AC6" stroke-width="2.419" stroke-linecap="round" stroke-linejoin="round"></path>
                </g>
                <path d="M63.2776,173.8808 L63.5896,168.4008 L63.1316,167.3198 C62.3706,166.2218 60.9906,165.5128 59.2656,165.5908 C58.0676,165.6448 54.0006,172.2368 52.7436,174.5628 C51.7666,176.3718 49.8786,183.4268 52.3966,182.7218 C54.9136,182.0158 60.4956,176.7088 63.2776,173.8808" id="Fill-21" fill="#D7D7D7"></path>
                <g id="Group-26" transform="translate(149.000000, 157.959000)">
                    <path d="M0.7197,11.3545 C0.7317,13.1855 3.1907,18.3745 5.5667,19.5145 C7.2177,20.3065 17.4417,14.3725 20.8107,12.1505 C23.4297,10.4225 30.5007,5.5665 27.1637,1.4285 C26.9807,1.2015 26.7567,0.9885 26.4757,0.9095 C26.0077,0.7795 25.5367,1.0675 25.1337,1.3385 C20.1037,4.7085 15.1777,2.8885 9.3957,4.6845" id="Fill-23" fill="#EBEBEB"></path>
                    <path d="M0.7197,11.3545 C0.7317,13.1855 3.1907,18.3745 5.5667,19.5145 C7.2177,20.3065 17.4417,14.3725 20.8107,12.1505 C23.4297,10.4225 30.5007,5.5665 27.1637,1.4285 C26.9807,1.2015 26.7567,0.9885 26.4757,0.9095 C26.0077,0.7795 25.5367,1.0675 25.1337,1.3385 C20.1037,4.7085 15.1777,2.8885 9.3957,4.6845" id="Stroke-25" stroke="#8D9AC6" stroke-width="2.419" stroke-linecap="round" stroke-linejoin="round"></path>
                </g>
                <path d="M151.9929,168.7076 C152.0009,169.9756 153.8819,173.5696 155.5269,174.3586 C156.6699,174.9076 164.7819,171.1516 167.1149,169.6126 C168.9289,168.4166 172.5049,165.8996 170.7239,164.3156 C168.9439,162.7316 163.0839,165.5846 158.0009,164.0886" id="Fill-27" fill="#D7D7D7"></path>
                <path d="M151.6567,174.3426 C156.5397,174.8086 175.5107,165.1476 175.4757,158.8686" id="Stroke-29" stroke="#8D9AC6" stroke-width="1.209" stroke-linecap="round" stroke-linejoin="round"></path>
                <path d="M62.3039,165.7081 C57.7809,167.6061 45.6279,185.0851 48.6259,190.6011" id="Stroke-31" stroke="#8D9AC6" stroke-width="1.209" stroke-linecap="round" stroke-linejoin="round"></path>
                <g id="Group-36" transform="translate(62.000000, 131.959000)">
                    <path d="M29.6477,0.7496 C29.1467,9.1006 25.4827,17.1876 19.6507,23.4406 C14.3377,29.1366 2.7147,32.7456 1.4787,36.0076 C-0.0143,39.9446 2.2927,46.3286 4.0227,47.1136 C10.9007,50.2366 25.9707,42.9566 32.3557,37.8966 C39.1497,32.5116 45.0187,25.4756 48.7337,17.1616" id="Fill-33" fill="#EBEBEB"></path>
                    <path d="M29.6477,0.7496 C29.1467,9.1006 25.4827,17.1876 19.6507,23.4406 C14.3377,29.1366 2.7147,32.7456 1.4787,36.0076 C-0.0143,39.9446 2.2927,46.3286 4.0227,47.1136 C10.9007,50.2366 25.9707,42.9566 32.3557,37.8966 C39.1497,32.5116 45.0187,25.4756 48.7337,17.1616" id="Stroke-35" stroke="#8D9AC6" stroke-width="2.419" stroke-linecap="round" stroke-linejoin="round"></path>
                </g>
                <path d="M92.5,135.3142 C92.116,141.7092 91.302,147.5282 85.814,154.8072 C81.255,160.8532 68.647,165.6932 67.7,168.1912 C66.557,171.2062 76.768,164.8152 89.441,160.6522 C98.468,157.6862 104.324,155.2182 107.168,148.8522" id="Fill-37" fill="#D7D7D7"></path>
                <g id="Group-42" transform="translate(64.000000, 81.959000)">
                    <path d="M57.0999,44.4266 C56.0729,38.9896 56.7459,33.1076 59.3269,28.1816 C61.3239,24.3706 64.6229,16.8266 61.8869,14.0136 C56.1219,8.0896 48.5639,2.0666 36.2329,0.9336 C25.9759,-0.0084 16.3999,2.7286 10.2339,7.7506 C4.4959,12.4226 -0.8071,26.3346 1.3499,33.8836 C2.0899,36.4726 4.6859,37.4326 7.4809,37.7056 C15.2069,38.4576 13.2899,26.7036 17.7959,23.1116 C26.0809,16.5056 39.2779,19.7966 48.9119,20.4056" id="Fill-39" fill="#EBEBEB"></path>
                    <path d="M57.0999,44.4266 C56.0729,38.9896 56.7459,33.1076 59.3269,28.1816 C61.3239,24.3706 64.6229,16.8266 61.8869,14.0136 C56.1219,8.0896 48.5639,2.0666 36.2329,0.9336 C25.9759,-0.0084 16.3999,2.7286 10.2339,7.7506 C4.4959,12.4226 -0.8071,26.3346 1.3499,33.8836 C2.0899,36.4726 4.6859,37.4326 7.4809,37.7056 C15.2069,38.4576 13.2899,26.7036 17.7959,23.1116 C26.0809,16.5056 39.2779,19.7966 48.9119,20.4056" id="Stroke-41" stroke="#8D9AC6" stroke-width="2.419" stroke-linecap="round" stroke-linejoin="round"></path>
                </g>
                <path d="M109.0687,97.4235 C100.1357,97.4375 87.9057,95.5515 80.4487,101.4135 C75.9177,104.9755 75.6117,114.6455 72.4587,115.6405 C70.5177,116.2535 68.5507,114.7475 68.0147,112.8705 C66.4517,107.3995 70.9757,95.8465 75.8127,91.8895 C81.3097,87.3925 91.3047,84.7325 98.7397,85.4155 C107.6767,86.2365 121.1017,91.5835 125.2797,95.8775 C127.2627,97.9155 125.5447,97.9695 123.7677,103.1395 C122.7737,106.0325 122.3777,107.6075 119.7567,107.2445 C113.7577,106.4145 118.0017,97.4095 109.0687,97.4235" id="Fill-43" fill="#D7D7D7"></path>
                <g id="Group-48" transform="translate(89.000000, 100.959000)">
                    <path d="M0.9005,0.5825 C0.4055,6.1385 0.2715,12.9185 0.6945,18.5035 C1.4225,28.1105 2.6085,39.2675 11.8045,44.6465 C19.6565,49.2395 29.4595,49.1095 38.2655,49.2015 C45.7985,49.2795 49.4435,50.8175 54.0895,57.2605 C58.1795,62.9345 56.9975,70.8015 64.4805,67.2315 C66.2515,66.3875 68.7945,65.5595 68.9955,63.4045 C69.6585,56.2995 66.9105,45.3165 63.3745,38.8805 C58.9115,30.7565 53.6685,31.8285 45.1565,30.1055 C38.3515,28.7275 30.7565,26.8405 26.4315,20.9265" id="Fill-45" fill="#EBEBEB"></path>
                    <path d="M0.9005,0.5825 C0.4055,6.1385 0.2715,12.9185 0.6945,18.5035 C1.4225,28.1105 2.6085,39.2675 11.8045,44.6465 C19.6565,49.2395 29.4595,49.1095 38.2655,49.2015 C45.7985,49.2795 49.4435,50.8175 54.0895,57.2605 C58.1795,62.9345 56.9975,70.8015 64.4805,67.2315 C66.2515,66.3875 68.7945,65.5595 68.9955,63.4045 C69.6585,56.2995 66.9105,45.3165 63.3745,38.8805 C58.9115,30.7565 53.6685,31.8285 45.1565,30.1055 C38.3515,28.7275 30.7565,26.8405 26.4315,20.9265" id="Stroke-47" stroke="#8D9AC6" stroke-width="2.419" stroke-linecap="round" stroke-linejoin="round"></path>
                </g>
                <path d="M93.253,103.4632 C92.797,108.5822 92.673,114.8282 93.063,119.9732 C93.734,128.8242 94.827,139.1022 103.299,144.0582 C110.533,148.2892 120.103,147.2652 128.216,147.3492 C132.69,147.3962 137.014,148.7052 140.476,151.5982 C144.403,154.8792 145.593,159.4542 148.685,163.2402 C149.733,164.5232 152.608,166.8032 153.899,164.4812 C154.314,163.7342 154.22,162.8032 153.955,161.9902 C151.182,153.4872 145.685,143.0262 136.037,141.3762 C126.008,139.6612 113.04,144.5962 105.238,135.9822 C101.15,131.4692 101.051,124.8872 102.581,119.3042 C103.38,116.3872 104.645,113.6282 106.274,111.0842 C106.858,110.1712 110.929,105.0962 108.867,104.5472 C100.826,102.4042 93.253,103.4632 93.253,103.4632" id="Fill-49" fill="#D7D7D7"></path>
                <path d="M140.6113,132.6365 C141.2713,134.9995 142.1833,136.9235 144.6343,138.2125 C146.1163,138.9925 150.5023,140.0205 151.7973,138.6825" id="Stroke-51" stroke="#8D9AC6" stroke-width="1.209" stroke-linecap="round" stroke-linejoin="round"></path>
                <path d="M88.9138,173.148 C88.2018,171.016 90.5038,168.113 92.3148,167.177 C93.6548,166.486 97.7498,165.278 98.7398,166.346" id="Stroke-53" stroke="#8D9AC6" stroke-width="1.209" stroke-linecap="round" stroke-linejoin="round"></path>
                <path d="M69.864,95.7356 C72.543,95.0016 75.452,94.1076 76.994,91.7976 C77.728,90.6986 78.191,88.7146 76.67,88.0436" id="Stroke-55" stroke="#8D9AC6" stroke-width="1.209" stroke-linecap="round" stroke-linejoin="round"></path>
                <path d="M98.428,76.5594 C99.591,66.7044 105.686,56.6994 113.647,50.7754 C120.178,45.9164 128.596,45.5184 136.076,47.5324 C147.867,50.7064 155.727,59.1944 155.526,69.8814 C155.319,80.8934 149.27,92.7804 140.465,99.3584 C133.96,104.2184 118.759,99.9814 109.472,91.6714 C100.856,83.9624 98.428,76.5594 98.428,76.5594" id="Fill-57" fill="#EBEBEB"></path>
                <path d="M98.428,76.5594 C99.591,66.7044 105.686,56.6994 113.647,50.7754 C120.178,45.9164 128.596,45.5184 136.076,47.5324 C147.867,50.7064 155.727,59.1944 155.526,69.8814 C155.319,80.8934 149.27,92.7804 140.465,99.3584 C133.96,104.2184 118.759,99.9814 109.472,91.6714 C100.856,83.9624 98.428,76.5594 98.428,76.5594 L98.428,76.5594 Z" id="Stroke-59" stroke="#8D9AC6" stroke-width="2.419" stroke-linecap="round" stroke-linejoin="round"></path>
                <path d="M102.0195,75.9278 C102.9695,67.8738 107.9505,59.6968 114.4575,54.8558 C119.7945,50.8848 126.6745,50.5588 132.7885,52.2048 C142.4245,54.7988 148.8485,61.7358 148.6835,70.4698 C148.5145,79.4698 143.5705,89.1848 136.3745,94.5608 C131.0585,98.5318 118.6355,95.0698 111.0455,88.2788 C104.0035,81.9778 102.0195,75.9278 102.0195,75.9278" id="Fill-61" fill="#D7D7D7"></path>
                <path d="M155.3333,66.8613 C155.1203,65.2523 152.2693,64.1803 151.0263,63.5263 C143.6213,59.6323 129.4923,59.7863 125.5193,64.0093 C122.6903,67.0163 121.0083,70.4083 119.9283,74.3603 C118.6923,78.8783 124.4043,86.9333 128.9713,90.3953 C135.7743,95.5513 142.7723,97.5043 144.0263,96.2553 C150.8903,89.4243 155.4683,79.3373 155.5263,69.8813 C155.5323,68.8553 155.4623,67.8493 155.3333,66.8613" id="Fill-63" fill="#8D9AC6"></path>
                <path d="M150.447,67.3605 C151.509,75.4065 148.19,84.7045 142.428,90.3955" id="Stroke-65" stroke="#FFFFFF" stroke-width="2.419" stroke-linecap="round" stroke-linejoin="round"></path>
                <path d="M119.1462,63.9672 C116.1112,66.5382 115.2042,73.4662 120.3852,73.9172 C124.9762,74.3162 127.2392,66.7462 123.9852,63.9902 C122.5312,62.7582 120.5862,62.7472 119.1462,63.9672" id="Fill-67" fill="#EBEBEB"></path>
                <path d="M119.1462,63.9672 C116.1112,66.5382 115.2042,73.4662 120.3852,73.9172 C124.9762,74.3162 127.2392,66.7462 123.9852,63.9902 C122.5312,62.7582 120.5862,62.7472 119.1462,63.9672 L119.1462,63.9672 Z" id="Stroke-69" stroke="#8D9AC6" stroke-width="1.209" stroke-linecap="round" stroke-linejoin="round"></path>
                <path d="M119.8702,65.4987 C117.8642,67.1987 117.2652,71.7777 120.6892,72.0757 C123.7242,72.3397 125.2202,67.3357 123.0692,65.5137 C122.1082,64.6997 120.8222,64.6927 119.8702,65.4987" id="Fill-71" fill="#D7D7D7"></path>
                <path d="M94.4997,93.8145 C96.4207,96.5185 102.3257,96.1885 102.6777,91.9755 C103.1817,85.9145 90.4727,88.1455 94.4997,93.8145" id="Fill-73" fill="#8D9AC6"></path>
                <path d="M59.2319,65.0379 C59.2319,66.7549 57.8399,68.1469 56.1229,68.1469 C54.4049,68.1469 53.0129,66.7549 53.0129,65.0379 C53.0129,63.3209 54.4049,61.9289 56.1229,61.9289 C57.8399,61.9289 59.2319,63.3209 59.2319,65.0379 L59.2319,65.0379 Z" id="Stroke-75" stroke="#8D9AC6" stroke-width="1.209" stroke-linecap="round" stroke-linejoin="round"></path>
                <path d="M51.7981,221.2243 C51.7981,231.2953 43.6341,239.4593 33.5631,239.4593 C23.4931,239.4593 15.3291,231.2953 15.3291,221.2243 C15.3291,211.1533 23.4931,202.9893 33.5631,202.9893 C43.6341,202.9893 51.7981,211.1533 51.7981,221.2243" id="Fill-77" fill="#F9FAFC"></path>
                <path d="M51.7981,221.2243 C51.7981,231.2953 43.6341,239.4593 33.5631,239.4593 C23.4931,239.4593 15.3291,231.2953 15.3291,221.2243 C15.3291,211.1533 23.4931,202.9893 33.5631,202.9893 C43.6341,202.9893 51.7981,211.1533 51.7981,221.2243 L51.7981,221.2243 Z" id="Stroke-79" stroke="#8D9AC6" stroke-width="3" stroke-linecap="round" stroke-linejoin="round"></path>
                <path d="M236.3346,198.2477 C236.3346,214.0607 223.5156,226.8797 207.7026,226.8797 C191.8896,226.8797 179.0706,214.0607 179.0706,198.2477 C179.0706,182.4347 191.8896,169.6157 207.7026,169.6157 C223.5156,169.6157 236.3346,182.4347 236.3346,198.2477" id="Fill-81" fill="#F9FAFC"></path>
                <path d="M236.3346,198.2477 C236.3346,214.0607 223.5156,226.8797 207.7026,226.8797 C191.8896,226.8797 179.0706,214.0607 179.0706,198.2477 C179.0706,182.4347 191.8896,169.6157 207.7026,169.6157 C223.5156,169.6157 236.3346,182.4347 236.3346,198.2477 L236.3346,198.2477 Z" id="Stroke-83" stroke="#8D9AC6" stroke-width="3" stroke-linecap="round" stroke-linejoin="round"></path>
                <path d="M125.4206,218.5862 C125.4206,219.6752 124.5376,220.5572 123.4496,220.5572 C122.3606,220.5572 121.4776,219.6752 121.4776,218.5862 C121.4776,217.4972 122.3606,216.6152 123.4496,216.6152 C124.5376,216.6152 125.4206,217.4972 125.4206,218.5862 L125.4206,218.5862 Z" id="Stroke-85" stroke="#8D9AC6" stroke-width="1.209" stroke-linecap="round" stroke-linejoin="round"></path>
                <path d="M190.4509,63.0258 C190.4509,64.0528 189.6179,64.8858 188.5909,64.8858 C187.5639,64.8858 186.7319,64.0528 186.7319,63.0258 C186.7319,61.9988 187.5639,61.1658 188.5909,61.1658 C189.6179,61.1658 190.4509,61.9988 190.4509,63.0258 L190.4509,63.0258 Z" id="Stroke-87" stroke="#8D9AC6" stroke-width="1.209" stroke-linecap="round" stroke-linejoin="round"></path>
                <path d="M18.6393,126.5139 C18.6393,127.5409 17.8063,128.3739 16.7793,128.3739 C15.7523,128.3739 14.9203,127.5409 14.9203,126.5139 C14.9203,125.4869 15.7523,124.6539 16.7793,124.6539 C17.8063,124.6539 18.6393,125.4869 18.6393,126.5139 L18.6393,126.5139 Z" id="Stroke-89" stroke="#8D9AC6" stroke-width="1.209" stroke-linecap="round" stroke-linejoin="round"></path>
                <polygon id="Stroke-91" stroke="#8D9AC6" stroke-width="1.209" stroke-linecap="round" stroke-linejoin="round" points="190.6237 118.0833 192.1237 120.8263 194.8667 122.3263 192.1237 123.8263 190.6237 126.5693 189.1237 123.8263 186.3807 122.3263 189.1237 120.8263"></polygon>
                <path d="M95.9482,29.4605 L124.8032,0.6055" id="Stroke-93" stroke="#8D9AC6" stroke-width="1.209" stroke-linecap="round" stroke-linejoin="round" stroke-dasharray="0,6.046,6.046,6.046,30.232,6.046"></path>
            </g>
        </g>
    </g>
</svg>