<?xml version="1.0" encoding="UTF-8" standalone="no"?>
<svg width="99px" height="89px" viewBox="0 0 99 89" version="1.1" xmlns="http://www.w3.org/2000/svg" xmlns:xlink="http://www.w3.org/1999/xlink">
    <!-- Generator: Sketch 3.8.3 (29802) - http://www.bohemiancoding.com/sketch -->
    <title>Page 1</title>
    <desc>Created with Sketch.</desc>
    <defs></defs>
    <g id="DESIGNS" stroke="none" stroke-width="1" fill="none" fill-rule="evenodd">
        <g id="Mobile-360-Flag-[ready]" transform="translate(-131.000000, -328.000000)">
            <g id="Page-1" transform="translate(132.000000, 330.000000)">
                <path d="M41.6044,84.7338 C25.9934,84.3368 12.9594,78.1758 10.6124,74.1718 C1.4214,58.4888 4.1664,33.7118 13.3354,17.9708 C29.0624,-9.0292 69.2094,-2.5652 82.6884,17.3538 C91.8854,30.9468 94.5314,59.9908 87.4084,70.2258 C80.2854,80.4598 61.3064,85.2358 41.6044,84.7338" id="Fill-1" fill="#EBEBEB"></path>
                <path d="M41.6044,84.7338 C25.9934,84.3368 12.9594,78.1758 10.6124,74.1718 C1.4214,58.4888 4.1664,33.7118 13.3354,17.9708 C29.0624,-9.0292 69.2094,-2.5652 82.6884,17.3538 C91.8854,30.9468 94.5314,59.9908 87.4084,70.2258 C80.2854,80.4598 61.3064,85.2358 41.6044,84.7338 L41.6044,84.7338 Z" id="Stroke-3" stroke="#8D9AC6" stroke-width="4" stroke-linecap="round" stroke-linejoin="round"></path>
                <path d="M42.0594,78.9793 C28.3574,78.6303 16.9174,73.2233 14.8574,69.7083 C6.7904,55.9443 9.2004,34.1973 17.2474,20.3813 C31.0514,-3.3167 66.2884,2.3563 78.1184,19.8393 C86.1914,31.7703 88.5134,57.2623 82.2614,66.2453 C76.0104,75.2283 59.3514,79.4193 42.0594,78.9793" id="Fill-5" fill="#D7D7D7"></path>
                <path d="M1.4748,39.8983 L4.2208,39.4953 C4.5988,39.4403 4.9388,39.7333 4.9388,40.1163 L4.9388,57.9383 C4.9388,58.3623 4.5258,58.6643 4.1208,58.5353 L1.3748,57.6573 C1.1148,57.5743 0.9388,57.3333 0.9388,57.0603 C-0.3092,51.8933 -0.3162,46.3813 0.9388,40.5183 C0.9388,40.2073 1.1668,39.9433 1.4748,39.8983" id="Fill-7" fill="#EBEBEB"></path>
                <path d="M1.4748,39.8983 L4.2208,39.4953 C4.5988,39.4403 4.9388,39.7333 4.9388,40.1163 L4.9388,57.9383 C4.9388,58.3623 4.5258,58.6643 4.1208,58.5353 L1.3748,57.6573 C1.1148,57.5743 0.9388,57.3333 0.9388,57.0603 C-0.3092,51.8933 -0.3162,46.3813 0.9388,40.5183 C0.9388,40.2073 1.1668,39.9433 1.4748,39.8983 L1.4748,39.8983 Z" id="Stroke-9" stroke="#8D9AC6" stroke-width="2" stroke-linecap="round" stroke-linejoin="round"></path>
                <path d="M94.5942,58.156 L91.8482,58.559 C91.4702,58.614 91.1302,58.321 91.1302,57.938 L91.1302,40.116 C91.1302,39.692 91.5432,39.39 91.9482,39.519 L94.6942,40.397 C94.9542,40.48 95.1302,40.721 95.1302,40.994 C97.2632,46.651 97.0942,52.153 95.1302,57.536 C95.1302,57.847 94.9022,58.111 94.5942,58.156" id="Fill-11" fill="#EBEBEB"></path>
                <path d="M94.5942,58.156 L91.8482,58.559 C91.4702,58.614 91.1302,58.321 91.1302,57.938 L91.1302,40.116 C91.1302,39.692 91.5432,39.39 91.9482,39.519 L94.6942,40.397 C94.9542,40.48 95.1302,40.721 95.1302,40.994 C97.2632,46.651 97.0942,52.153 95.1302,57.536 C95.1302,57.847 94.9022,58.111 94.5942,58.156 L94.5942,58.156 Z" id="Stroke-13" stroke="#8D9AC6" stroke-width="2" stroke-linecap="round" stroke-linejoin="round"></path>
                <path d="M6.997,41.2929 C10.509,34.1709 17.769,24.7549 24.425,20.8039 C34.965,14.5469 47.644,12.9529 58.37,15.3889 C80.07,20.3149 87.118,33.6389 89.683,37.6899 C93.067,43.0339 92.776,47.8479 90.195,54.0089 C79.648,79.1899 21.869,83.2829 6.196,56.2629 C3.273,51.2229 4.381,46.5969 6.997,41.2929" id="Fill-15" fill="#8D9AC6"></path>
                <path d="M80.7391,56.4654 C82.6131,47.9464 80.8851,38.0254 76.2441,30.8704" id="Stroke-17" stroke="#FFFFFF" stroke-width="4" stroke-linecap="round" stroke-linejoin="round" stroke-dasharray="14,10"></path>
                <path d="M21.0999,31.6703 C16.7839,40.4243 16.9759,52.2953 21.3419,61.0013" id="Stroke-19" stroke="#FFFFFF" stroke-width="4" stroke-linecap="round" stroke-linejoin="round"></path>
                <path d="M45.361,34.389 C44.789,31.098 40.479,29.605 37.917,30.354 C35.009,31.203 34.961,34.93 36.638,36.063 C38.451,37.287 40.249,36.84 41.667,37.588 C43.012,38.298 45.124,41.504 43.838,43.829 C42.913,45.502 40.519,46.95 34.235,46.225 C30.979,45.849 29.729,47.713 29.729,49.776 C29.729,51.776 31.917,52.776 34.604,52.526 C38.032,52.207 39.061,49.972 41.77,49.492 C46.093,48.725 42.903,52.093 45.283,53.72 C47.586,55.294 50.183,52.113 52.542,52.961 C55.38,53.982 54.465,57.753 55.716,59.963 C57.517,63.148 59.751,60.192 58.728,57.47 C57.974,55.466 54.867,53.164 56.924,51.47 C58.219,50.404 61.589,49.471 63.292,49.463 C65.454,49.454 68.755,51.014 70.792,50.347 C75.33,48.861 72.058,45.736 68.176,47.329 C65.239,48.534 61.428,48.82 58.912,46.462 C56.929,44.604 57.921,42.609 59.863,41.338 C61.307,40.393 62.293,39.776 62.729,38.809 C63.167,37.838 63.12,36.589 61.479,35.838 C59.835,35.086 57.667,36.489 56.667,39.385 C56.395,40.171 55.354,42.776 51.436,42.401 C48.596,42.129 45.959,37.832 45.361,34.389" id="Fill-21" fill="#FFFFFF"></path>
                <path d="M52.4477,39.8795 C53.0447,39.6495 53.9357,37.8945 53.7697,37.2775 C53.4577,36.1175 51.7077,36.1245 51.3817,37.2575 C51.1027,38.2265 51.5537,40.2245 52.4477,39.8795" id="Fill-23" fill="#FFFFFF"></path>
                <path d="M38.3872,57.1202 C39.2202,57.4602 39.6942,56.9772 39.9692,56.2292 C40.1172,55.8292 40.1862,55.3472 40.2172,54.9252 C40.2692,54.2012 40.2922,54.1382 39.7272,54.3892 C38.8072,54.7982 36.5672,56.3762 38.3872,57.1202" id="Fill-25" fill="#FFFFFF"></path>
                <path d="M38.226,43.2149 C38.903,42.9659 39.378,42.8149 38.984,42.1189 C38.777,41.7529 38.339,41.4219 38.002,41.1769 C37.24,40.6229 36.452,40.3599 35.635,40.9909 C34.801,41.6349 34.663,43.0669 35.696,43.5909 C36.487,43.9909 37.49,43.4859 38.226,43.2149" id="Fill-27" fill="#FFFFFF"></path>
                <path d="M65.3247,56.154 C65.9167,55.371 65.3767,54.761 64.6377,54.394 C64.1317,54.143 62.2567,53.452 62.5207,54.366 C62.6337,54.755 63.4627,55.768 63.7947,56.122 C64.2947,56.655 64.8317,56.806 65.3247,56.154" id="Fill-29" fill="#FFFFFF"></path>
                <path d="M66.4166,43.0749 C66.3046,43.9909 65.2886,43.9899 64.5936,44.0969 C63.9446,44.1979 63.0866,44.1939 63.9136,43.3659 C64.2496,43.0299 64.6626,42.7169 65.0726,42.4779 C65.8126,42.0469 66.5486,41.9879 66.4166,43.0749" id="Fill-31" fill="#FFFFFF"></path>
                <path d="M51.4794,59.4009 C51.4584,60.0839 51.7674,61.1059 52.6304,60.4289 C53.4964,59.7489 53.1444,56.5379 52.5934,56.5359 C52.0414,56.5329 51.4974,58.7909 51.4794,59.4009" id="Fill-33" fill="#FFFFFF"></path>
            </g>
        </g>
    </g>
</svg>