<?xml version="1.0" encoding="UTF-8" standalone="no"?>
<svg width="24px" height="24px" viewBox="0 0 24 24" version="1.1" xmlns="http://www.w3.org/2000/svg" xmlns:xlink="http://www.w3.org/1999/xlink">
    <!-- Generator: Sketch 3.8.1 (29687) - http://www.bohemiancoding.com/sketch -->
    <title>Page 1</title>
    <desc>Created with Sketch.</desc>
    <defs></defs>
    <g id="DESIGNS" stroke="none" stroke-width="1" fill="none" fill-rule="evenodd">
        <g id="Mobile-360-top-sharing-[ready]" transform="translate(-63.000000, -338.000000)">
            <g id="Page-1" transform="translate(63.000000, 338.000000)">
                <path d="M22.6663461,23.3513514 C23.3974921,23.3513514 23.990391,22.7744768 23.990391,22.0630914 L23.990391,1.29753052 C23.990391,0.585882782 23.3974921,0.0091831157 22.6663461,0.0091831157 L1.32405393,0.0091831157 C0.592638202,0.0091831157 8.98876381e-06,0.585882782 8.98876381e-06,1.29753052 L8.98876381e-06,22.0630914 C8.98876381e-06,22.7744768 0.592638202,23.3513514 1.32405393,23.3513514 L22.6663461,23.3513514 Z" id="Fill-1" fill="#FFFFFF"></path>
                <path d="M16.5529348,23.3513514 L16.5529348,14.3121045 L19.6714067,14.3121045 L20.1382831,10.7892864 L16.5529348,10.7892864 L16.5529348,8.54012268 C16.5529348,7.52018463 16.843991,6.8250665 18.3472719,6.8250665 L20.2645753,6.82427938 L20.2645753,3.67350865 C19.9328899,3.63065411 18.7948225,3.53471242 17.4707775,3.53471242 C14.7064629,3.53471242 12.8140584,5.17639113 12.8140584,8.1913392 L12.8140584,10.7892864 L9.6876764,10.7892864 L9.6876764,14.3121045 L12.8140584,14.3121045 L12.8140584,23.3513514 L16.5529348,23.3513514 Z" id="Fill-4" fill="#4DB8CD"></path>
            </g>
        </g>
    </g>
</svg>