<?xml version="1.0" encoding="UTF-8" standalone="no"?>
<svg width="21px" height="20px" viewBox="0 0 21 20" version="1.1" xmlns="http://www.w3.org/2000/svg" xmlns:xlink="http://www.w3.org/1999/xlink">
    <!-- Generator: Sketch 3.8.3 (29802) - http://www.bohemiancoding.com/sketch -->
    <title>Page 1</title>
    <desc>Created with Sketch.</desc>
    <defs></defs>
    <g id="DESIGNS" stroke="none" stroke-width="1" fill="none" fill-rule="evenodd">
        <g id="Mobile-360-top-sharing-[ready]-Copy" transform="translate(-231.000000, -339.000000)" fill="#FFFFFF">
            <g id="Page-1" transform="translate(231.000000, 339.000000)">
                <path d="M16.7732617,19.9998808 C16.5438508,19.9403694 16.0904635,19.8738781 15.6824925,19.7078337 C8.52572627,16.7914036 3.32613398,12.0128517 0.372128948,5.14882637 C-0.618491399,2.84808295 0.415992623,0.904775798 2.91234037,0.110554615 C3.3602933,-0.0319790667 3.79931823,-0.0418976476 4.23989585,0.111289324 C5.30465745,0.481950367 8.00052669,3.99386272 8.06108185,5.04486495 C8.10727457,5.85047413 7.52889514,6.28689169 6.95478562,6.65571596 C5.86945079,7.35332282 5.86362818,8.23754594 6.32710807,9.22352635 C7.37517819,11.4522682 9.16427269,12.9841379 11.4816722,13.9785675 C12.3224573,14.3396773 13.1259777,14.3036766 13.7000873,13.4808017 C14.7225379,12.0157906 15.9759521,12.0863227 17.3465949,12.9973627 C18.0336631,13.4536174 18.731212,13.8999536 19.3848972,14.3977194 C20.271875,15.0736523 21.3936982,15.6368073 20.8630642,17.0551644 C20.3114688,18.5297267 18.4028167,20.0153098 16.7732617,19.9998808" id="Fill-1"></path>
                <path d="M11.1538345,0.0141623009 C15.9310601,0.184672805 20.044485,4.80952637 19.9861857,9.79881199 C19.9806509,10.2884932 20.1470623,11.0138457 19.4570637,10.999799 C18.7965838,10.9865328 18.9692679,10.2498649 18.9105996,9.76096412 C18.2770554,4.46343296 15.9834558,1.9627423 11.009931,1.15389041 C10.5977768,1.08677872 9.96976736,1.18159349 10.0011309,0.605681579 C10.0472538,-0.248821864 10.7933379,0.0691782759 11.1538345,0.0141623009" id="Fill-4"></path>
                <path d="M17.999813,8.9746487 C17.9518534,9.31700333 18.1596782,9.90316702 17.5830216,9.98747823 C16.8038692,10.1009881 16.9553605,9.41700884 16.8792342,8.97756857 C16.3577692,5.96353389 15.2543188,4.85763354 12.0855625,4.17839904 C11.6189084,4.07839353 10.8926637,4.14847038 11.0133238,3.45938132 C11.1282745,2.80241081 11.7802961,3.02578079 12.2732137,3.08235325 C15.4393056,3.44697188 18.0253153,6.08105861 17.999813,8.9746487" id="Fill-7"></path>
                <path d="M15.9975489,8.11874283 C16.0129725,8.5186497 15.9686792,8.9399665 15.4790801,8.99616756 C15.1259202,9.0366935 14.8941714,8.75033571 14.8573922,8.39668958 C14.7225349,7.09450717 14.0122603,6.32489672 12.6613149,6.11538528 C12.2567432,6.05230245 11.8596855,5.92651913 12.0483274,5.39815269 C12.1744842,5.04412424 12.5098477,5.00856846 12.8519343,5.00053974 C14.3116355,4.96536629 16.021673,6.65598596 15.9975489,8.11874283" id="Fill-9"></path>
            </g>
        </g>
    </g>
</svg>