<?xml version="1.0" encoding="UTF-8" standalone="no"?>
<svg width="19px" height="11px" viewBox="0 0 19 11" version="1.1" xmlns="http://www.w3.org/2000/svg" xmlns:xlink="http://www.w3.org/1999/xlink">
    <!-- Generator: Sketch 40.3 (33839) - http://www.bohemiancoding.com/sketch -->
    <title>v-off</title>
    <desc>Created with Sketch.</desc>
    <defs></defs>
    <g id="Page-1" stroke="none" stroke-width="1" fill="none" fill-rule="evenodd">
        <g id="v-off" fill="#FFFFFF">
            <g id="Group">
                <path d="M18.8771749,9.92445223 C18.8541949,9.87432166 18.8327723,9.83273885 18.8128725,9.79942357 C18.4836084,9.19915287 17.8543934,8.46236306 16.9256084,7.58884395 L16.9059854,7.56884076 L16.8961566,7.55903185 L16.886224,7.54897771 L16.8762568,7.54897771 C16.4547268,7.14222293 16.1877923,6.8687293 16.0760073,6.72870701 C15.8714718,6.46197452 15.8256503,6.19198408 15.9374353,5.91842038 C16.0164117,5.71173248 16.3130747,5.27523567 16.8267322,4.60833439 C17.0969199,4.25489809 17.3109035,3.97163057 17.4689253,3.75821656 C18.6086138,2.22452229 19.1027177,1.24447134 18.951133,0.817678344 L18.8922641,0.717942675 C18.8527067,0.657898089 18.750612,0.602968153 18.5861184,0.552872611 C18.4212441,0.502882166 18.2105137,0.49461465 17.9535464,0.527929936 L15.1079071,0.547828025 C15.0618087,0.531292994 14.9959836,0.532834395 14.910224,0.552872611 C14.8245683,0.572910828 14.7817231,0.582964968 14.7817231,0.582964968 L14.7321985,0.608012739 L14.6928834,0.638105096 C14.6599362,0.658003185 14.6237013,0.693 14.5841439,0.743025478 C14.5447942,0.792875796 14.5118816,0.851378981 14.4855792,0.918044586 C14.175765,1.72486306 13.8235209,2.475 13.4281894,3.16842038 C13.1844426,3.58190127 12.9605956,3.94024204 12.7561639,4.24365287 C12.5520091,4.5469586 12.3807322,4.77042675 12.2425064,4.91367197 C12.1040729,5.05705732 11.9791366,5.17192675 11.8669362,5.25870064 C11.7549089,5.34550955 11.6693916,5.3821879 11.6101767,5.3687707 C11.5508233,5.3553535 11.4949308,5.3420414 11.4420146,5.3287293 C11.3498525,5.26868471 11.2757213,5.18702548 11.2198288,5.08368153 C11.163694,4.98033758 11.1259016,4.85026433 11.1061403,4.69356688 C11.0864827,4.53676433 11.0748543,4.40189172 11.0715319,4.28849363 C11.0684517,4.17523567 11.0698707,4.01503503 11.0765501,3.80834713 C11.0834026,3.60155414 11.0864827,3.46163694 11.0864827,3.38828025 C11.0864827,3.13485987 11.0913625,2.85982484 11.1011566,2.5631051 C11.1111239,2.26638535 11.1191876,2.03128662 11.1259362,1.85808917 C11.1326503,1.68471656 11.135765,1.50128981 11.135765,1.30791401 C11.135765,1.11453822 11.1241366,0.96288535 11.1011566,0.852815287 C11.0784536,0.74288535 11.0436029,0.636178344 10.9976776,0.532729299 C10.9514754,0.42938535 10.8838506,0.349442675 10.7951148,0.292691083 C10.7062058,0.236009554 10.5956667,0.191028662 10.4641202,0.15760828 C10.1149563,0.0776305732 9.67034244,0.034366242 9.13007104,0.0276401274 C7.90489982,0.0143280255 7.11766302,0.094410828 6.7685337,0.267783439 C6.63020401,0.341035032 6.5050255,0.441121019 6.393102,0.567726115 C6.27449909,0.714474522 6.25795628,0.794557325 6.34357741,0.807729299 C6.73887432,0.86766879 7.01871767,1.01105414 7.18341894,1.23774522 L7.24277231,1.35786943 C7.28893989,1.44453822 7.33503825,1.59797771 7.38117122,1.81797771 C7.42723497,2.03797771 7.45696357,2.28134395 7.47004554,2.54793631 C7.5029235,3.03477389 7.5029235,3.45151274 7.47004554,3.7981879 C7.43706375,4.14500318 7.40591621,4.41499363 7.37618761,4.60836943 C7.34645902,4.80174522 7.30202186,4.95844268 7.24277231,5.07842675 C7.18341894,5.19844586 7.14393078,5.27180255 7.12413479,5.29842675 C7.10437341,5.32505096 7.08789982,5.34183121 7.07481785,5.3484172 C6.98919672,5.38162739 6.90014936,5.39854777 6.80798725,5.39854777 C6.7156867,5.39854777 6.60376321,5.35181529 6.47204372,5.25842038 C6.34035883,5.16502548 6.20369035,5.03673885 6.06203825,4.87335032 C5.92038616,4.70992675 5.76063388,4.48155414 5.5827122,4.18819745 C5.40492896,3.89484076 5.2204663,3.54813057 5.02942805,3.14806688 L4.87137158,2.85793312 C4.77256466,2.67128344 4.63759199,2.39950637 4.46631512,2.04284713 C4.29493443,1.68604777 4.14345355,1.34091401 4.01176867,1.00751592 C3.95912933,0.867493631 3.88004918,0.76089172 3.77466667,0.687535032 L3.72521129,0.657442675 C3.69233333,0.630818471 3.63955556,0.602547771 3.56715483,0.572420382 C3.49465027,0.542328025 3.41899636,0.520748408 3.3398816,0.507471338 L0.632502732,0.527369427 C0.355843352,0.527369427 0.168127505,0.590812102 0.0692859745,0.717522293 L0.0297285974,0.777461783 C0.00996721311,0.810847134 0,0.864165605 0,0.937557325 C0,1.01091401 0.0197613843,1.10094586 0.0593187614,1.20754777 C0.454546448,2.14780255 0.884347905,3.05460191 1.34872313,3.92808599 C1.81309836,4.80157006 2.21663206,5.50518471 2.55908197,6.03829936 C2.90160109,6.57179936 3.25073042,7.0753121 3.60646995,7.54859236 C3.96220947,8.02204777 4.19768488,8.3254586 4.31289617,8.45875478 C4.4282459,8.59229618 4.51885064,8.69213694 4.58471038,8.75880255 L4.8317796,8.99880573 C4.98987067,9.15886624 5.22202368,9.35056051 5.52834244,9.57388854 C5.83473042,9.79735669 6.17392714,10.0173567 6.54610565,10.2342389 C6.91835337,10.4507707 7.35140801,10.6274713 7.84551184,10.7641306 C8.33954645,10.9009299 8.82039526,10.9558248 9.2881275,10.9293408 L10.424459,10.9293408 C10.6549162,10.9091975 10.8295155,10.8358408 10.9481876,10.7092357 L10.9875027,10.6591051 C11.0139435,10.6193089 11.0386885,10.5574777 11.0615301,10.4742771 C11.0846485,10.3909363 11.0961384,10.2991178 11.0961384,10.199242 C11.0893898,9.91257643 11.1109508,9.65421656 11.1602332,9.42419745 C11.2094809,9.19424841 11.2656157,9.0208758 11.3283953,8.90411465 C11.3911403,8.7874586 11.461949,8.68901911 11.5407523,8.60921656 C11.6197286,8.52923885 11.6760018,8.48078981 11.7090182,8.46411465 C11.741827,8.44733439 11.7680255,8.43594904 11.7877869,8.42911783 C11.945878,8.37579936 12.1319326,8.42743631 12.3462277,8.58427389 C12.5603497,8.74097134 12.7611821,8.93445223 12.9490364,9.16440127 C13.1367869,9.39456051 13.3623643,9.65278025 13.6258033,9.93944586 C13.8894153,10.2262166 14.1199071,10.4393854 14.3174517,10.5796178 L14.5149964,10.6996369 C14.6469235,10.7797197 14.8182004,10.8530764 15.0290346,10.919742 C15.2394882,10.9863726 15.4238816,11.0030478 15.5822149,10.9697325 L18.1116375,10.9297962 C18.3618215,10.9297962 18.5564936,10.8878631 18.6945811,10.8046624 C18.8329454,10.7213217 18.9151403,10.6295032 18.9416503,10.5296274 C18.9680911,10.4296465 18.96951,10.3162134 18.9466685,10.1893981 C18.9232386,10.0628981 18.9001548,9.97444268 18.8771749,9.92445223 L18.8771749,9.92445223 Z" id="Shape"></path>
            </g>
        </g>
    </g>
</svg>