<?xml version="1.0" encoding="UTF-8" standalone="no"?>
<svg width="31px" height="20px" viewBox="0 0 31 20" version="1.1" xmlns="http://www.w3.org/2000/svg" xmlns:xlink="http://www.w3.org/1999/xlink">
    <!-- Generator: Sketch 3.8.1 (29687) - http://www.bohemiancoding.com/sketch -->
    <title>Group</title>
    <desc>Created with Sketch.</desc>
    <defs></defs>
    <g id="DESIGNS" stroke="none" stroke-width="1" fill="none" fill-rule="evenodd">
        <g id="Mobile-360-top-sharing-[ready]" transform="translate(-270.000000, -340.000000)" fill="#FFFFFF">
            <g id="Group" transform="translate(270.000000, 340.000000)">
                <path d="M9.81304867,8.65421664 L9.81304867,11.9973878 L15.3429702,11.9973878 C15.1199246,13.4316107 13.6711334,16.2036044 9.81304867,16.2036044 C6.48394349,16.2036044 3.76771115,13.4456766 3.76771115,10.0472465 C3.76771115,6.64831397 6.48394349,3.89038619 9.81304867,3.89038619 C11.7074286,3.89038619 12.9748697,4.69817268 13.6992653,5.39493878 L16.3456703,2.84599058 C14.6462041,1.2580471 12.4453878,0.297042386 9.81304867,0.297042386 C4.42278179,0.297042386 0.062844584,4.65647724 0.062844584,10.0472465 C0.062844584,15.4375133 4.42278179,19.7974505 9.81304867,19.7974505 C15.440427,19.7974505 19.1734254,15.8414066 19.1734254,10.2697896 C19.1734254,9.62928728 19.1035981,9.14150078 19.0202072,8.65421664 L9.81304867,8.65421664 Z" id="Fill-3"></path>
                <polyline id="Fill-5" points="30.7064364 8.65421664 27.9208791 8.65421664 27.9208791 5.86815699 25.1348195 5.86815699 25.1348195 8.65421664 22.3492622 8.65421664 22.3492622 11.4397739 25.1348195 11.4397739 25.1348195 14.2258336 27.9208791 14.2258336 27.9208791 11.4397739 30.7064364 11.4397739"></polyline>
            </g>
        </g>
    </g>
</svg>