<?xml version="1.0" encoding="UTF-8" standalone="no"?>
<svg width="26px" height="22px" viewBox="0 0 26 22" version="1.1" xmlns="http://www.w3.org/2000/svg" xmlns:xlink="http://www.w3.org/1999/xlink">
    <!-- Generator: Sketch 3.8.1 (29687) - http://www.bohemiancoding.com/sketch -->
    <title>Page 1</title>
    <desc>Created with Sketch.</desc>
    <defs></defs>
    <g id="DESIGNS" stroke="none" stroke-width="1" fill="none" fill-rule="evenodd">
        <g id="Mobile-360-top-sharing-[ready]" transform="translate(-167.000000, -339.000000)" fill="#FFFFFF">
            <g id="Page-1" transform="translate(167.000000, 339.000000)">
                <path d="M25.9420788,2.57367737 C24.9875752,2.99698394 23.9619036,3.28317372 22.885181,3.41175036 C23.984108,2.75311533 24.8280642,1.70998394 25.2253708,0.46720292 C24.1970423,1.07715912 23.0580715,1.52001314 21.8456555,1.75875766 C20.8748307,0.724356204 19.4916117,0.0779620438 17.960838,0.0779620438 C15.0213197,0.0779620438 12.6383343,2.46104234 12.6383343,5.40018102 C12.6383343,5.8174146 12.6854,6.22354599 12.7761153,6.61307153 C8.35279416,6.39112263 4.43106423,4.27221752 1.80601314,1.05220292 C1.34788175,1.83827591 1.0854146,2.75254599 1.0854146,3.72792555 C1.0854146,5.5744 2.02502044,7.20348029 3.45312263,8.15798394 C2.58069927,8.1303708 1.75999124,7.89086715 1.0424292,7.49223212 C1.04204964,7.5144365 1.04195474,7.53673577 1.04195474,7.55912993 C1.04195474,10.1378745 2.87656788,12.2890423 5.3113635,12.7780131 C4.86471387,12.8995679 4.39453139,12.9645679 3.90916642,12.9645679 C3.56613723,12.9645679 3.23278686,12.9312613 2.90778686,12.869108 C3.58511533,14.9836482 5.55067737,16.5223927 7.87967007,16.565473 C6.05805693,17.9929109 3.76322482,18.8436993 1.26959708,18.8436993 C0.840027737,18.8436993 0.416341606,18.8185533 -3.79562043e-05,18.7694 C2.3554292,20.2794876 5.15299124,21.160546 8.15864818,21.160546 C17.9484073,21.160546 23.3017504,13.0506336 23.3017504,6.01734891 C23.3017504,5.78657518 23.2965314,5.55703504 23.2863781,5.32882336 C24.3261883,4.5784292 25.2285022,3.64100584 25.9420788,2.57367737" id="Fill-1"></path>
            </g>
        </g>
    </g>
</svg>