<?xml version="1.0" encoding="UTF-8" standalone="no"?>
<svg width="360px" height="542px" viewBox="0 0 360 542" version="1.1" xmlns="http://www.w3.org/2000/svg" xmlns:xlink="http://www.w3.org/1999/xlink">
    <!-- Generator: Sketch 3.6.1 (26313) - http://www.bohemiancoding.com/sketch -->
    <title>Group</title>
    <desc>Created with Sketch.</desc>
    <defs></defs>
    <g id="DESIGNS" stroke="none" stroke-width="1" fill="none" fill-rule="evenodd">
        <g id="Mobile-360-Login" transform="translate(0.000000, -98.000000)">
            <g id="Group" transform="translate(-15.000000, 99.000000)">
                <g id="Page-1">
                    <path d="M33.1163,259.6421 C33.1163,262.9561 30.4303,265.6421 27.1163,265.6421 C30.4303,265.6421 33.1163,268.3281 33.1163,271.6421 C33.1163,268.3281 35.8023,265.6421 39.1163,265.6421 C35.8023,265.6421 33.1163,262.9561 33.1163,259.6421 L33.1163,259.6421 Z" id="Stroke-1" stroke="#E5F9CF" stroke-width="2" stroke-linecap="round" stroke-linejoin="round" stroke-dasharray="50,4,0,4,100,10"></path>
                    <path d="M271,2 C271,3.105 270.105,4 269,4 C267.895,4 267,3.105 267,2 C267,0.895 267.895,0 269,0 C270.105,0 271,0.895 271,2" id="Fill-3" fill="#FFCFEB"></path>
                    <path d="M303.4668,41.6421 L303.4668,49.6421" id="Stroke-5" stroke="#D7F9FF" stroke-width="2" stroke-linecap="round" stroke-linejoin="round" stroke-dasharray="50,4,0,4,100,10"></path>
                    <path d="M299.4668,45.6421 L307.4668,45.6421" id="Stroke-7" stroke="#D7F9FF" stroke-width="2" stroke-linecap="round" stroke-linejoin="round" stroke-dasharray="50,4,0,4,100,10"></path>
                    <path d="M282,539.6424 C282,535.2244 278.418,531.6424 274,531.6424 C269.582,531.6424 266,535.2244 266,539.6424 C266,544.0604 269.582,547.6424 274,547.6424 C278.418,547.6424 282,544.0604 282,539.6424 L282,539.6424 Z" id="Stroke-9" stroke="#FFCFEB" stroke-width="2" stroke-linecap="round" stroke-linejoin="round"></path>
                    <path d="M44.8228,118.7292 L125.4098,38.1422" id="Stroke-11" stroke="#E5F9CF" stroke-width="2" stroke-linecap="round" stroke-linejoin="round" stroke-dasharray="50,4,0,4,100,10"></path>
                    <path d="M33,563.6709 L97.057,499.6139" id="Stroke-13" stroke="#FFDED7" stroke-width="2" stroke-linecap="round" stroke-linejoin="round" stroke-dasharray="50,4,0,4,100,10"></path>
                    <path d="M55.8663,467.1424 C55.8663,462.7244 52.2843,459.1424 47.8663,459.1424 C43.4483,459.1424 39.8663,462.7244 39.8663,467.1424 C39.8663,471.5604 43.4483,475.1424 47.8663,475.1424 C52.2843,475.1424 55.8663,471.5604 55.8663,467.1424 L55.8663,467.1424 Z" id="Stroke-15" stroke="#CFC3E2" stroke-width="2" stroke-linecap="round" stroke-linejoin="round" stroke-dasharray="50,4,0,4,100,10"></path>
                    <path d="M37,193 C37,194.105 36.105,195 35,195 C33.895,195 33,194.105 33,193 C33,191.895 33.895,191 35,191 C36.105,191 37,191.895 37,193" id="Fill-17" fill="#FFCFEB"></path>
                    <path d="M280.1163,466.2387 L280.1163,474.2387" id="Stroke-19" stroke="#D7F9FF" stroke-width="2" stroke-linecap="round" stroke-linejoin="round" stroke-dasharray="50,4,0,4,100,10"></path>
                    <path d="M276.1163,470.2387 L284.1163,470.2387" id="Stroke-21" stroke="#D7F9FF" stroke-width="2" stroke-linecap="round" stroke-linejoin="round" stroke-dasharray="50,4,0,4,100,10"></path>
                    <path d="M63.7483,210.6421 C63.7483,211.7471 62.8533,212.6421 61.7483,212.6421 C60.6433,212.6421 59.7483,211.7471 59.7483,210.6421 C59.7483,209.5371 60.6433,208.6421 61.7483,208.6421 C62.8533,208.6421 63.7483,209.5371 63.7483,210.6421" id="Fill-23" fill="#FFCFCF"></path>
                    <path d="M0.8833,410.7586 L91.1163,320.5256" id="Stroke-25" stroke="#D7F9FF" stroke-width="2" stroke-linecap="round" stroke-linejoin="round" stroke-dasharray="50,4,0,4,100,10"></path>
                    <path d="M304.4668,160.6217 L388.2518,76.8367" id="Stroke-27" stroke="#FFCFEB" stroke-width="2" stroke-linecap="round" stroke-linejoin="round" stroke-dasharray="50,4,0,4,100,10"></path>
                    <path d="M330,501.5516 L407.819,423.7326" id="Stroke-29" stroke="#CFC3E2" stroke-width="2" stroke-linecap="round" stroke-linejoin="round" stroke-dasharray="50,4,0,4,100,10"></path>
                    <path d="M148,424 C148,427.314 145.314,430 142,430 C145.314,430 148,432.686 148,436 C148,432.686 150.686,430 154,430 C150.686,430 148,427.314 148,424 L148,424 Z" id="Stroke-31" stroke="#FFCFEB" stroke-width="2" stroke-linecap="round" stroke-linejoin="round" stroke-dasharray="50,4,0,4,100,10"></path>
                    <path d="M338.1163,370.6421 C338.1163,375.0601 334.5343,378.6421 330.1163,378.6421 C334.5343,378.6421 338.1163,382.2241 338.1163,386.6421 C338.1163,382.2241 341.6983,378.6421 346.1163,378.6421 C341.6983,378.6421 338.1163,375.0601 338.1163,370.6421 L338.1163,370.6421 Z" id="Stroke-33" stroke="#FFF0CF" stroke-width="2" stroke-linecap="round" stroke-linejoin="round"></path>
                    <path d="M108.1163,4 C108.1163,1.791 109.9073,0 112.1163,0 C114.3253,0 116.1163,1.791 116.1163,4 C116.1163,6.209 114.3253,8 112.1163,8 C109.9073,8 108.1163,6.209 108.1163,4 L108.1163,4 Z" id="Stroke-35" stroke="#FFF0CF" stroke-width="2" stroke-linecap="round" stroke-linejoin="round"></path>
                    <path d="M207,159 C207,160.105 206.105,161 205,161 C203.895,161 203,160.105 203,159 C203,157.895 203.895,157 205,157 C206.105,157 207,157.895 207,159" id="Fill-37" fill="#FFCFCF"></path>
                    <path d="M235.6163,198.6421 C235.6163,196.4331 237.4073,194.6421 239.6163,194.6421 C241.8253,194.6421 243.6163,196.4331 243.6163,198.6421 C243.6163,200.8511 241.8253,202.6421 239.6163,202.6421 C237.4073,202.6421 235.6163,200.8511 235.6163,198.6421 L235.6163,198.6421 Z" id="Stroke-39" stroke="#FFF0CF" stroke-width="2" stroke-linecap="round" stroke-linejoin="round"></path>
                    <path d="M55.8663,50.3464 L55.8663,58.3464" id="Stroke-41" stroke="#FFDED7" stroke-width="2" stroke-linecap="round" stroke-linejoin="round"></path>
                    <path d="M51.8663,54.3464 L59.8663,54.3464" id="Stroke-43" stroke="#FFDED7" stroke-width="2" stroke-linecap="round" stroke-linejoin="round"></path>
                    <path d="M272.1163,98.3353 C271.5643,98.3353 271.1163,97.8873 271.1163,97.3353 C271.1163,96.7833 271.5643,96.3353 272.1163,96.3353 C272.6683,96.3353 273.1163,96.7833 273.1163,97.3353 C273.1163,97.8873 272.6683,98.3353 272.1163,98.3353" id="Fill-45" fill="#ECEFF6"></path>
                    <path d="M361,29 C360.448,29 360,28.552 360,28 C360,27.448 360.448,27 361,27 C361.552,27 362,27.448 362,28 C362,28.552 361.552,29 361,29" id="Fill-47" fill="#ECEFF6"></path>
                    <path d="M266,411 C265.448,411 265,410.552 265,410 C265,409.448 265.448,409 266,409 C266.552,409 267,409.448 267,410 C267,410.552 266.552,411 266,411" id="Fill-49" fill="#ECEFF6"></path>
                    <path d="M162.9658,11.8921 C162.4138,11.8921 161.9658,11.4441 161.9658,10.8921 C161.9658,10.3401 162.4138,9.8921 162.9658,9.8921 C163.5178,9.8921 163.9658,10.3401 163.9658,10.8921 C163.9658,11.4441 163.5178,11.8921 162.9658,11.8921" id="Fill-51" fill="#ECEFF6"></path>
                    <path d="M229.7024,16.3088 C229.1504,16.3088 228.7024,15.8608 228.7024,15.3088 C228.7024,14.7568 229.1504,14.3088 229.7024,14.3088 C230.2544,14.3088 230.7024,14.7568 230.7024,15.3088 C230.7024,15.8608 230.2544,16.3088 229.7024,16.3088" id="Fill-53" fill="#ECEFF6"></path>
                    <path d="M116.1163,5.1421 C116.1163,5.6941 115.6683,6.1421 115.1163,6.1421 C114.5643,6.1421 114.1163,5.6941 114.1163,5.1421 C114.1163,4.5901 114.5643,4.1421 115.1163,4.1421 C115.6683,4.1421 116.1163,4.5901 116.1163,5.1421" id="Fill-55" fill="#ECEFF6"></path>
                    <path d="M80.5551,128.0615 C80.5551,128.6135 80.1071,129.0615 79.5551,129.0615 C79.0031,129.0615 78.5551,128.6135 78.5551,128.0615 C78.5551,127.5095 79.0031,127.0615 79.5551,127.0615 C80.1071,127.0615 80.5551,127.5095 80.5551,128.0615" id="Fill-57" fill="#ECEFF6"></path>
                    <path d="M299.6924,335.5506 C299.6924,336.1026 299.2444,336.5506 298.6924,336.5506 C298.1404,336.5506 297.6924,336.1026 297.6924,335.5506 C297.6924,334.9986 298.1404,334.5506 298.6924,334.5506 C299.2444,334.5506 299.6924,334.9986 299.6924,335.5506" id="Fill-59" fill="#ECEFF6"></path>
                    <path d="M230.7024,131.932 C230.1504,131.932 229.7024,131.484 229.7024,130.932 C229.7024,130.38 230.1504,129.932 230.7024,129.932 C231.2544,129.932 231.7024,130.38 231.7024,130.932 C231.7024,131.484 231.2544,131.932 230.7024,131.932" id="Fill-61" fill="#ECEFF6"></path>
                    <path d="M363.2024,204.631 C362.6504,204.631 362.2024,204.183 362.2024,203.631 C362.2024,203.079 362.6504,202.631 363.2024,202.631 C363.7544,202.631 364.2024,203.079 364.2024,203.631 C364.2024,204.183 363.7544,204.631 363.2024,204.631" id="Fill-63" fill="#ECEFF6"></path>
                    <path d="M357.7939,114.5395 C357.2419,114.5395 356.7939,114.0915 356.7939,113.5395 C356.7939,112.9875 357.2419,112.5395 357.7939,112.5395 C358.3459,112.5395 358.7939,112.9875 358.7939,113.5395 C358.7939,114.0915 358.3459,114.5395 357.7939,114.5395" id="Fill-65" fill="#ECEFF6"></path>
                    <path d="M91,412 C91,412.552 90.552,413 90,413 C89.448,413 89,412.552 89,412 C89,411.448 89.448,411 90,411 C90.552,411 91,411.448 91,412" id="Fill-67" fill="#ECEFF6"></path>
                    <path d="M55.8663,474.1424 C55.8663,474.6944 55.4183,475.1424 54.8663,475.1424 C54.3143,475.1424 53.8663,474.6944 53.8663,474.1424 C53.8663,473.5904 54.3143,473.1424 54.8663,473.1424 C55.4183,473.1424 55.8663,473.5904 55.8663,474.1424" id="Fill-69" fill="#ECEFF6"></path>
                    <path d="M156.3663,532.6424 C156.3663,533.1944 155.9183,533.6424 155.3663,533.6424 C154.8143,533.6424 154.3663,533.1944 154.3663,532.6424 C154.3663,532.0904 154.8143,531.6424 155.3663,531.6424 C155.9183,531.6424 156.3663,532.0904 156.3663,532.6424" id="Fill-71" fill="#ECEFF6"></path>
                    <path d="M210.9658,484.2339 C210.9658,485.3389 210.0708,486.2339 208.9658,486.2339 C207.8608,486.2339 206.9658,485.3389 206.9658,484.2339 C206.9658,483.1289 207.8608,482.2339 208.9658,482.2339 C210.0708,482.2339 210.9658,483.1289 210.9658,484.2339" id="Fill-73" fill="#FFCFCF"></path>
                </g>
            </g>
        </g>
    </g>
</svg>