<?xml version="1.0" encoding="UTF-8" standalone="no"?>
<svg width="1920px" height="1080px" viewBox="0 0 1920 1080" version="1.1" xmlns="http://www.w3.org/2000/svg" xmlns:xlink="http://www.w3.org/1999/xlink">
    <!-- Generator: Sketch 3.8.3 (29802) - http://www.bohemiancoding.com/sketch -->
    <title>Page 1</title>
    <desc>Created with Sketch.</desc>
    <defs></defs>
    <g id="DESIGNS" stroke="none" stroke-width="1" fill="none" fill-rule="evenodd">
        <g id="Desktop-1920-Login-[ready]">
            <g id="Page-1" transform="translate(0.000000, -20.000000)">
                <path d="M531.73851,508.149853 L555.05829,484.830073" id="Stroke-1" stroke="#FFDED7" stroke-width="2" stroke-linecap="round" stroke-linejoin="round" stroke-dasharray="50,4,0,4,100,10"></path>
                <path d="M442.815586,751.464294 L556.093187,638.186693" id="Stroke-2" stroke="#CFC3E2" stroke-width="2" stroke-linecap="round" stroke-linejoin="round" stroke-dasharray="50,4,0,4,100,10"></path>
                <path d="M736.763642,951.524328 L850.041243,838.246727" id="Stroke-3" stroke="#FFCFEB" stroke-width="2" stroke-linecap="round" stroke-linejoin="round" stroke-dasharray="50,4,0,4,100,10"></path>
                <path d="M1272.11737,364.906041 L1332.72729,304.296124" id="Stroke-4" stroke="#E5F9CF" stroke-width="2" stroke-linecap="round" stroke-linejoin="round" stroke-dasharray="50,4,0,4,100,10"></path>
                <path d="M765.874107,156.087365 L652.596506,269.364966" id="Stroke-5" stroke="#FFDED7" stroke-width="2" stroke-linecap="round" stroke-linejoin="round" stroke-dasharray="50,4,0,4,100,10"></path>
                <path d="M996.231503,934.666487 L1054.75959,876.138398" id="Stroke-6" stroke="#CFC3E2" stroke-width="2" stroke-linecap="round" stroke-linejoin="round" stroke-dasharray="50,4,0,4,100,10"></path>
                <path d="M1095.2561,223.816937 L1126.46321,192.609828" id="Stroke-7" stroke="#FFDED7" stroke-width="2" stroke-linecap="round" stroke-linejoin="round" stroke-dasharray="50,4,0,4,100,10"></path>
                <path d="M1314.95948,669.707204 L1428.23708,556.429603" id="Stroke-8" stroke="#FFDED7" stroke-width="2" stroke-linecap="round" stroke-linejoin="round" stroke-dasharray="50,4,0,4,100,10"></path>
                <g id="Group-139" transform="translate(0.000000, 0.684416)">
                    <path d="M315.439393,441.092136 C315.439393,441.923213 314.766259,442.596347 313.935182,442.596347 C313.104106,442.596347 312.430971,441.923213 312.430971,441.092136 C312.430971,440.26106 313.104106,439.587925 313.935182,439.587925 C314.766259,439.587925 315.439393,440.26106 315.439393,441.092136" id="Fill-9" fill="#F9B617"></path>
                    <path d="M146.21568,517.584413 C146.21568,518.415489 145.542546,519.088624 144.71147,519.088624 C143.880393,519.088624 143.207259,518.415489 143.207259,517.584413 C143.207259,516.753337 143.880393,516.080202 144.71147,516.080202 C145.542546,516.080202 146.21568,516.753337 146.21568,517.584413" id="Fill-11" fill="#82CCDC"></path>
                    <path d="M1244.41177,487.148287 L1244.41177,493.16513" id="Stroke-13" stroke="#FFDED7" stroke-width="2" stroke-linecap="round" stroke-linejoin="round"></path>
                    <path d="M1241.40334,490.156709 L1247.42019,490.156709" id="Stroke-15" stroke="#FFDED7" stroke-width="2" stroke-linecap="round" stroke-linejoin="round"></path>
                    <path d="M1177.04493,313.387875 L1177.04493,319.404718" id="Stroke-17" stroke="#FFDED7" stroke-width="2" stroke-linecap="round" stroke-linejoin="round" stroke-dasharray="50,4,0,4,100,10"></path>
                    <path d="M1174.03651,316.396297 L1180.05336,316.396297" id="Stroke-19" stroke="#FFDED7" stroke-width="2" stroke-linecap="round" stroke-linejoin="round" stroke-dasharray="50,4,0,4,100,10"></path>
                    <path d="M962.318845,177.632852 C962.318845,175.971452 963.665866,174.624431 965.327267,174.624431 C966.988667,174.624431 968.335688,175.971452 968.335688,177.632852 C968.335688,179.294253 966.988667,180.641274 965.327267,180.641274 C963.665866,180.641274 962.318845,179.294253 962.318845,177.632852 L962.318845,177.632852 Z" id="Stroke-21" stroke="#FFF0CF" stroke-width="2" stroke-linecap="round" stroke-linejoin="round"></path>
                    <path d="M366.202671,169.77839 C366.202671,166.455589 363.50863,163.761547 360.185828,163.761547 C356.863026,163.761547 354.168985,166.455589 354.168985,169.77839 C354.168985,173.101192 356.863026,175.795233 360.185828,175.795233 C363.50863,175.795233 366.202671,173.101192 366.202671,169.77839 L366.202671,169.77839 Z" id="Stroke-23" stroke="#CFC3E2" stroke-width="2" stroke-linecap="round" stroke-linejoin="round" stroke-dasharray="50,4,0,4,100,10"></path>
                    <path d="M729.91828,694.141153 C729.91828,694.972229 729.245146,695.645364 728.414069,695.645364 C727.582993,695.645364 726.909858,694.972229 726.909858,694.141153 C726.909858,693.310077 727.582993,692.636942 728.414069,692.636942 C729.245146,692.636942 729.91828,693.310077 729.91828,694.141153 L729.91828,694.141153 Z" id="Stroke-25" stroke="#CFC3E2" stroke-width="2" stroke-linecap="round" stroke-linejoin="round" stroke-dasharray="50,4,0,4,100,10"></path>
                    <path d="M1189.07862,676.466676 C1189.07862,677.297753 1188.40549,677.970887 1187.57441,677.970887 C1186.74333,677.970887 1186.0702,677.297753 1186.0702,676.466676 C1186.0702,675.6356 1186.74333,674.962466 1187.57441,674.962466 C1188.40549,674.962466 1189.07862,675.6356 1189.07862,676.466676" id="Fill-27" fill="#B8E986"></path>
                    <path d="M385.926409,665.182764 C385.926409,666.01384 385.253275,666.686975 384.422198,666.686975 C383.591122,666.686975 382.917988,666.01384 382.917988,665.182764 C382.917988,664.351688 383.591122,663.678553 384.422198,663.678553 C385.253275,663.678553 385.926409,664.351688 385.926409,665.182764" id="Fill-29" fill="#FFDED7"></path>
                    <path d="M1404.18076,184.213775 C1404.18076,186.706252 1402.16061,188.726407 1399.66813,188.726407 C1402.16061,188.726407 1404.18076,190.746562 1404.18076,193.239039 C1404.18076,190.746562 1406.20092,188.726407 1408.69339,188.726407 C1406.20092,188.726407 1404.18076,186.706252 1404.18076,184.213775 L1404.18076,184.213775 Z" id="Stroke-31" stroke="#E5F9CF" stroke-width="2" stroke-linecap="round" stroke-linejoin="round" stroke-dasharray="50,4,0,4,100,10"></path>
                    <path d="M594.915363,852.083285 C594.915363,855.406086 592.221321,858.100128 588.898519,858.100128 C592.221321,858.100128 594.915363,860.794169 594.915363,864.116971 C594.915363,860.794169 597.609404,858.100128 600.932206,858.100128 C597.609404,858.100128 594.915363,855.406086 594.915363,852.083285 L594.915363,852.083285 Z" id="Stroke-33" stroke="#FFF0CF" stroke-width="2" stroke-linecap="round" stroke-linejoin="round"></path>
                    <path d="M933.122866,943.512751 C933.122866,944.343827 932.449732,945.016961 931.618655,945.016961 C930.787579,945.016961 930.114444,944.343827 930.114444,943.512751 C930.114444,942.681674 930.787579,942.00854 931.618655,942.00854 C932.449732,942.00854 933.122866,942.681674 933.122866,943.512751" id="Fill-35" fill="#B8E986"></path>
                    <path d="M674.073477,388.786365 C674.073477,389.617442 673.400343,390.290576 672.569266,390.290576 C671.73819,390.290576 671.065055,389.617442 671.065055,388.786365 C671.065055,387.955289 671.73819,387.282154 672.569266,387.282154 C673.400343,387.282154 674.073477,387.955289 674.073477,388.786365" id="Fill-37" fill="#D8137B"></path>
                    <path d="M674.073477,388.786365 C674.073477,389.617442 673.400343,390.290576 672.569266,390.290576 C671.73819,390.290576 671.065055,389.617442 671.065055,388.786365 C671.065055,387.955289 671.73819,387.282154 672.569266,387.282154 C673.400343,387.282154 674.073477,387.955289 674.073477,388.786365 L674.073477,388.786365 Z" id="Stroke-39" stroke="#FFDED7"></path>
                    <path d="M1139.43966,780.633273 C1139.43966,783.12575 1137.41951,785.145905 1134.92703,785.145905 C1137.41951,785.145905 1139.43966,787.16606 1139.43966,789.658537 C1139.43966,787.16606 1141.45982,785.145905 1143.9523,785.145905 C1141.45982,785.145905 1139.43966,783.12575 1139.43966,780.633273 L1139.43966,780.633273 Z" id="Stroke-41" stroke="#FFDED7" stroke-width="2" stroke-linecap="round" stroke-linejoin="round" stroke-dasharray="50,4,0,4,100,10"></path>
                    <path d="M1769.70398,503.70491 C1769.70398,500.382108 1767.00994,497.688067 1763.68714,497.688067 C1760.36434,497.688067 1757.67029,500.382108 1757.67029,503.70491 C1757.67029,507.027711 1760.36434,509.721753 1763.68714,509.721753 C1767.00994,509.721753 1769.70398,507.027711 1769.70398,503.70491 L1769.70398,503.70491 Z" id="Stroke-43" stroke="#82CCDC" stroke-width="2" stroke-linecap="round" stroke-linejoin="round"></path>
                    <path d="M1330.09838,107.122972 C1330.09838,107.953297 1329.42525,108.627183 1328.59417,108.627183 C1327.76309,108.627183 1327.08996,107.953297 1327.08996,107.122972 C1327.08996,106.291896 1327.76309,105.618761 1328.59417,105.618761 C1329.42525,105.618761 1330.09838,106.291896 1330.09838,107.122972" id="Fill-45" fill="#FFDED7"></path>
                    <path d="M176.744766,773.864324 C176.744766,774.695401 176.071632,775.368535 175.240556,775.368535 C174.409479,775.368535 173.736345,774.695401 173.736345,773.864324 C173.736345,773.033248 174.409479,772.360113 175.240556,772.360113 C176.071632,772.360113 176.744766,773.033248 176.744766,773.864324" id="Fill-47" fill="#FFCFEB"></path>
                    <path d="M1605.74501,785.145905 C1605.74501,785.976982 1605.07112,786.650116 1604.24079,786.650116 C1603.41047,786.650116 1602.73658,785.976982 1602.73658,785.145905 C1602.73658,784.314829 1603.41047,783.641694 1604.24079,783.641694 C1605.07112,783.641694 1605.74501,784.314829 1605.74501,785.145905" id="Fill-49" fill="#FFCFEB"></path>
                    <path d="M647.56274,1088.99648 C647.56274,1089.82756 646.889606,1090.50069 646.058529,1090.50069 C645.227453,1090.50069 644.554318,1089.82756 644.554318,1088.99648 C644.554318,1088.16541 645.227453,1087.49227 646.058529,1087.49227 C646.889606,1087.49227 647.56274,1088.16541 647.56274,1088.99648" id="Fill-51" fill="#FFCFEB"></path>
                    <path d="M224.879511,40.5616453 C224.879511,41.3919697 224.206377,42.0658561 223.3753,42.0658561 C222.544224,42.0658561 221.87109,41.3919697 221.87109,40.5616453 C221.87109,39.7305689 222.544224,39.0574345 223.3753,39.0574345 C224.206377,39.0574345 224.879511,39.7305689 224.879511,40.5616453" id="Fill-53" fill="#FFDED7"></path>
                    <path d="M1577.91711,646.030776 C1577.91711,646.861853 1577.24322,647.534987 1576.4129,647.534987 C1575.58257,647.534987 1574.90868,646.861853 1574.90868,646.030776 C1574.90868,645.1997 1575.58257,644.526566 1576.4129,644.526566 C1577.24322,644.526566 1577.91711,645.1997 1577.91711,646.030776" id="Fill-55" fill="#FFCFEB"></path>
                    <path d="M1789.25872,350.617092 C1789.25872,348.955691 1790.60574,347.60867 1792.26714,347.60867 C1793.92854,347.60867 1795.27556,348.955691 1795.27556,350.617092 C1795.27556,352.278493 1793.92854,353.625513 1792.26714,353.625513 C1790.60574,353.625513 1789.25872,352.278493 1789.25872,350.617092 L1789.25872,350.617092 Z" id="Stroke-57" stroke="#FFDED7" stroke-width="2" stroke-linecap="round" stroke-linejoin="round"></path>
                    <path d="M1255.3124,1046.12648 C1255.3124,1044.46507 1256.65943,1043.11805 1258.32083,1043.11805 C1259.98223,1043.11805 1261.32925,1044.46507 1261.32925,1046.12648 C1261.32925,1047.78788 1259.98223,1049.1349 1258.32083,1049.1349 C1256.65943,1049.1349 1255.3124,1047.78788 1255.3124,1046.12648 L1255.3124,1046.12648 Z" id="Stroke-59" stroke="#FFF0CF" stroke-width="2" stroke-linecap="round" stroke-linejoin="round"></path>
                    <path d="M75.9626443,1043.11805 C75.9626443,1041.45665 77.309665,1040.10963 78.9710658,1040.10963 C80.6324666,1040.10963 81.9794874,1041.45665 81.9794874,1043.11805 C81.9794874,1044.77945 80.6324666,1046.12648 78.9710658,1046.12648 C77.309665,1046.12648 75.9626443,1044.77945 75.9626443,1043.11805 L75.9626443,1043.11805 Z" id="Stroke-61" stroke="#FFF0CF" stroke-width="2" stroke-linecap="round" stroke-linejoin="round"></path>
                    <path d="M215.854247,293.269056 C215.854247,291.607655 217.201267,290.260634 218.862668,290.260634 C220.524069,290.260634 221.87109,291.607655 221.87109,293.269056 C221.87109,294.930457 220.524069,296.277478 218.862668,296.277478 C217.201267,296.277478 215.854247,294.930457 215.854247,293.269056 L215.854247,293.269056 Z" id="Stroke-63" stroke="#FFF0CF" stroke-width="2" stroke-linecap="round" stroke-linejoin="round"></path>
                    <path d="M9.77737006,548.984813 L9.77737006,555.001656" id="Stroke-65" stroke="#FFDED7" stroke-width="2" stroke-linecap="round" stroke-linejoin="round" stroke-dasharray="50,4,0,4,100,10"></path>
                    <path d="M6.7689485,551.993235 L12.7857916,551.993235" id="Stroke-67" stroke="#FFDED7" stroke-width="2" stroke-linecap="round" stroke-linejoin="round" stroke-dasharray="50,4,0,4,100,10"></path>
                    <path d="M1710.28765,958.88225 L1710.28765,964.899093" id="Stroke-69" stroke="#FFDED7" stroke-width="2" stroke-linecap="round" stroke-linejoin="round" stroke-dasharray="50,4,0,4,100,10"></path>
                    <path d="M1707.27923,961.890671 L1713.29608,961.890671" id="Stroke-71" stroke="#FFDED7" stroke-width="2" stroke-linecap="round" stroke-linejoin="round" stroke-dasharray="50,4,0,4,100,10"></path>
                    <path d="M628.691287,941.583826 L628.691287,947.600669" id="Stroke-73" stroke="#FFDED7" stroke-width="2" stroke-linecap="round" stroke-linejoin="round" stroke-dasharray="50,4,0,4,100,10"></path>
                    <path d="M625.682866,944.592248 L631.699709,944.592248" id="Stroke-75" stroke="#FFDED7" stroke-width="2" stroke-linecap="round" stroke-linejoin="round" stroke-dasharray="50,4,0,4,100,10"></path>
                    <path d="M1652.37554,108.627183 L1652.37554,114.644026" id="Stroke-77" stroke="#FFDED7" stroke-width="2" stroke-linecap="round" stroke-linejoin="round" stroke-dasharray="50,4,0,4,100,10"></path>
                    <path d="M1649.36712,111.635605 L1655.38396,111.635605" id="Stroke-79" stroke="#FFDED7" stroke-width="2" stroke-linecap="round" stroke-linejoin="round" stroke-dasharray="50,4,0,4,100,10"></path>
                    <path d="M531.73851,364.34294 L531.73851,370.359783" id="Stroke-81" stroke="#FFDED7" stroke-width="2" stroke-linecap="round" stroke-linejoin="round" stroke-dasharray="50,4,0,4,100,10"></path>
                    <path d="M528.730088,367.351362 L534.746931,367.351362" id="Stroke-83" stroke="#FFDED7" stroke-width="2" stroke-linecap="round" stroke-linejoin="round" stroke-dasharray="50,4,0,4,100,10"></path>
                    <path d="M209.817397,701.662207 C209.817397,698.339405 207.123356,695.645364 203.800554,695.645364 C200.477753,695.645364 197.783711,698.339405 197.783711,701.662207 C197.783711,704.985009 200.477753,707.67905 203.800554,707.67905 C207.123356,707.67905 209.817397,704.985009 209.817397,701.662207 L209.817397,701.662207 Z" id="Stroke-85" stroke="#CFC3E2" stroke-width="2" stroke-linecap="round" stroke-linejoin="round" stroke-dasharray="50,4,0,4,100,10"></path>
                    <path d="M1519.25289,705.422734 C1519.25289,702.099932 1516.55884,699.405891 1513.23604,699.405891 C1509.91324,699.405891 1507.2192,702.099932 1507.2192,705.422734 C1507.2192,708.745535 1509.91324,711.439577 1513.23604,711.439577 C1516.55884,711.439577 1519.25289,708.745535 1519.25289,705.422734 L1519.25289,705.422734 Z" id="Stroke-87" stroke="#CFC3E2" stroke-width="2" stroke-linecap="round" stroke-linejoin="round" stroke-dasharray="50,4,0,4,100,10"></path>
                    <path d="M1106.34703,1023.11844 C1106.34703,1019.79564 1103.65299,1017.1016 1100.33018,1017.1016 C1097.00738,1017.1016 1094.31334,1019.79564 1094.31334,1023.11844 C1094.31334,1026.44124 1097.00738,1029.13529 1100.33018,1029.13529 C1103.65299,1029.13529 1106.34703,1026.44124 1106.34703,1023.11844 L1106.34703,1023.11844 Z" id="Stroke-89" stroke="#CFC3E2" stroke-width="2" stroke-linecap="round" stroke-linejoin="round" stroke-dasharray="50,4,0,4,100,10"></path>
                    <path d="M1604.24079,283.491686 C1604.24079,284.32201 1603.56691,284.995897 1602.73658,284.995897 C1601.90626,284.995897 1601.23237,284.32201 1601.23237,283.491686 C1601.23237,282.660609 1601.90626,281.987475 1602.73658,281.987475 C1603.56691,281.987475 1604.24079,282.660609 1604.24079,283.491686" id="Fill-91" fill="#FFDED7"></path>
                    <path d="M1598.22395,991.974887 C1598.22395,992.805963 1597.55006,993.479098 1596.71974,993.479098 C1595.88942,993.479098 1595.21553,992.805963 1595.21553,991.974887 C1595.21553,991.143811 1595.88942,990.470676 1596.71974,990.470676 C1597.55006,990.470676 1598.22395,991.143811 1598.22395,991.974887" id="Fill-93" fill="#FFCFEB"></path>
                    <path d="M3.00842156,895.705397 C3.00842156,896.536474 2.33528723,897.209608 1.50421078,897.209608 C0.673134323,897.209608 0,896.536474 0,895.705397 C0,894.874321 0.673134323,894.201186 1.50421078,894.201186 C2.33528723,894.201186 3.00842156,894.874321 3.00842156,895.705397" id="Fill-95" fill="#FFCFEB"></path>
                    <path d="M103.790544,293.269056 C103.790544,294.09938 103.117409,294.773267 102.286333,294.773267 C101.455256,294.773267 100.782122,294.09938 100.782122,293.269056 C100.782122,292.43798 101.455256,291.764845 102.286333,291.764845 C103.117409,291.764845 103.790544,292.43798 103.790544,293.269056" id="Fill-97" fill="#FFDED7"></path>
                    <path d="M822.101656,94.7132333 C822.101656,95.5435577 821.428522,96.2174441 820.597446,96.2174441 C819.767121,96.2174441 819.093235,95.5435577 819.093235,94.7132333 C819.093235,93.8821569 819.767121,93.2090225 820.597446,93.2090225 C821.428522,93.2090225 822.101656,93.8821569 822.101656,94.7132333" id="Fill-99" fill="#FF6666"></path>
                    <path d="M1417.71866,430.904267 C1417.71866,431.735343 1417.04552,432.408478 1416.21445,432.408478 C1415.38337,432.408478 1414.71024,431.735343 1414.71024,430.904267 C1414.71024,430.07319 1415.38337,429.400056 1416.21445,429.400056 C1417.04552,429.400056 1417.71866,430.07319 1417.71866,430.904267" id="Fill-101" fill="#FFDED7"></path>
                    <path d="M1392.89918,826.818937 C1392.89918,827.650013 1392.22605,828.323147 1391.39497,828.323147 C1390.56389,828.323147 1389.89076,827.650013 1389.89076,826.818937 C1389.89076,825.98786 1390.56389,825.314726 1391.39497,825.314726 C1392.22605,825.314726 1392.89918,825.98786 1392.89918,826.818937" id="Fill-103" fill="#B8E986"></path>
                    <path d="M318.140579,841.929862 C318.140579,842.760938 317.467445,843.434073 316.636369,843.434073 C315.805292,843.434073 315.132158,842.760938 315.132158,841.929862 C315.132158,841.098785 315.805292,840.425651 316.636369,840.425651 C317.467445,840.425651 318.140579,841.098785 318.140579,841.929862" id="Fill-105" fill="#B8E986"></path>
                    <path d="M318.140579,841.929862 C318.140579,842.760938 317.467445,843.434073 316.636369,843.434073 C315.805292,843.434073 315.132158,842.760938 315.132158,841.929862 C315.132158,841.098785 315.805292,840.425651 316.636369,840.425651 C317.467445,840.425651 318.140579,841.098785 318.140579,841.929862 L318.140579,841.929862 Z" id="Stroke-107" stroke="#E5F9CF"></path>
                    <path d="M1650.87133,448.202691 C1650.87133,449.033767 1650.19744,449.706902 1649.36712,449.706902 C1648.53679,449.706902 1647.86291,449.033767 1647.86291,448.202691 C1647.86291,447.371614 1648.53679,446.69848 1649.36712,446.69848 C1650.19744,446.69848 1650.87133,447.371614 1650.87133,448.202691" id="Fill-109" fill="#B8E986"></path>
                    <path d="M168.240786,1079.75717 L281.518387,966.479567" id="Stroke-111" stroke="#FFCFEB" stroke-width="2" stroke-linecap="round" stroke-linejoin="round" stroke-dasharray="50,4,0,4,100,10"></path>
                    <path d="M1722.04336,220.400272 L1835.32096,107.122671" id="Stroke-113" stroke="#FFCFEB" stroke-width="2" stroke-linecap="round" stroke-linejoin="round" stroke-dasharray="50,4,0,4,100,10"></path>
                    <path d="M341.455847,62.420009 L390.949646,12.9262097" id="Stroke-115" stroke="#FFCFEB" stroke-width="2" stroke-linecap="round" stroke-linejoin="round" stroke-dasharray="50,4,0,4,100,10"></path>
                    <path d="M103.790544,612.156401 L134.997653,580.949292" id="Stroke-117" stroke="#FFDED7" stroke-width="2" stroke-linecap="round" stroke-linejoin="round" stroke-dasharray="50,4,0,4,100,10"></path>
                    <path d="M1632.64578,897.209608 L1700.51051,829.344882" id="Stroke-119" stroke="#FFDED7" stroke-width="2" stroke-linecap="round" stroke-linejoin="round" stroke-dasharray="50,4,0,4,100,10"></path>
                    <path d="M1708.18943,646.309883 L1920.8901,433.609214" id="Stroke-121" stroke="#FFDED7" stroke-width="2" stroke-linecap="round" stroke-linejoin="round" stroke-dasharray="50,4,0,4,100,10"></path>
                    <path d="M458.905226,953.243716 L482.225005,929.923936" id="Stroke-123" stroke="#FFDED7" stroke-width="2" stroke-linecap="round" stroke-linejoin="round" stroke-dasharray="50,4,0,4,100,10"></path>
                    <path d="M1501.95446,71.5859926 C1501.95446,68.263191 1499.26042,65.5691495 1495.93762,65.5691495 C1492.61482,65.5691495 1489.92078,68.263191 1489.92078,71.5859926 C1489.92078,74.9087942 1492.61482,77.6028357 1495.93762,77.6028357 C1499.26042,77.6028357 1501.95446,74.9087942 1501.95446,71.5859926 L1501.95446,71.5859926 Z" id="Stroke-125" stroke="#FFCFEB" stroke-width="2" stroke-linecap="round" stroke-linejoin="round"></path>
                    <path d="M801.692299,1122.89335 L860.220388,1064.36526" id="Stroke-127" stroke="#CFC3E2" stroke-width="2" stroke-linecap="round" stroke-linejoin="round" stroke-dasharray="50,4,0,4,100,10"></path>
                    <path d="M1867.04951,923.96147 L1925.5776,865.433381" id="Stroke-129" stroke="#CFC3E2" stroke-width="2" stroke-linecap="round" stroke-linejoin="round" stroke-dasharray="50,4,0,4,100,10"></path>
                    <path d="M1056.55118,60.6804645 L1117.1611,0.0705474855" id="Stroke-131" stroke="#E5F9CF" stroke-width="2" stroke-linecap="round" stroke-linejoin="round" stroke-dasharray="50,4,0,4,100,10"></path>
                    <path d="M45.1263233,1061.16858 L45.1263233,1067.18543" id="Fill-133" fill="#FFCFEB"></path>
                    <path d="M42.1179018,1064.177 L48.1347449,1064.177" id="Fill-135" fill="#FFCFEB"></path>
                    <path d="M1258.32083,1079.75717 L1371.59843,966.479567" id="Stroke-137" stroke="#E5F9CF" stroke-width="2" stroke-linecap="round" stroke-linejoin="round" stroke-dasharray="50,4,0,4,100,10"></path>
                </g>
            </g>
        </g>
    </g>
</svg>