<?xml version="1.0" encoding="UTF-8" standalone="no"?>
<svg width="24px" height="20px" viewBox="0 0 24 20" version="1.1" xmlns="http://www.w3.org/2000/svg" xmlns:xlink="http://www.w3.org/1999/xlink">
    <!-- Generator: Sketch 3.7.2 (28276) - http://www.bohemiancoding.com/sketch -->
    <title>Fill 1</title>
    <desc>Created with Sketch.</desc>
    <defs></defs>
    <g id="DESIGNS" stroke="none" stroke-width="1" fill="none" fill-rule="evenodd">
        <g id="Mobile-360-Profile-private" transform="translate(-168.000000, -346.000000)" fill="#99A3B3">
            <g id="Page-1" transform="translate(168.000000, 346.000000)">
                <path d="M23.9465343,2.37570219 C23.065454,2.76644672 22.1186803,3.0306219 21.1247825,3.14930803 C22.1391766,2.54133723 22.9182131,1.57844672 23.2849577,0.431264234 C22.3357314,0.99430073 21.2843737,1.40308905 20.1652204,1.62346861 C19.2690745,0.668636496 17.9922569,0.0719649635 16.579235,0.0719649635 C13.8658336,0.0719649635 11.6661547,2.27173139 11.6661547,4.98478248 C11.6661547,5.36992117 11.7096,5.74481168 11.7933372,6.10437372 C7.71027153,5.89949781 4.09021314,3.9435854 1.66708905,0.971264234 C1.24419854,1.69687007 1.00192117,2.54081168 1.00192117,3.44116204 C1.00192117,5.1456 1.86924964,6.64936642 3.18749781,7.53044672 C2.38218394,7.50495766 1.6246073,7.28387737 0.962242336,6.91590657 C0.961891971,6.93640292 0.96180438,6.95698686 0.96180438,6.97765839 C0.96180438,9.35803796 2.65529343,11.3437314 4.90279708,11.7950891 C4.49050511,11.9072934 4.05649051,11.9672934 3.60846131,11.9672934 C3.29181898,11.9672934 2.98411095,11.9365489 2.68411095,11.8791766 C3.30933723,13.8310599 5.12370219,15.2514394 7.27354161,15.2912058 C5.59205255,16.6088409 3.47374599,17.3941839 1.17193577,17.3941839 C0.775410219,17.3941839 0.384315328,17.3709723 -3.50364962e-05,17.3256 C2.17424234,18.719527 4.7566073,19.5328117 7.53105985,19.5328117 C16.5677606,19.5328117 21.509308,12.0467387 21.509308,5.55447591 C21.509308,5.34145401 21.5044905,5.1295708 21.4951182,4.91891387 C22.4549431,4.22624234 23.2878482,3.36092847 23.9465343,2.37570219" id="Fill-1"></path>
            </g>
        </g>
    </g>
</svg>