<?xml version="1.0" encoding="UTF-8" standalone="no"?>
<svg width="26px" height="15px" viewBox="0 0 26 15" version="1.1" xmlns="http://www.w3.org/2000/svg" xmlns:xlink="http://www.w3.org/1999/xlink">
    <!-- Generator: Sketch 40.3 (33839) - http://www.bohemiancoding.com/sketch -->
    <title>v-off</title>
    <desc>Created with Sketch.</desc>
    <defs></defs>
    <g id="Page-1" stroke="none" stroke-width="1" fill="none" fill-rule="evenodd">
        <g id="v-off" fill="#949494">
            <g id="Group">
                <path d="M25.8319235,13.5333439 C25.8004772,13.4649841 25.7711621,13.4082803 25.7439308,13.3628503 C25.2933588,12.5442994 24.4323279,11.539586 23.1613588,10.3484236 L23.1345064,10.3211465 L23.1210565,10.3077707 L23.1074645,10.2940605 L23.0938251,10.2940605 C22.5169945,9.7393949 22.1517158,9.36644904 21.9987468,9.17550955 C21.7188561,8.81178344 21.656153,8.44361465 21.809122,8.07057325 C21.9171949,7.78872611 22.3231548,7.19350318 23.0260546,6.28409236 C23.3957851,5.80213376 23.6886047,5.41585987 23.9048452,5.12484076 C25.4644189,3.03343949 26.140561,1.69700637 25.9331293,1.11501592 L25.8525719,0.979012739 C25.7984408,0.897133758 25.6587322,0.822229299 25.4336357,0.753917197 C25.2080182,0.685748408 24.9196503,0.674474522 24.5680109,0.719904459 L20.6739781,0.747038217 C20.6108962,0.724490446 20.5208197,0.726592357 20.4034645,0.753917197 C20.2862514,0.781242038 20.2276211,0.794952229 20.2276211,0.794952229 L20.1598506,0.82910828 L20.106051,0.870143312 C20.0609654,0.89727707 20.0113807,0.945 19.9572495,1.01321656 C19.9034026,1.08119427 19.8583643,1.16097134 19.8223716,1.25187898 C19.3984153,2.35208599 18.9163971,3.375 18.3754171,4.32057325 C18.0418689,4.88441083 17.7355519,5.37305732 17.4558033,5.78679936 C17.1764335,6.20039809 16.9420546,6.50512739 16.7529035,6.70046178 C16.5634681,6.89598726 16.3925027,7.05262739 16.2389654,7.17095541 C16.0856648,7.28933121 15.9686412,7.33934713 15.8876102,7.32105096 C15.8063898,7.30275478 15.7299053,7.28460191 15.6574936,7.26644904 C15.531377,7.18457006 15.4299344,7.07321656 15.3534499,6.93229299 C15.2766339,6.79136943 15.224918,6.61399682 15.1978761,6.40031847 C15.1709763,6.18649682 15.1550638,6.00257962 15.1505173,5.84794586 C15.1463024,5.69350318 15.1482441,5.47504777 15.1573843,5.19320064 C15.1667614,4.91121019 15.1709763,4.72041401 15.1709763,4.62038217 C15.1709763,4.27480892 15.1776539,3.89976115 15.1910565,3.49514331 C15.2046958,3.09052548 15.2157304,2.76993631 15.2249654,2.53375796 C15.234153,2.29734076 15.2384153,2.04721338 15.2384153,1.78351911 C15.2384153,1.51982484 15.2225027,1.31302548 15.1910565,1.16292994 C15.1599891,1.01302548 15.1122987,0.867515924 15.0494536,0.726449045 C14.9862295,0.585525478 14.8936903,0.476512739 14.7722623,0.399124204 C14.6505974,0.32183121 14.4993333,0.260493631 14.3193224,0.214920382 C13.8415191,0.105859873 13.2331002,0.0468630573 12.4937814,0.0376910828 C10.8172313,0.0195382166 9.73995993,0.128742038 9.26220401,0.365159236 C9.07291075,0.465047771 8.90161384,0.601528662 8.74845537,0.774171975 C8.58615665,0.974283439 8.56351913,1.08348726 8.68068488,1.10144904 C9.22161749,1.18318471 9.60456102,1.37871019 9.82994171,1.68783439 L9.91116211,1.85164013 C9.9743388,1.96982484 10.0374208,2.17906051 10.1005501,2.47906051 C10.1635847,2.77906051 10.2042659,3.11092357 10.2221676,3.4744586 C10.2671585,4.13832803 10.2671585,4.70660828 10.2221676,5.17934713 C10.1770346,5.65227707 10.1344117,6.02044586 10.0937304,6.28414013 C10.0530492,6.54783439 9.99224044,6.76151274 9.91116211,6.92512739 C9.82994171,7.08878981 9.77590528,7.18882166 9.74881603,7.22512739 C9.72177413,7.26143312 9.69923133,7.28431529 9.68132969,7.29329618 C9.56416393,7.3385828 9.44230965,7.36165605 9.31619308,7.36165605 C9.18988707,7.36165605 9.0367286,7.29792994 8.85648087,7.17057325 C8.67628051,7.04321656 8.48926047,6.86828025 8.29542077,6.64547771 C8.10158106,6.42262739 7.88297268,6.11121019 7.63950091,5.71117834 C7.39621858,5.3111465 7.14379599,4.83835987 6.88237523,4.29281847 L6.66608743,3.89718153 C6.53087796,3.64265924 6.34617851,3.27205414 6.11179964,2.78570064 C5.87727869,2.29915605 5.66998907,1.82851911 5.48978871,1.37388535 C5.41775592,1.18294586 5.30954098,1.03757962 5.16533333,0.937547771 L5.09765756,0.896512739 C5.05266667,0.860207006 4.98044444,0.821656051 4.88136976,0.780573248 C4.78215301,0.739538217 4.67862659,0.710111465 4.5703643,0.692006369 L0.865530055,0.719140127 C0.486943534,0.719140127 0.230069217,0.805652866 0.0948123862,0.97843949 L0.0406812386,1.06017516 C0.0136393443,1.10570064 0,1.17840764 0,1.27848726 C0,1.37851911 0.0270418944,1.50128981 0.0811730419,1.64665605 C0.622010929,2.92882166 1.21016029,4.16536624 1.84562113,5.35648089 C2.48108197,6.54759554 3.03328597,7.50707006 3.50190164,8.23404459 C3.97061202,8.96154459 4.44836794,9.64815287 4.9351694,10.293535 C5.42197086,10.9391561 5.74420036,11.3528981 5.90185792,11.5346656 C6.05970492,11.7167675 6.18369035,11.852914 6.27381421,11.9438217 L6.61190893,12.2710987 C6.82824408,12.4893631 7.14592714,12.7507643 7.56510018,13.0553025 C7.98436794,13.3600318 8.44853188,13.6600318 8.95782878,13.9557803 C9.4672204,14.251051 10.0598215,14.4920064 10.7359636,14.6783599 C11.4120109,14.8649045 12.0700146,14.9397611 12.7100692,14.9036465 L14.2650492,14.9036465 C14.5804117,14.8761783 14.819337,14.7761465 14.9817304,14.6035032 L15.0355301,14.5351433 C15.0717122,14.4808758 15.1055738,14.3965605 15.1368306,14.2831051 C15.1684663,14.1694586 15.1841894,14.0442516 15.1841894,13.9080573 C15.1749545,13.5171497 15.204459,13.1648408 15.271898,12.8511783 C15.3392896,12.5376115 15.4161056,12.3011943 15.5020146,12.1419745 C15.5878761,11.9828981 15.6847723,11.8486624 15.7926084,11.7398408 C15.9006812,11.6307803 15.9776867,11.5647134 16.022867,11.5419745 C16.0677632,11.5190924 16.1036138,11.5035669 16.1306557,11.4942516 C16.3469909,11.4215446 16.601592,11.4919586 16.8948379,11.705828 C17.187847,11.9195064 17.4626703,12.1833439 17.7197341,12.4969108 C17.9766557,12.8107643 18.2853406,13.1628822 18.6458361,13.5537898 C19.0065683,13.9448408 19.3219781,14.2355255 19.5923024,14.4267516 L19.8626266,14.590414 C20.0431585,14.6996178 20.2775373,14.7996497 20.5660474,14.8905573 C20.8540364,14.9814172 21.1063643,15.0041561 21.323031,14.9587261 L24.7843461,14.9042675 C25.1267031,14.9042675 25.3930965,14.847086 25.5820583,14.7336306 C25.7713989,14.6199841 25.8838761,14.4947771 25.920153,14.3585828 C25.9563352,14.2222452 25.9582769,14.0675637 25.92702,13.8946338 C25.8949581,13.7221338 25.8633698,13.6015127 25.8319235,13.5333439 L25.8319235,13.5333439 Z" id="Shape"></path>
            </g>
        </g>
    </g>
</svg>